<mxfile host="app.diagrams.net" modified="2024-03-03T17:58:35.170Z" agent="Mozilla/5.0 (Windows NT 10.0; Win64; x64) AppleWebKit/537.36 (KHTML, like Gecko) Chrome/122.0.0.0 Safari/537.36" etag="6jTYCl2abLFns6hFpm72" version="23.1.6" type="google">
  <diagram name="Page-1" id="0ZYtxjvnRpMsMk_e7GxS">
    <mxGraphModel grid="1" page="0" gridSize="15" guides="1" tooltips="1" connect="1" arrows="1" fold="1" pageScale="1" pageWidth="827" pageHeight="1169" background="none" math="0" shadow="0">
      <root>
        <mxCell id="0" />
        <mxCell id="1" parent="0" />
        <mxCell id="n_hQNZrwe9v2qWnjwRf1-9" value="" style="rounded=1;whiteSpace=wrap;html=1;" vertex="1" parent="1">
          <mxGeometry x="75" y="2880" width="2445" height="1380" as="geometry" />
        </mxCell>
        <mxCell id="NCAf9RA6FtGUAR0A4gLe-11" style="edgeStyle=none;curved=1;rounded=0;orthogonalLoop=1;jettySize=auto;html=1;entryX=0.5;entryY=0;entryDx=0;entryDy=0;fontSize=12;startSize=8;endSize=8;" edge="1" parent="1" source="NCAf9RA6FtGUAR0A4gLe-2" target="NCAf9RA6FtGUAR0A4gLe-8">
          <mxGeometry relative="1" as="geometry" />
        </mxCell>
        <mxCell id="NCAf9RA6FtGUAR0A4gLe-12" style="edgeStyle=orthogonalEdgeStyle;rounded=0;orthogonalLoop=1;jettySize=auto;html=1;entryX=0.5;entryY=0;entryDx=0;entryDy=0;fontSize=12;startSize=8;endSize=8;" edge="1" parent="1" source="NCAf9RA6FtGUAR0A4gLe-2" target="NCAf9RA6FtGUAR0A4gLe-3">
          <mxGeometry relative="1" as="geometry">
            <Array as="points">
              <mxPoint x="1059.5" y="-240" />
              <mxPoint x="925.5" y="-240" />
            </Array>
          </mxGeometry>
        </mxCell>
        <mxCell id="NCAf9RA6FtGUAR0A4gLe-13" style="edgeStyle=orthogonalEdgeStyle;rounded=0;orthogonalLoop=1;jettySize=auto;html=1;entryX=0.5;entryY=0;entryDx=0;entryDy=0;fontSize=12;startSize=8;endSize=8;" edge="1" parent="1" source="NCAf9RA6FtGUAR0A4gLe-2" target="NCAf9RA6FtGUAR0A4gLe-4">
          <mxGeometry relative="1" as="geometry">
            <Array as="points">
              <mxPoint x="1060.5" y="-240" />
              <mxPoint x="1267.5" y="-240" />
              <mxPoint x="1267.5" y="-180" />
              <mxPoint x="1270.5" y="-180" />
            </Array>
          </mxGeometry>
        </mxCell>
        <mxCell id="NCAf9RA6FtGUAR0A4gLe-159" style="edgeStyle=orthogonalEdgeStyle;rounded=0;orthogonalLoop=1;jettySize=auto;html=1;strokeColor=default;align=center;verticalAlign=middle;fontFamily=Helvetica;fontSize=12;fontColor=default;labelBackgroundColor=default;startSize=8;endArrow=classic;endSize=8;entryX=0.5;entryY=0;entryDx=0;entryDy=0;" edge="1" parent="1" source="NCAf9RA6FtGUAR0A4gLe-2" target="cJjA6EJP8AFZV5R_d-NW-96">
          <mxGeometry relative="1" as="geometry">
            <mxPoint x="1777.5" y="-210" as="targetPoint" />
          </mxGeometry>
        </mxCell>
        <mxCell id="NCAf9RA6FtGUAR0A4gLe-2" value="Layout" style="ellipse;whiteSpace=wrap;html=1;aspect=fixed;fillColor=#ffe6cc;strokeColor=#d79b00;" vertex="1" parent="1">
          <mxGeometry x="1030" y="-330" width="60" height="60" as="geometry" />
        </mxCell>
        <mxCell id="NCAf9RA6FtGUAR0A4gLe-14" style="edgeStyle=orthogonalEdgeStyle;rounded=0;orthogonalLoop=1;jettySize=auto;html=1;entryX=0.5;entryY=0;entryDx=0;entryDy=0;strokeColor=default;align=center;verticalAlign=middle;fontFamily=Helvetica;fontSize=12;fontColor=default;labelBackgroundColor=default;startSize=8;endArrow=classic;endSize=8;" edge="1" parent="1" source="NCAf9RA6FtGUAR0A4gLe-3" target="NCAf9RA6FtGUAR0A4gLe-6">
          <mxGeometry relative="1" as="geometry">
            <Array as="points">
              <mxPoint x="802.5" y="-148" />
            </Array>
          </mxGeometry>
        </mxCell>
        <mxCell id="NCAf9RA6FtGUAR0A4gLe-15" style="edgeStyle=orthogonalEdgeStyle;rounded=0;orthogonalLoop=1;jettySize=auto;html=1;strokeColor=default;align=center;verticalAlign=middle;fontFamily=Helvetica;fontSize=12;fontColor=default;labelBackgroundColor=default;startSize=8;endArrow=classic;endSize=8;" edge="1" parent="1" source="NCAf9RA6FtGUAR0A4gLe-3" target="NCAf9RA6FtGUAR0A4gLe-5">
          <mxGeometry relative="1" as="geometry" />
        </mxCell>
        <mxCell id="NCAf9RA6FtGUAR0A4gLe-3" value="Header" style="ellipse;whiteSpace=wrap;html=1;aspect=fixed;" vertex="1" parent="1">
          <mxGeometry x="892.5" y="-180" width="65" height="65" as="geometry" />
        </mxCell>
        <mxCell id="NCAf9RA6FtGUAR0A4gLe-151" value="" style="edgeStyle=orthogonalEdgeStyle;rounded=0;orthogonalLoop=1;jettySize=auto;html=1;strokeColor=default;align=center;verticalAlign=middle;fontFamily=Helvetica;fontSize=12;fontColor=default;labelBackgroundColor=default;startSize=8;endArrow=classic;endSize=8;" edge="1" parent="1" source="NCAf9RA6FtGUAR0A4gLe-4" target="NCAf9RA6FtGUAR0A4gLe-150">
          <mxGeometry relative="1" as="geometry" />
        </mxCell>
        <mxCell id="NCAf9RA6FtGUAR0A4gLe-153" style="edgeStyle=orthogonalEdgeStyle;rounded=0;orthogonalLoop=1;jettySize=auto;html=1;entryX=0.5;entryY=0;entryDx=0;entryDy=0;strokeColor=default;align=center;verticalAlign=middle;fontFamily=Helvetica;fontSize=12;fontColor=default;labelBackgroundColor=default;startSize=8;endArrow=classic;endSize=8;" edge="1" parent="1" source="NCAf9RA6FtGUAR0A4gLe-4" target="NCAf9RA6FtGUAR0A4gLe-152">
          <mxGeometry relative="1" as="geometry" />
        </mxCell>
        <mxCell id="NCAf9RA6FtGUAR0A4gLe-156" style="edgeStyle=orthogonalEdgeStyle;rounded=0;orthogonalLoop=1;jettySize=auto;html=1;entryX=0.5;entryY=0;entryDx=0;entryDy=0;strokeColor=default;align=center;verticalAlign=middle;fontFamily=Helvetica;fontSize=12;fontColor=default;labelBackgroundColor=default;startSize=8;endArrow=classic;endSize=8;" edge="1" parent="1" source="NCAf9RA6FtGUAR0A4gLe-4" target="NCAf9RA6FtGUAR0A4gLe-154">
          <mxGeometry relative="1" as="geometry" />
        </mxCell>
        <mxCell id="NCAf9RA6FtGUAR0A4gLe-4" value="Footer" style="ellipse;whiteSpace=wrap;html=1;aspect=fixed;" vertex="1" parent="1">
          <mxGeometry x="1237.5" y="-165" width="65" height="65" as="geometry" />
        </mxCell>
        <mxCell id="NCAf9RA6FtGUAR0A4gLe-5" value="TopBar" style="ellipse;whiteSpace=wrap;html=1;aspect=fixed;" vertex="1" parent="1">
          <mxGeometry x="895" y="-75" width="60" height="60" as="geometry" />
        </mxCell>
        <mxCell id="NCAf9RA6FtGUAR0A4gLe-19" style="edgeStyle=orthogonalEdgeStyle;rounded=0;orthogonalLoop=1;jettySize=auto;html=1;entryX=0.5;entryY=0;entryDx=0;entryDy=0;strokeColor=default;align=center;verticalAlign=middle;fontFamily=Helvetica;fontSize=12;fontColor=default;labelBackgroundColor=default;startSize=8;endArrow=classic;endSize=8;" edge="1" parent="1" source="NCAf9RA6FtGUAR0A4gLe-6" target="NCAf9RA6FtGUAR0A4gLe-16">
          <mxGeometry relative="1" as="geometry" />
        </mxCell>
        <mxCell id="NCAf9RA6FtGUAR0A4gLe-20" style="edgeStyle=orthogonalEdgeStyle;rounded=0;orthogonalLoop=1;jettySize=auto;html=1;entryX=0.5;entryY=0;entryDx=0;entryDy=0;strokeColor=default;align=center;verticalAlign=middle;fontFamily=Helvetica;fontSize=12;fontColor=default;labelBackgroundColor=default;startSize=8;endArrow=classic;endSize=8;" edge="1" parent="1" source="NCAf9RA6FtGUAR0A4gLe-6" target="NCAf9RA6FtGUAR0A4gLe-17">
          <mxGeometry relative="1" as="geometry">
            <Array as="points">
              <mxPoint x="787.5" y="30" />
              <mxPoint x="787.5" y="30" />
            </Array>
          </mxGeometry>
        </mxCell>
        <mxCell id="NCAf9RA6FtGUAR0A4gLe-21" style="edgeStyle=orthogonalEdgeStyle;rounded=0;orthogonalLoop=1;jettySize=auto;html=1;entryX=0.5;entryY=0;entryDx=0;entryDy=0;strokeColor=default;align=center;verticalAlign=middle;fontFamily=Helvetica;fontSize=12;fontColor=default;labelBackgroundColor=default;startSize=8;endArrow=classic;endSize=8;" edge="1" parent="1" source="NCAf9RA6FtGUAR0A4gLe-6" target="NCAf9RA6FtGUAR0A4gLe-18">
          <mxGeometry relative="1" as="geometry" />
        </mxCell>
        <mxCell id="NCAf9RA6FtGUAR0A4gLe-6" value="Navbar" style="ellipse;whiteSpace=wrap;html=1;aspect=fixed;" vertex="1" parent="1">
          <mxGeometry x="772.5" y="-60" width="60" height="60" as="geometry" />
        </mxCell>
        <mxCell id="NCAf9RA6FtGUAR0A4gLe-23" style="edgeStyle=orthogonalEdgeStyle;rounded=0;orthogonalLoop=1;jettySize=auto;html=1;entryX=0.5;entryY=0;entryDx=0;entryDy=0;strokeColor=default;align=center;verticalAlign=middle;fontFamily=Helvetica;fontSize=12;fontColor=default;labelBackgroundColor=default;startSize=8;endArrow=classic;endSize=8;" edge="1" parent="1" source="NCAf9RA6FtGUAR0A4gLe-8" target="NCAf9RA6FtGUAR0A4gLe-22">
          <mxGeometry relative="1" as="geometry" />
        </mxCell>
        <mxCell id="NCAf9RA6FtGUAR0A4gLe-8" value="Pages" style="ellipse;whiteSpace=wrap;html=1;aspect=fixed;fillColor=#d5e8d4;strokeColor=#82b366;" vertex="1" parent="1">
          <mxGeometry x="1027.5" y="-180" width="65" height="65" as="geometry" />
        </mxCell>
        <mxCell id="NCAf9RA6FtGUAR0A4gLe-16" value="Brand" style="ellipse;whiteSpace=wrap;html=1;aspect=fixed;" vertex="1" parent="1">
          <mxGeometry x="667.5" y="75" width="60" height="60" as="geometry" />
        </mxCell>
        <mxCell id="NCAf9RA6FtGUAR0A4gLe-17" value="Menu" style="ellipse;whiteSpace=wrap;html=1;aspect=fixed;" vertex="1" parent="1">
          <mxGeometry x="757.5" y="75" width="60" height="60" as="geometry" />
        </mxCell>
        <mxCell id="NCAf9RA6FtGUAR0A4gLe-18" value="Nav.Action" style="ellipse;whiteSpace=wrap;html=1;aspect=fixed;" vertex="1" parent="1">
          <mxGeometry x="847.5" y="75" width="60" height="60" as="geometry" />
        </mxCell>
        <mxCell id="NCAf9RA6FtGUAR0A4gLe-22" value="Children" style="ellipse;whiteSpace=wrap;html=1;aspect=fixed;fillColor=#d5e8d4;strokeColor=#82b366;" vertex="1" parent="1">
          <mxGeometry x="1027.5" y="-60" width="65" height="65" as="geometry" />
        </mxCell>
        <mxCell id="NCAf9RA6FtGUAR0A4gLe-34" style="edgeStyle=elbowEdgeStyle;rounded=0;orthogonalLoop=1;jettySize=auto;html=1;strokeColor=default;align=center;verticalAlign=middle;fontFamily=Helvetica;fontSize=12;fontColor=default;labelBackgroundColor=default;startSize=8;endArrow=classic;endSize=8;elbow=vertical;" edge="1" parent="1" source="NCAf9RA6FtGUAR0A4gLe-24" target="NCAf9RA6FtGUAR0A4gLe-26">
          <mxGeometry relative="1" as="geometry" />
        </mxCell>
        <mxCell id="NCAf9RA6FtGUAR0A4gLe-35" style="edgeStyle=elbowEdgeStyle;rounded=0;orthogonalLoop=1;jettySize=auto;html=1;entryX=1;entryY=0.5;entryDx=0;entryDy=0;strokeColor=default;align=center;verticalAlign=middle;fontFamily=Helvetica;fontSize=12;fontColor=default;labelBackgroundColor=default;startSize=8;endArrow=classic;endSize=8;elbow=vertical;" edge="1" parent="1" source="NCAf9RA6FtGUAR0A4gLe-24" target="cJjA6EJP8AFZV5R_d-NW-198">
          <mxGeometry relative="1" as="geometry">
            <mxPoint x="-1642.5" y="654.38" as="targetPoint" />
            <Array as="points">
              <mxPoint x="-1860" y="579.38" />
            </Array>
          </mxGeometry>
        </mxCell>
        <mxCell id="NCAf9RA6FtGUAR0A4gLe-47" style="edgeStyle=elbowEdgeStyle;rounded=0;orthogonalLoop=1;jettySize=auto;html=1;entryX=1;entryY=0.5;entryDx=0;entryDy=0;strokeColor=default;align=center;verticalAlign=middle;fontFamily=Helvetica;fontSize=12;fontColor=default;labelBackgroundColor=default;startSize=8;endArrow=classic;endSize=8;elbow=vertical;" edge="1" parent="1" source="NCAf9RA6FtGUAR0A4gLe-24" target="NCAf9RA6FtGUAR0A4gLe-36">
          <mxGeometry relative="1" as="geometry" />
        </mxCell>
        <mxCell id="NCAf9RA6FtGUAR0A4gLe-115" style="edgeStyle=orthogonalEdgeStyle;rounded=0;orthogonalLoop=1;jettySize=auto;html=1;strokeColor=default;align=center;verticalAlign=middle;fontFamily=Helvetica;fontSize=12;fontColor=default;labelBackgroundColor=default;startSize=8;endArrow=classic;endSize=8;" edge="1" parent="1" source="NCAf9RA6FtGUAR0A4gLe-24" target="NCAf9RA6FtGUAR0A4gLe-30">
          <mxGeometry relative="1" as="geometry" />
        </mxCell>
        <mxCell id="NCAf9RA6FtGUAR0A4gLe-196" style="edgeStyle=elbowEdgeStyle;rounded=0;orthogonalLoop=1;jettySize=auto;html=1;entryX=1;entryY=0.5;entryDx=0;entryDy=0;strokeColor=default;align=center;verticalAlign=middle;fontFamily=Helvetica;fontSize=12;fontColor=default;labelBackgroundColor=default;startSize=8;endArrow=classic;endSize=8;elbow=vertical;" edge="1" parent="1" source="NCAf9RA6FtGUAR0A4gLe-24" target="NCAf9RA6FtGUAR0A4gLe-32">
          <mxGeometry relative="1" as="geometry" />
        </mxCell>
        <mxCell id="NCAf9RA6FtGUAR0A4gLe-24" value="Home" style="ellipse;whiteSpace=wrap;html=1;aspect=fixed;fillColor=#d5e8d4;strokeColor=#82b366;" vertex="1" parent="1">
          <mxGeometry x="-2002.5" y="389.38" width="120" height="120" as="geometry" />
        </mxCell>
        <mxCell id="NCAf9RA6FtGUAR0A4gLe-50" style="edgeStyle=orthogonalEdgeStyle;rounded=0;orthogonalLoop=1;jettySize=auto;html=1;entryX=1;entryY=0.5;entryDx=0;entryDy=0;strokeColor=default;align=center;verticalAlign=middle;fontFamily=Helvetica;fontSize=12;fontColor=default;labelBackgroundColor=default;startSize=8;endArrow=classic;endSize=8;" edge="1" parent="1" source="NCAf9RA6FtGUAR0A4gLe-26">
          <mxGeometry relative="1" as="geometry">
            <mxPoint x="-2370" y="789.38" as="targetPoint" />
            <Array as="points">
              <mxPoint x="-2287" y="765" />
              <mxPoint x="-2370" y="765" />
            </Array>
          </mxGeometry>
        </mxCell>
        <mxCell id="NCAf9RA6FtGUAR0A4gLe-51" style="edgeStyle=orthogonalEdgeStyle;rounded=0;orthogonalLoop=1;jettySize=auto;html=1;strokeColor=default;align=center;verticalAlign=middle;fontFamily=Helvetica;fontSize=12;fontColor=default;labelBackgroundColor=default;startSize=8;endArrow=classic;endSize=8;" edge="1" parent="1" source="NCAf9RA6FtGUAR0A4gLe-26" target="NCAf9RA6FtGUAR0A4gLe-49">
          <mxGeometry relative="1" as="geometry" />
        </mxCell>
        <mxCell id="NCAf9RA6FtGUAR0A4gLe-26" value="Hero" style="ellipse;whiteSpace=wrap;html=1;aspect=fixed;flipH=1;flipV=1;direction=north;movable=1;resizable=1;rotatable=1;deletable=1;editable=1;locked=0;connectable=1;" vertex="1" parent="1">
          <mxGeometry x="-2325" y="654.38" width="75" height="75" as="geometry" />
        </mxCell>
        <mxCell id="NCAf9RA6FtGUAR0A4gLe-117" style="edgeStyle=orthogonalEdgeStyle;rounded=0;orthogonalLoop=1;jettySize=auto;html=1;entryX=1;entryY=0.5;entryDx=0;entryDy=0;strokeColor=default;align=center;verticalAlign=middle;fontFamily=Helvetica;fontSize=12;fontColor=default;labelBackgroundColor=default;startSize=8;endArrow=classic;endSize=8;" edge="1" parent="1" source="NCAf9RA6FtGUAR0A4gLe-30" target="NCAf9RA6FtGUAR0A4gLe-116">
          <mxGeometry relative="1" as="geometry" />
        </mxCell>
        <mxCell id="NCAf9RA6FtGUAR0A4gLe-119" value="" style="edgeStyle=orthogonalEdgeStyle;rounded=0;orthogonalLoop=1;jettySize=auto;html=1;strokeColor=default;align=center;verticalAlign=middle;fontFamily=Helvetica;fontSize=12;fontColor=default;labelBackgroundColor=default;startSize=8;endArrow=classic;endSize=8;" edge="1" parent="1" source="NCAf9RA6FtGUAR0A4gLe-30" target="NCAf9RA6FtGUAR0A4gLe-118">
          <mxGeometry relative="1" as="geometry">
            <Array as="points">
              <mxPoint x="-1865" y="692.38" />
            </Array>
          </mxGeometry>
        </mxCell>
        <mxCell id="NCAf9RA6FtGUAR0A4gLe-30" value="Bottom Banner" style="ellipse;whiteSpace=wrap;html=1;aspect=fixed;flipH=1;flipV=1;direction=north;movable=1;resizable=1;rotatable=1;deletable=1;editable=1;locked=0;connectable=1;" vertex="1" parent="1">
          <mxGeometry x="-1980" y="654.38" width="75" height="75" as="geometry" />
        </mxCell>
        <mxCell id="NCAf9RA6FtGUAR0A4gLe-129" value="" style="edgeStyle=orthogonalEdgeStyle;rounded=0;orthogonalLoop=1;jettySize=auto;html=1;strokeColor=default;align=center;verticalAlign=middle;fontFamily=Helvetica;fontSize=12;fontColor=default;labelBackgroundColor=default;startSize=8;endArrow=classic;endSize=8;" edge="1" parent="1" source="NCAf9RA6FtGUAR0A4gLe-32" target="NCAf9RA6FtGUAR0A4gLe-128">
          <mxGeometry relative="1" as="geometry" />
        </mxCell>
        <mxCell id="NCAf9RA6FtGUAR0A4gLe-131" style="edgeStyle=orthogonalEdgeStyle;rounded=0;orthogonalLoop=1;jettySize=auto;html=1;strokeColor=default;align=center;verticalAlign=middle;fontFamily=Helvetica;fontSize=12;fontColor=default;labelBackgroundColor=default;startSize=8;endArrow=classic;endSize=8;" edge="1" parent="1" source="NCAf9RA6FtGUAR0A4gLe-32">
          <mxGeometry relative="1" as="geometry">
            <mxPoint x="-1430" y="785.63" as="targetPoint" />
          </mxGeometry>
        </mxCell>
        <mxCell id="NCAf9RA6FtGUAR0A4gLe-137" style="edgeStyle=orthogonalEdgeStyle;rounded=0;orthogonalLoop=1;jettySize=auto;html=1;strokeColor=default;align=center;verticalAlign=middle;fontFamily=Helvetica;fontSize=12;fontColor=default;labelBackgroundColor=default;startSize=8;endArrow=classic;endSize=8;" edge="1" parent="1" source="NCAf9RA6FtGUAR0A4gLe-32" target="NCAf9RA6FtGUAR0A4gLe-132">
          <mxGeometry relative="1" as="geometry" />
        </mxCell>
        <mxCell id="NCAf9RA6FtGUAR0A4gLe-32" value="News Letter" style="ellipse;whiteSpace=wrap;html=1;aspect=fixed;flipH=1;flipV=1;direction=north;movable=1;resizable=1;rotatable=1;deletable=1;editable=1;locked=0;connectable=1;" vertex="1" parent="1">
          <mxGeometry x="-1595" y="650.63" width="75" height="75" as="geometry" />
        </mxCell>
        <mxCell id="NCAf9RA6FtGUAR0A4gLe-36" value="Catalog" style="ellipse;whiteSpace=wrap;html=1;aspect=fixed;flipH=1;flipV=1;direction=north;movable=1;resizable=1;rotatable=1;deletable=1;editable=1;locked=0;connectable=1;fillColor=#fff2cc;strokeColor=#d6b656;" vertex="1" parent="1">
          <mxGeometry x="-2175" y="654.38" width="75" height="75" as="geometry" />
        </mxCell>
        <mxCell id="n_hQNZrwe9v2qWnjwRf1-6" style="edgeStyle=elbowEdgeStyle;rounded=0;orthogonalLoop=1;jettySize=auto;html=1;entryX=1;entryY=0.5;entryDx=0;entryDy=0;fontSize=12;startSize=8;endSize=8;elbow=vertical;" edge="1" parent="1" source="NCAf9RA6FtGUAR0A4gLe-40" target="NCAf9RA6FtGUAR0A4gLe-77">
          <mxGeometry relative="1" as="geometry" />
        </mxCell>
        <mxCell id="n_hQNZrwe9v2qWnjwRf1-7" style="edgeStyle=elbowEdgeStyle;rounded=0;orthogonalLoop=1;jettySize=auto;html=1;entryX=1;entryY=0.5;entryDx=0;entryDy=0;fontSize=12;startSize=8;endSize=8;elbow=vertical;" edge="1" parent="1" source="NCAf9RA6FtGUAR0A4gLe-40" target="NCAf9RA6FtGUAR0A4gLe-78">
          <mxGeometry relative="1" as="geometry" />
        </mxCell>
        <mxCell id="NCAf9RA6FtGUAR0A4gLe-40" value="Promotions" style="ellipse;whiteSpace=wrap;html=1;aspect=fixed;flipH=1;flipV=1;direction=north;movable=1;resizable=1;rotatable=1;deletable=1;editable=1;locked=0;connectable=1;" vertex="1" parent="1">
          <mxGeometry x="-2145" y="1300.0100000000002" width="75" height="75" as="geometry" />
        </mxCell>
        <mxCell id="NCAf9RA6FtGUAR0A4gLe-113" style="edgeStyle=orthogonalEdgeStyle;rounded=0;orthogonalLoop=1;jettySize=auto;html=1;entryX=1;entryY=0.5;entryDx=0;entryDy=0;strokeColor=default;align=center;verticalAlign=middle;fontFamily=Helvetica;fontSize=12;fontColor=default;labelBackgroundColor=default;startSize=8;endArrow=classic;endSize=8;" edge="1" parent="1" source="NCAf9RA6FtGUAR0A4gLe-41" target="NCAf9RA6FtGUAR0A4gLe-111">
          <mxGeometry relative="1" as="geometry" />
        </mxCell>
        <mxCell id="NCAf9RA6FtGUAR0A4gLe-114" style="edgeStyle=orthogonalEdgeStyle;rounded=0;orthogonalLoop=1;jettySize=auto;html=1;entryX=1;entryY=0.5;entryDx=0;entryDy=0;strokeColor=default;align=center;verticalAlign=middle;fontFamily=Helvetica;fontSize=12;fontColor=default;labelBackgroundColor=default;startSize=8;endArrow=classic;endSize=8;" edge="1" parent="1" source="NCAf9RA6FtGUAR0A4gLe-41" target="NCAf9RA6FtGUAR0A4gLe-112">
          <mxGeometry relative="1" as="geometry" />
        </mxCell>
        <mxCell id="NCAf9RA6FtGUAR0A4gLe-41" value="Collection Grid" style="ellipse;whiteSpace=wrap;html=1;aspect=fixed;flipH=1;flipV=1;direction=north;movable=1;resizable=1;rotatable=1;deletable=1;editable=1;locked=0;connectable=1;" vertex="1" parent="1">
          <mxGeometry x="-2002.5" y="1400.63" width="75" height="75" as="geometry" />
        </mxCell>
        <mxCell id="NCAf9RA6FtGUAR0A4gLe-43" style="edgeStyle=elbowEdgeStyle;rounded=0;orthogonalLoop=1;jettySize=auto;html=1;strokeColor=default;align=center;verticalAlign=middle;fontFamily=Helvetica;fontSize=12;fontColor=default;labelBackgroundColor=default;startSize=8;endArrow=classic;endSize=8;elbow=vertical;" edge="1" parent="1" source="NCAf9RA6FtGUAR0A4gLe-45" target="NCAf9RA6FtGUAR0A4gLe-41">
          <mxGeometry relative="1" as="geometry">
            <Array as="points">
              <mxPoint x="-1890" y="1215.63" />
            </Array>
          </mxGeometry>
        </mxCell>
        <mxCell id="NCAf9RA6FtGUAR0A4gLe-44" style="edgeStyle=elbowEdgeStyle;rounded=0;orthogonalLoop=1;jettySize=auto;html=1;strokeColor=default;align=center;verticalAlign=middle;fontFamily=Helvetica;fontSize=12;fontColor=default;labelBackgroundColor=default;startSize=8;endArrow=classic;endSize=8;elbow=vertical;" edge="1" parent="1" source="NCAf9RA6FtGUAR0A4gLe-45" target="NCAf9RA6FtGUAR0A4gLe-46">
          <mxGeometry relative="1" as="geometry">
            <Array as="points">
              <mxPoint x="-1740" y="1215.63" />
            </Array>
          </mxGeometry>
        </mxCell>
        <mxCell id="NCAf9RA6FtGUAR0A4gLe-91" style="edgeStyle=elbowEdgeStyle;rounded=0;orthogonalLoop=1;jettySize=auto;html=1;entryX=1;entryY=0.5;entryDx=0;entryDy=0;strokeColor=default;align=center;verticalAlign=middle;fontFamily=Helvetica;fontSize=12;fontColor=default;labelBackgroundColor=default;startSize=8;endArrow=classic;endSize=8;elbow=vertical;" edge="1" parent="1" source="NCAf9RA6FtGUAR0A4gLe-45" target="NCAf9RA6FtGUAR0A4gLe-90">
          <mxGeometry relative="1" as="geometry">
            <Array as="points">
              <mxPoint x="-1635" y="1215.63" />
            </Array>
          </mxGeometry>
        </mxCell>
        <mxCell id="n_hQNZrwe9v2qWnjwRf1-5" style="edgeStyle=elbowEdgeStyle;rounded=0;orthogonalLoop=1;jettySize=auto;html=1;entryX=1;entryY=0.5;entryDx=0;entryDy=0;fontSize=12;startSize=8;endSize=8;elbow=vertical;" edge="1" parent="1" source="NCAf9RA6FtGUAR0A4gLe-45" target="NCAf9RA6FtGUAR0A4gLe-40">
          <mxGeometry relative="1" as="geometry">
            <Array as="points">
              <mxPoint x="-1920" y="1215.63" />
            </Array>
          </mxGeometry>
        </mxCell>
        <mxCell id="NCAf9RA6FtGUAR0A4gLe-45" value="Catalog" style="ellipse;whiteSpace=wrap;html=1;aspect=fixed;flipH=1;flipV=1;direction=north;movable=1;resizable=1;rotatable=1;deletable=1;editable=1;locked=0;connectable=1;fillColor=#fff2cc;strokeColor=#d6b656;" vertex="1" parent="1">
          <mxGeometry x="-1845" y="1058.13" width="75" height="75" as="geometry" />
        </mxCell>
        <mxCell id="NCAf9RA6FtGUAR0A4gLe-83" style="edgeStyle=orthogonalEdgeStyle;rounded=0;orthogonalLoop=1;jettySize=auto;html=1;strokeColor=default;align=center;verticalAlign=middle;fontFamily=Helvetica;fontSize=12;fontColor=default;labelBackgroundColor=default;startSize=8;endArrow=classic;endSize=8;" edge="1" parent="1" source="NCAf9RA6FtGUAR0A4gLe-46" target="NCAf9RA6FtGUAR0A4gLe-81">
          <mxGeometry relative="1" as="geometry" />
        </mxCell>
        <mxCell id="NCAf9RA6FtGUAR0A4gLe-89" style="edgeStyle=orthogonalEdgeStyle;rounded=0;orthogonalLoop=1;jettySize=auto;html=1;entryX=1;entryY=0.5;entryDx=0;entryDy=0;strokeColor=default;align=center;verticalAlign=middle;fontFamily=Helvetica;fontSize=12;fontColor=default;labelBackgroundColor=default;startSize=8;endArrow=classic;endSize=8;" edge="1" parent="1" source="NCAf9RA6FtGUAR0A4gLe-46" target="NCAf9RA6FtGUAR0A4gLe-88">
          <mxGeometry relative="1" as="geometry">
            <Array as="points">
              <mxPoint x="-1688" y="1425.63" />
              <mxPoint x="-1732" y="1425.63" />
            </Array>
          </mxGeometry>
        </mxCell>
        <mxCell id="NCAf9RA6FtGUAR0A4gLe-46" value="Product carousel" style="ellipse;whiteSpace=wrap;html=1;aspect=fixed;flipH=1;flipV=1;direction=north;movable=1;resizable=1;rotatable=1;deletable=1;editable=1;locked=0;connectable=1;" vertex="1" parent="1">
          <mxGeometry x="-1725" y="1325.63" width="75" height="75" as="geometry" />
        </mxCell>
        <mxCell id="NCAf9RA6FtGUAR0A4gLe-54" style="edgeStyle=orthogonalEdgeStyle;rounded=0;orthogonalLoop=1;jettySize=auto;html=1;entryX=1;entryY=0.5;entryDx=0;entryDy=0;strokeColor=default;align=center;verticalAlign=middle;fontFamily=Helvetica;fontSize=12;fontColor=default;labelBackgroundColor=default;startSize=8;endArrow=classic;endSize=8;" edge="1" parent="1" source="NCAf9RA6FtGUAR0A4gLe-49" target="NCAf9RA6FtGUAR0A4gLe-52">
          <mxGeometry relative="1" as="geometry" />
        </mxCell>
        <mxCell id="NCAf9RA6FtGUAR0A4gLe-55" style="edgeStyle=orthogonalEdgeStyle;rounded=0;orthogonalLoop=1;jettySize=auto;html=1;entryX=1;entryY=0.5;entryDx=0;entryDy=0;strokeColor=default;align=center;verticalAlign=middle;fontFamily=Helvetica;fontSize=12;fontColor=default;labelBackgroundColor=default;startSize=8;endArrow=classic;endSize=8;" edge="1" parent="1" source="NCAf9RA6FtGUAR0A4gLe-49" target="NCAf9RA6FtGUAR0A4gLe-53">
          <mxGeometry relative="1" as="geometry" />
        </mxCell>
        <mxCell id="NCAf9RA6FtGUAR0A4gLe-49" value="Hero Content" style="ellipse;whiteSpace=wrap;html=1;aspect=fixed;flipH=1;flipV=1;direction=north;movable=1;resizable=1;rotatable=1;deletable=1;editable=1;locked=0;connectable=1;" vertex="1" parent="1">
          <mxGeometry x="-2265" y="789.38" width="75" height="75" as="geometry" />
        </mxCell>
        <mxCell id="NCAf9RA6FtGUAR0A4gLe-52" value="Button" style="ellipse;whiteSpace=wrap;html=1;aspect=fixed;flipH=1;flipV=1;direction=north;movable=1;resizable=1;rotatable=1;deletable=1;editable=1;locked=0;connectable=1;" vertex="1" parent="1">
          <mxGeometry x="-2325" y="894.38" width="75" height="75" as="geometry" />
        </mxCell>
        <mxCell id="NCAf9RA6FtGUAR0A4gLe-53" value="Text" style="ellipse;whiteSpace=wrap;html=1;aspect=fixed;flipH=1;flipV=1;direction=north;movable=1;resizable=1;rotatable=1;deletable=1;editable=1;locked=0;connectable=1;" vertex="1" parent="1">
          <mxGeometry x="-2220" y="894.38" width="75" height="75" as="geometry" />
        </mxCell>
        <mxCell id="NCAf9RA6FtGUAR0A4gLe-74" style="edgeStyle=elbowEdgeStyle;rounded=0;orthogonalLoop=1;jettySize=auto;html=1;entryX=1;entryY=0.5;entryDx=0;entryDy=0;strokeColor=default;align=center;verticalAlign=middle;fontFamily=Helvetica;fontSize=12;fontColor=default;labelBackgroundColor=default;startSize=8;endArrow=classic;endSize=8;elbow=vertical;" edge="1" parent="1" source="NCAf9RA6FtGUAR0A4gLe-64" target="NCAf9RA6FtGUAR0A4gLe-79">
          <mxGeometry relative="1" as="geometry">
            <mxPoint x="150" y="3401.25" as="targetPoint" />
          </mxGeometry>
        </mxCell>
        <mxCell id="NCAf9RA6FtGUAR0A4gLe-75" style="edgeStyle=elbowEdgeStyle;rounded=0;orthogonalLoop=1;jettySize=auto;html=1;strokeColor=default;align=center;verticalAlign=middle;fontFamily=Helvetica;fontSize=12;fontColor=default;labelBackgroundColor=default;startSize=8;endArrow=classic;endSize=8;elbow=vertical;" edge="1" parent="1" source="NCAf9RA6FtGUAR0A4gLe-64" target="NCAf9RA6FtGUAR0A4gLe-66">
          <mxGeometry relative="1" as="geometry">
            <Array as="points">
              <mxPoint x="390" y="3371.25" />
            </Array>
          </mxGeometry>
        </mxCell>
        <mxCell id="NCAf9RA6FtGUAR0A4gLe-64" value="Product Card" style="ellipse;whiteSpace=wrap;html=1;aspect=fixed;flipH=1;flipV=1;direction=north;movable=1;resizable=1;rotatable=1;deletable=1;editable=1;locked=0;connectable=1;fillColor=#d0cee2;strokeColor=#56517e;" vertex="1" parent="1">
          <mxGeometry x="345" y="3221.25" width="90" height="90" as="geometry" />
        </mxCell>
        <mxCell id="NCAf9RA6FtGUAR0A4gLe-70" style="edgeStyle=orthogonalEdgeStyle;rounded=0;orthogonalLoop=1;jettySize=auto;html=1;strokeColor=default;align=center;verticalAlign=middle;fontFamily=Helvetica;fontSize=12;fontColor=default;labelBackgroundColor=default;startSize=8;endArrow=classic;endSize=8;" edge="1" parent="1" source="NCAf9RA6FtGUAR0A4gLe-66" target="cJjA6EJP8AFZV5R_d-NW-5">
          <mxGeometry relative="1" as="geometry">
            <mxPoint x="450" y="3588.75" as="targetPoint" />
          </mxGeometry>
        </mxCell>
        <mxCell id="NCAf9RA6FtGUAR0A4gLe-71" style="edgeStyle=orthogonalEdgeStyle;rounded=0;orthogonalLoop=1;jettySize=auto;html=1;strokeColor=default;align=center;verticalAlign=middle;fontFamily=Helvetica;fontSize=12;fontColor=default;labelBackgroundColor=default;startSize=8;endArrow=classic;endSize=8;" edge="1" parent="1" source="NCAf9RA6FtGUAR0A4gLe-66" target="NCAf9RA6FtGUAR0A4gLe-68">
          <mxGeometry relative="1" as="geometry" />
        </mxCell>
        <mxCell id="NCAf9RA6FtGUAR0A4gLe-72" style="edgeStyle=orthogonalEdgeStyle;rounded=0;orthogonalLoop=1;jettySize=auto;html=1;strokeColor=default;align=center;verticalAlign=middle;fontFamily=Helvetica;fontSize=12;fontColor=default;labelBackgroundColor=default;startSize=8;endArrow=classic;endSize=8;" edge="1" parent="1" source="NCAf9RA6FtGUAR0A4gLe-66" target="NCAf9RA6FtGUAR0A4gLe-69">
          <mxGeometry relative="1" as="geometry" />
        </mxCell>
        <mxCell id="NCAf9RA6FtGUAR0A4gLe-66" value="Content" style="ellipse;whiteSpace=wrap;html=1;aspect=fixed;flipH=1;flipV=1;direction=north;movable=1;resizable=1;rotatable=1;deletable=1;editable=1;locked=0;connectable=1;" vertex="1" parent="1">
          <mxGeometry x="510" y="3393.75" width="90" height="90" as="geometry" />
        </mxCell>
        <mxCell id="NCAf9RA6FtGUAR0A4gLe-68" value="Title" style="ellipse;whiteSpace=wrap;html=1;aspect=fixed;flipH=1;flipV=1;direction=north;movable=1;resizable=1;rotatable=1;deletable=1;editable=1;locked=0;connectable=1;" vertex="1" parent="1">
          <mxGeometry x="510" y="3588.75" width="90" height="90" as="geometry" />
        </mxCell>
        <mxCell id="NCAf9RA6FtGUAR0A4gLe-69" value="Price" style="ellipse;whiteSpace=wrap;html=1;aspect=fixed;flipH=1;flipV=1;direction=north;movable=1;resizable=1;rotatable=1;deletable=1;editable=1;locked=0;connectable=1;fillColor=#FF33FF;" vertex="1" parent="1">
          <mxGeometry x="637.5" y="3588.75" width="90" height="90" as="geometry" />
        </mxCell>
        <mxCell id="NCAf9RA6FtGUAR0A4gLe-76" value="Media" style="ellipse;whiteSpace=wrap;html=1;aspect=fixed;flipH=1;flipV=1;direction=north;movable=1;resizable=1;rotatable=1;deletable=1;editable=1;locked=0;connectable=1;" vertex="1" parent="1">
          <mxGeometry x="-2400" y="789.38" width="75" height="75" as="geometry" />
        </mxCell>
        <mxCell id="NCAf9RA6FtGUAR0A4gLe-77" value="Media" style="ellipse;whiteSpace=wrap;html=1;aspect=fixed;flipH=1;flipV=1;direction=north;movable=1;resizable=1;rotatable=1;deletable=1;editable=1;locked=0;connectable=1;" vertex="1" parent="1">
          <mxGeometry x="-2190" y="1427.5100000000002" width="75" height="75" as="geometry" />
        </mxCell>
        <mxCell id="NCAf9RA6FtGUAR0A4gLe-78" value="Media" style="ellipse;whiteSpace=wrap;html=1;aspect=fixed;flipH=1;flipV=1;direction=north;movable=1;resizable=1;rotatable=1;deletable=1;editable=1;locked=0;connectable=1;" vertex="1" parent="1">
          <mxGeometry x="-2100" y="1427.5100000000002" width="75" height="75" as="geometry" />
        </mxCell>
        <mxCell id="NCAf9RA6FtGUAR0A4gLe-79" value="Media" style="ellipse;whiteSpace=wrap;html=1;aspect=fixed;flipH=1;flipV=1;direction=north;movable=1;resizable=1;rotatable=1;deletable=1;editable=1;locked=0;connectable=1;" vertex="1" parent="1">
          <mxGeometry x="210" y="3423.75" width="90" height="90" as="geometry" />
        </mxCell>
        <mxCell id="NCAf9RA6FtGUAR0A4gLe-80" value="Product Card" style="ellipse;whiteSpace=wrap;html=1;aspect=fixed;flipH=1;flipV=1;direction=north;movable=1;resizable=1;rotatable=1;deletable=1;editable=1;locked=0;connectable=1;fillColor=#d0cee2;strokeColor=#56517e;" vertex="1" parent="1">
          <mxGeometry x="-1710" y="1580.63" width="75" height="75" as="geometry" />
        </mxCell>
        <mxCell id="NCAf9RA6FtGUAR0A4gLe-81" value="Title" style="ellipse;whiteSpace=wrap;html=1;aspect=fixed;flipH=1;flipV=1;direction=north;movable=1;resizable=1;rotatable=1;deletable=1;editable=1;locked=0;connectable=1;" vertex="1" parent="1">
          <mxGeometry x="-1882.5" y="1460.63" width="75" height="75" as="geometry" />
        </mxCell>
        <mxCell id="NCAf9RA6FtGUAR0A4gLe-86" style="edgeStyle=orthogonalEdgeStyle;rounded=0;orthogonalLoop=1;jettySize=auto;html=1;entryX=1;entryY=0.5;entryDx=0;entryDy=0;strokeColor=default;align=center;verticalAlign=middle;fontFamily=Helvetica;fontSize=12;fontColor=default;labelBackgroundColor=default;startSize=8;endArrow=classic;endSize=8;" edge="1" parent="1" source="NCAf9RA6FtGUAR0A4gLe-82" target="NCAf9RA6FtGUAR0A4gLe-80">
          <mxGeometry relative="1" as="geometry" />
        </mxCell>
        <mxCell id="NCAf9RA6FtGUAR0A4gLe-87" style="edgeStyle=orthogonalEdgeStyle;rounded=0;orthogonalLoop=1;jettySize=auto;html=1;entryX=1;entryY=0.5;entryDx=0;entryDy=0;strokeColor=default;align=center;verticalAlign=middle;fontFamily=Helvetica;fontSize=12;fontColor=default;labelBackgroundColor=default;startSize=8;endArrow=classic;endSize=8;" edge="1" parent="1" source="NCAf9RA6FtGUAR0A4gLe-82" target="NCAf9RA6FtGUAR0A4gLe-85">
          <mxGeometry relative="1" as="geometry" />
        </mxCell>
        <mxCell id="NCAf9RA6FtGUAR0A4gLe-82" value="Cards Container" style="ellipse;whiteSpace=wrap;html=1;aspect=fixed;flipH=1;flipV=1;direction=north;movable=1;resizable=1;rotatable=1;deletable=1;editable=1;locked=0;connectable=1;" vertex="1" parent="1">
          <mxGeometry x="-1665" y="1445.63" width="75" height="75" as="geometry" />
        </mxCell>
        <mxCell id="NCAf9RA6FtGUAR0A4gLe-84" style="edgeStyle=orthogonalEdgeStyle;rounded=0;orthogonalLoop=1;jettySize=auto;html=1;entryX=1;entryY=0.5;entryDx=0;entryDy=0;strokeColor=default;align=center;verticalAlign=middle;fontFamily=Helvetica;fontSize=12;fontColor=default;labelBackgroundColor=default;startSize=8;endArrow=classic;endSize=8;" edge="1" parent="1" source="NCAf9RA6FtGUAR0A4gLe-46" target="NCAf9RA6FtGUAR0A4gLe-82">
          <mxGeometry relative="1" as="geometry">
            <Array as="points">
              <mxPoint x="-1688" y="1425.63" />
              <mxPoint x="-1628" y="1425.63" />
            </Array>
          </mxGeometry>
        </mxCell>
        <mxCell id="NCAf9RA6FtGUAR0A4gLe-85" value="Product Card" style="ellipse;whiteSpace=wrap;html=1;aspect=fixed;flipH=1;flipV=1;direction=north;movable=1;resizable=1;rotatable=1;deletable=1;editable=1;locked=0;connectable=1;fillColor=#d0cee2;strokeColor=#56517e;" vertex="1" parent="1">
          <mxGeometry x="-1605" y="1580.63" width="75" height="75" as="geometry" />
        </mxCell>
        <mxCell id="NCAf9RA6FtGUAR0A4gLe-88" value="Navigation dots" style="ellipse;whiteSpace=wrap;html=1;aspect=fixed;flipH=1;flipV=1;direction=north;movable=1;resizable=1;rotatable=1;deletable=1;editable=1;locked=0;connectable=1;" vertex="1" parent="1">
          <mxGeometry x="-1770" y="1445.63" width="75" height="75" as="geometry" />
        </mxCell>
        <mxCell id="NCAf9RA6FtGUAR0A4gLe-94" style="edgeStyle=orthogonalEdgeStyle;rounded=0;orthogonalLoop=1;jettySize=auto;html=1;entryX=1;entryY=0.5;entryDx=0;entryDy=0;strokeColor=default;align=center;verticalAlign=middle;fontFamily=Helvetica;fontSize=12;fontColor=default;labelBackgroundColor=default;startSize=8;endArrow=classic;endSize=8;" edge="1" parent="1" source="NCAf9RA6FtGUAR0A4gLe-90" target="NCAf9RA6FtGUAR0A4gLe-93">
          <mxGeometry relative="1" as="geometry" />
        </mxCell>
        <mxCell id="NCAf9RA6FtGUAR0A4gLe-95" style="edgeStyle=orthogonalEdgeStyle;rounded=0;orthogonalLoop=1;jettySize=auto;html=1;strokeColor=default;align=center;verticalAlign=middle;fontFamily=Helvetica;fontSize=12;fontColor=default;labelBackgroundColor=default;startSize=8;endArrow=classic;endSize=8;" edge="1" parent="1" source="NCAf9RA6FtGUAR0A4gLe-90" target="NCAf9RA6FtGUAR0A4gLe-92">
          <mxGeometry relative="1" as="geometry">
            <Array as="points">
              <mxPoint x="-1447" y="1400.63" />
              <mxPoint x="-1357" y="1400.63" />
            </Array>
          </mxGeometry>
        </mxCell>
        <mxCell id="NCAf9RA6FtGUAR0A4gLe-90" value="Best Selling products" style="ellipse;whiteSpace=wrap;html=1;aspect=fixed;flipH=1;flipV=1;direction=north;movable=1;resizable=1;rotatable=1;deletable=1;editable=1;locked=0;connectable=1;" vertex="1" parent="1">
          <mxGeometry x="-1485" y="1295.63" width="75" height="75" as="geometry" />
        </mxCell>
        <mxCell id="NCAf9RA6FtGUAR0A4gLe-98" style="edgeStyle=orthogonalEdgeStyle;rounded=0;orthogonalLoop=1;jettySize=auto;html=1;entryX=1;entryY=0.5;entryDx=0;entryDy=0;strokeColor=default;align=center;verticalAlign=middle;fontFamily=Helvetica;fontSize=12;fontColor=default;labelBackgroundColor=default;startSize=8;endArrow=classic;endSize=8;" edge="1" parent="1" source="NCAf9RA6FtGUAR0A4gLe-92" target="NCAf9RA6FtGUAR0A4gLe-96">
          <mxGeometry relative="1" as="geometry" />
        </mxCell>
        <mxCell id="NCAf9RA6FtGUAR0A4gLe-99" style="edgeStyle=orthogonalEdgeStyle;rounded=0;orthogonalLoop=1;jettySize=auto;html=1;entryX=1;entryY=0.5;entryDx=0;entryDy=0;strokeColor=default;align=center;verticalAlign=middle;fontFamily=Helvetica;fontSize=12;fontColor=default;labelBackgroundColor=default;startSize=8;endArrow=classic;endSize=8;" edge="1" parent="1" source="NCAf9RA6FtGUAR0A4gLe-92" target="NCAf9RA6FtGUAR0A4gLe-97">
          <mxGeometry relative="1" as="geometry" />
        </mxCell>
        <mxCell id="NCAf9RA6FtGUAR0A4gLe-92" value="Cards Container" style="ellipse;whiteSpace=wrap;html=1;aspect=fixed;flipH=1;flipV=1;direction=north;movable=1;resizable=1;rotatable=1;deletable=1;editable=1;locked=0;connectable=1;" vertex="1" parent="1">
          <mxGeometry x="-1395" y="1430.63" width="75" height="75" as="geometry" />
        </mxCell>
        <mxCell id="NCAf9RA6FtGUAR0A4gLe-93" value="Title" style="ellipse;whiteSpace=wrap;html=1;aspect=fixed;flipH=1;flipV=1;direction=north;movable=1;resizable=1;rotatable=1;deletable=1;editable=1;locked=0;connectable=1;" vertex="1" parent="1">
          <mxGeometry x="-1530" y="1430.63" width="75" height="75" as="geometry" />
        </mxCell>
        <mxCell id="NCAf9RA6FtGUAR0A4gLe-96" value="Product Card" style="ellipse;whiteSpace=wrap;html=1;aspect=fixed;flipH=1;flipV=1;direction=north;movable=1;resizable=1;rotatable=1;deletable=1;editable=1;locked=0;connectable=1;fillColor=#d0cee2;strokeColor=#56517e;" vertex="1" parent="1">
          <mxGeometry x="-1440" y="1535.63" width="75" height="75" as="geometry" />
        </mxCell>
        <mxCell id="NCAf9RA6FtGUAR0A4gLe-97" value="Product Card" style="ellipse;whiteSpace=wrap;html=1;aspect=fixed;flipH=1;flipV=1;direction=north;movable=1;resizable=1;rotatable=1;deletable=1;editable=1;locked=0;connectable=1;fillColor=#d0cee2;strokeColor=#56517e;" vertex="1" parent="1">
          <mxGeometry x="-1335" y="1535.63" width="75" height="75" as="geometry" />
        </mxCell>
        <mxCell id="NCAf9RA6FtGUAR0A4gLe-100" style="edgeStyle=elbowEdgeStyle;rounded=0;orthogonalLoop=1;jettySize=auto;html=1;strokeColor=default;align=center;verticalAlign=middle;fontFamily=Helvetica;fontSize=12;fontColor=default;labelBackgroundColor=default;startSize=8;endArrow=classic;endSize=8;entryX=-0.01;entryY=0.537;entryDx=0;entryDy=0;entryPerimeter=0;elbow=vertical;" edge="1" parent="1" source="NCAf9RA6FtGUAR0A4gLe-102" target="NCAf9RA6FtGUAR0A4gLe-110">
          <mxGeometry relative="1" as="geometry">
            <mxPoint x="-2295" y="1872.5" as="targetPoint" />
          </mxGeometry>
        </mxCell>
        <mxCell id="NCAf9RA6FtGUAR0A4gLe-101" style="edgeStyle=elbowEdgeStyle;rounded=0;orthogonalLoop=1;jettySize=auto;html=1;strokeColor=default;align=center;verticalAlign=middle;fontFamily=Helvetica;fontSize=12;fontColor=default;labelBackgroundColor=default;startSize=8;endArrow=classic;endSize=8;elbow=vertical;" edge="1" parent="1" source="NCAf9RA6FtGUAR0A4gLe-102" target="NCAf9RA6FtGUAR0A4gLe-106">
          <mxGeometry relative="1" as="geometry">
            <Array as="points">
              <mxPoint x="-1995" y="1842.5" />
            </Array>
          </mxGeometry>
        </mxCell>
        <mxCell id="NCAf9RA6FtGUAR0A4gLe-102" value="Collection Card" style="ellipse;whiteSpace=wrap;html=1;aspect=fixed;flipH=1;flipV=1;direction=north;movable=1;resizable=1;rotatable=1;deletable=1;editable=1;locked=0;connectable=1;fillColor=#b0e3e6;strokeColor=#0e8088;" vertex="1" parent="1">
          <mxGeometry x="-2100" y="1722.5" width="90" height="90" as="geometry" />
        </mxCell>
        <mxCell id="NCAf9RA6FtGUAR0A4gLe-104" style="edgeStyle=orthogonalEdgeStyle;rounded=0;orthogonalLoop=1;jettySize=auto;html=1;strokeColor=default;align=center;verticalAlign=middle;fontFamily=Helvetica;fontSize=12;fontColor=default;labelBackgroundColor=default;startSize=8;endArrow=classic;endSize=8;" edge="1" parent="1" source="NCAf9RA6FtGUAR0A4gLe-106" target="NCAf9RA6FtGUAR0A4gLe-108">
          <mxGeometry relative="1" as="geometry" />
        </mxCell>
        <mxCell id="NCAf9RA6FtGUAR0A4gLe-105" style="edgeStyle=orthogonalEdgeStyle;rounded=0;orthogonalLoop=1;jettySize=auto;html=1;strokeColor=default;align=center;verticalAlign=middle;fontFamily=Helvetica;fontSize=12;fontColor=default;labelBackgroundColor=default;startSize=8;endArrow=classic;endSize=8;" edge="1" parent="1" source="NCAf9RA6FtGUAR0A4gLe-106" target="NCAf9RA6FtGUAR0A4gLe-109">
          <mxGeometry relative="1" as="geometry" />
        </mxCell>
        <mxCell id="NCAf9RA6FtGUAR0A4gLe-106" value="Content" style="ellipse;whiteSpace=wrap;html=1;aspect=fixed;flipH=1;flipV=1;direction=north;movable=1;resizable=1;rotatable=1;deletable=1;editable=1;locked=0;connectable=1;" vertex="1" parent="1">
          <mxGeometry x="-1980" y="1872.5" width="90" height="90" as="geometry" />
        </mxCell>
        <mxCell id="NCAf9RA6FtGUAR0A4gLe-108" value="Title" style="ellipse;whiteSpace=wrap;html=1;aspect=fixed;flipH=1;flipV=1;direction=north;movable=1;resizable=1;rotatable=1;deletable=1;editable=1;locked=0;connectable=1;" vertex="1" parent="1">
          <mxGeometry x="-2055" y="2022.5" width="90" height="90" as="geometry" />
        </mxCell>
        <mxCell id="NCAf9RA6FtGUAR0A4gLe-109" value="Action" style="ellipse;whiteSpace=wrap;html=1;aspect=fixed;flipH=1;flipV=1;direction=north;movable=1;resizable=1;rotatable=1;deletable=1;editable=1;locked=0;connectable=1;" vertex="1" parent="1">
          <mxGeometry x="-1905" y="2022.5" width="90" height="90" as="geometry" />
        </mxCell>
        <mxCell id="NCAf9RA6FtGUAR0A4gLe-110" value="Media" style="ellipse;whiteSpace=wrap;html=1;aspect=fixed;flipH=1;flipV=1;direction=north;movable=1;resizable=1;rotatable=1;deletable=1;editable=1;locked=0;connectable=1;" vertex="1" parent="1">
          <mxGeometry x="-2205" y="1872.5" width="90" height="90" as="geometry" />
        </mxCell>
        <mxCell id="NCAf9RA6FtGUAR0A4gLe-111" value="Collection Card" style="ellipse;whiteSpace=wrap;html=1;aspect=fixed;flipH=1;flipV=1;direction=north;movable=1;resizable=1;rotatable=1;deletable=1;editable=1;locked=0;connectable=1;fillColor=#b0e3e6;strokeColor=#0e8088;" vertex="1" parent="1">
          <mxGeometry x="-2085" y="1573.13" width="90" height="90" as="geometry" />
        </mxCell>
        <mxCell id="NCAf9RA6FtGUAR0A4gLe-112" value="Collection Card" style="ellipse;whiteSpace=wrap;html=1;aspect=fixed;flipH=1;flipV=1;direction=north;movable=1;resizable=1;rotatable=1;deletable=1;editable=1;locked=0;connectable=1;fillColor=#b0e3e6;strokeColor=#0e8088;" vertex="1" parent="1">
          <mxGeometry x="-1935" y="1573.13" width="90" height="90" as="geometry" />
        </mxCell>
        <mxCell id="NCAf9RA6FtGUAR0A4gLe-116" value="Media" style="ellipse;whiteSpace=wrap;html=1;aspect=fixed;flipH=1;flipV=1;direction=north;movable=1;resizable=1;rotatable=1;deletable=1;editable=1;locked=0;connectable=1;" vertex="1" parent="1">
          <mxGeometry x="-2070" y="774.38" width="75" height="75" as="geometry" />
        </mxCell>
        <mxCell id="NCAf9RA6FtGUAR0A4gLe-125" style="edgeStyle=orthogonalEdgeStyle;rounded=0;orthogonalLoop=1;jettySize=auto;html=1;entryX=0.5;entryY=0;entryDx=0;entryDy=0;strokeColor=default;align=center;verticalAlign=middle;fontFamily=Helvetica;fontSize=12;fontColor=default;labelBackgroundColor=default;startSize=8;endArrow=classic;endSize=8;" edge="1" parent="1" source="NCAf9RA6FtGUAR0A4gLe-118" target="NCAf9RA6FtGUAR0A4gLe-122">
          <mxGeometry relative="1" as="geometry" />
        </mxCell>
        <mxCell id="NCAf9RA6FtGUAR0A4gLe-118" value="Content" style="ellipse;whiteSpace=wrap;html=1;" vertex="1" parent="1">
          <mxGeometry x="-1905" y="759.38" width="80" height="80" as="geometry" />
        </mxCell>
        <mxCell id="NCAf9RA6FtGUAR0A4gLe-120" value="Title" style="ellipse;whiteSpace=wrap;html=1;" vertex="1" parent="1">
          <mxGeometry x="-2040" y="879.38" width="80" height="80" as="geometry" />
        </mxCell>
        <mxCell id="NCAf9RA6FtGUAR0A4gLe-121" value="Countdown" style="ellipse;whiteSpace=wrap;html=1;" vertex="1" parent="1">
          <mxGeometry x="-1935" y="879.38" width="80" height="80" as="geometry" />
        </mxCell>
        <mxCell id="NCAf9RA6FtGUAR0A4gLe-122" value="Action Button" style="ellipse;whiteSpace=wrap;html=1;" vertex="1" parent="1">
          <mxGeometry x="-1835" y="874.38" width="80" height="80" as="geometry" />
        </mxCell>
        <mxCell id="NCAf9RA6FtGUAR0A4gLe-123" style="edgeStyle=orthogonalEdgeStyle;rounded=0;orthogonalLoop=1;jettySize=auto;html=1;entryX=0.808;entryY=0.088;entryDx=0;entryDy=0;entryPerimeter=0;strokeColor=default;align=center;verticalAlign=middle;fontFamily=Helvetica;fontSize=12;fontColor=default;labelBackgroundColor=default;startSize=8;endArrow=classic;endSize=8;" edge="1" parent="1" source="NCAf9RA6FtGUAR0A4gLe-118" target="NCAf9RA6FtGUAR0A4gLe-120">
          <mxGeometry relative="1" as="geometry" />
        </mxCell>
        <mxCell id="NCAf9RA6FtGUAR0A4gLe-124" style="edgeStyle=orthogonalEdgeStyle;rounded=0;orthogonalLoop=1;jettySize=auto;html=1;entryX=0.279;entryY=0.071;entryDx=0;entryDy=0;entryPerimeter=0;strokeColor=default;align=center;verticalAlign=middle;fontFamily=Helvetica;fontSize=12;fontColor=default;labelBackgroundColor=default;startSize=8;endArrow=classic;endSize=8;" edge="1" parent="1" source="NCAf9RA6FtGUAR0A4gLe-118" target="NCAf9RA6FtGUAR0A4gLe-121">
          <mxGeometry relative="1" as="geometry" />
        </mxCell>
        <mxCell id="NCAf9RA6FtGUAR0A4gLe-128" value="Media" style="ellipse;whiteSpace=wrap;html=1;" vertex="1" parent="1">
          <mxGeometry x="-1715" y="790.63" width="80" height="80" as="geometry" />
        </mxCell>
        <mxCell id="NCAf9RA6FtGUAR0A4gLe-130" value="Media" style="ellipse;whiteSpace=wrap;html=1;" vertex="1" parent="1">
          <mxGeometry x="-1475" y="790.63" width="80" height="80" as="geometry" />
        </mxCell>
        <mxCell id="NCAf9RA6FtGUAR0A4gLe-132" value="Input Container" style="ellipse;whiteSpace=wrap;html=1;aspect=fixed;fontFamily=Helvetica;fontSize=12;fontColor=default;labelBackgroundColor=default;" vertex="1" parent="1">
          <mxGeometry x="-1605" y="780.63" width="95" height="95" as="geometry" />
        </mxCell>
        <mxCell id="NCAf9RA6FtGUAR0A4gLe-133" value="Text Input" style="ellipse;whiteSpace=wrap;html=1;" vertex="1" parent="1">
          <mxGeometry x="-1555" y="905.63" width="80" height="80" as="geometry" />
        </mxCell>
        <mxCell id="NCAf9RA6FtGUAR0A4gLe-134" value="Heading" style="ellipse;whiteSpace=wrap;html=1;" vertex="1" parent="1">
          <mxGeometry x="-1640" y="905.63" width="80" height="80" as="geometry" />
        </mxCell>
        <mxCell id="NCAf9RA6FtGUAR0A4gLe-135" style="edgeStyle=orthogonalEdgeStyle;rounded=0;orthogonalLoop=1;jettySize=auto;html=1;entryX=0.713;entryY=0.054;entryDx=0;entryDy=0;entryPerimeter=0;strokeColor=default;align=center;verticalAlign=middle;fontFamily=Helvetica;fontSize=12;fontColor=default;labelBackgroundColor=default;startSize=8;endArrow=classic;endSize=8;" edge="1" parent="1" source="NCAf9RA6FtGUAR0A4gLe-132" target="NCAf9RA6FtGUAR0A4gLe-134">
          <mxGeometry relative="1" as="geometry" />
        </mxCell>
        <mxCell id="NCAf9RA6FtGUAR0A4gLe-136" style="edgeStyle=orthogonalEdgeStyle;rounded=0;orthogonalLoop=1;jettySize=auto;html=1;entryX=0.4;entryY=-0.004;entryDx=0;entryDy=0;entryPerimeter=0;strokeColor=default;align=center;verticalAlign=middle;fontFamily=Helvetica;fontSize=12;fontColor=default;labelBackgroundColor=default;startSize=8;endArrow=classic;endSize=8;" edge="1" parent="1" source="NCAf9RA6FtGUAR0A4gLe-132" target="NCAf9RA6FtGUAR0A4gLe-133">
          <mxGeometry relative="1" as="geometry" />
        </mxCell>
        <mxCell id="NCAf9RA6FtGUAR0A4gLe-144" style="edgeStyle=orthogonalEdgeStyle;rounded=0;orthogonalLoop=1;jettySize=auto;html=1;entryX=0.5;entryY=0;entryDx=0;entryDy=0;strokeColor=default;align=center;verticalAlign=middle;fontFamily=Helvetica;fontSize=12;fontColor=default;labelBackgroundColor=default;startSize=8;endArrow=classic;endSize=8;" edge="1" parent="1" source="NCAf9RA6FtGUAR0A4gLe-140" target="NCAf9RA6FtGUAR0A4gLe-143">
          <mxGeometry relative="1" as="geometry" />
        </mxCell>
        <mxCell id="NCAf9RA6FtGUAR0A4gLe-145" style="edgeStyle=orthogonalEdgeStyle;rounded=0;orthogonalLoop=1;jettySize=auto;html=1;strokeColor=default;align=center;verticalAlign=middle;fontFamily=Helvetica;fontSize=12;fontColor=default;labelBackgroundColor=default;startSize=8;endArrow=classic;endSize=8;" edge="1" parent="1" source="NCAf9RA6FtGUAR0A4gLe-140" target="NCAf9RA6FtGUAR0A4gLe-142">
          <mxGeometry relative="1" as="geometry" />
        </mxCell>
        <mxCell id="NCAf9RA6FtGUAR0A4gLe-140" value="trust Card" style="ellipse;whiteSpace=wrap;html=1;aspect=fixed;flipH=1;flipV=1;direction=north;movable=1;resizable=1;rotatable=1;deletable=1;editable=1;locked=0;connectable=1;fillColor=#d5e8d4;strokeColor=#82b366;gradientColor=#97d077;" vertex="1" parent="1">
          <mxGeometry x="2211.87" y="3568.75" width="75" height="75" as="geometry" />
        </mxCell>
        <mxCell id="NCAf9RA6FtGUAR0A4gLe-142" value="Heading" style="ellipse;whiteSpace=wrap;html=1;" vertex="1" parent="1">
          <mxGeometry x="2256.87" y="3673.75" width="80" height="80" as="geometry" />
        </mxCell>
        <mxCell id="NCAf9RA6FtGUAR0A4gLe-143" value="Icon" style="ellipse;whiteSpace=wrap;html=1;" vertex="1" parent="1">
          <mxGeometry x="2151.87" y="3673.75" width="80" height="80" as="geometry" />
        </mxCell>
        <mxCell id="NCAf9RA6FtGUAR0A4gLe-150" value="Brand" style="ellipse;whiteSpace=wrap;html=1;aspect=fixed;" vertex="1" parent="1">
          <mxGeometry x="1172.5" y="-60" width="65" height="65" as="geometry" />
        </mxCell>
        <mxCell id="NCAf9RA6FtGUAR0A4gLe-152" value="Menu" style="ellipse;whiteSpace=wrap;html=1;aspect=fixed;" vertex="1" parent="1">
          <mxGeometry x="1267.5" y="-62.5" width="65" height="65" as="geometry" />
        </mxCell>
        <mxCell id="NCAf9RA6FtGUAR0A4gLe-154" value="CopyRight" style="ellipse;whiteSpace=wrap;html=1;aspect=fixed;" vertex="1" parent="1">
          <mxGeometry x="1357.5" y="-60" width="65" height="65" as="geometry" />
        </mxCell>
        <mxCell id="NCAf9RA6FtGUAR0A4gLe-155" value="Social Media icons" style="ellipse;whiteSpace=wrap;html=1;aspect=fixed;" vertex="1" parent="1">
          <mxGeometry x="1447.5" y="-60" width="65" height="65" as="geometry" />
        </mxCell>
        <mxCell id="NCAf9RA6FtGUAR0A4gLe-157" style="edgeStyle=orthogonalEdgeStyle;rounded=0;orthogonalLoop=1;jettySize=auto;html=1;entryX=0.5;entryY=0;entryDx=0;entryDy=0;strokeColor=default;align=center;verticalAlign=middle;fontFamily=Helvetica;fontSize=12;fontColor=default;labelBackgroundColor=default;startSize=8;endArrow=classic;endSize=8;" edge="1" parent="1" source="NCAf9RA6FtGUAR0A4gLe-4" target="NCAf9RA6FtGUAR0A4gLe-155">
          <mxGeometry relative="1" as="geometry" />
        </mxCell>
        <mxCell id="NCAf9RA6FtGUAR0A4gLe-185" style="edgeStyle=orthogonalEdgeStyle;rounded=0;orthogonalLoop=1;jettySize=auto;html=1;entryX=0.5;entryY=0;entryDx=0;entryDy=0;strokeColor=default;align=center;verticalAlign=middle;fontFamily=Helvetica;fontSize=12;fontColor=default;labelBackgroundColor=default;startSize=8;endArrow=classic;endSize=8;" edge="1" parent="1" source="NCAf9RA6FtGUAR0A4gLe-158" target="cJjA6EJP8AFZV5R_d-NW-95">
          <mxGeometry relative="1" as="geometry">
            <mxPoint x="1348.75" y="3315" as="targetPoint" />
          </mxGeometry>
        </mxCell>
        <mxCell id="NCAf9RA6FtGUAR0A4gLe-186" style="edgeStyle=orthogonalEdgeStyle;rounded=0;orthogonalLoop=1;jettySize=auto;html=1;entryX=0.5;entryY=0;entryDx=0;entryDy=0;strokeColor=default;align=center;verticalAlign=middle;fontFamily=Helvetica;fontSize=12;fontColor=default;labelBackgroundColor=default;startSize=8;endArrow=classic;endSize=8;" edge="1" parent="1" source="NCAf9RA6FtGUAR0A4gLe-158" target="NCAf9RA6FtGUAR0A4gLe-161">
          <mxGeometry relative="1" as="geometry" />
        </mxCell>
        <mxCell id="NCAf9RA6FtGUAR0A4gLe-187" style="edgeStyle=orthogonalEdgeStyle;rounded=0;orthogonalLoop=1;jettySize=auto;html=1;entryX=0.5;entryY=0;entryDx=0;entryDy=0;strokeColor=default;align=center;verticalAlign=middle;fontFamily=Helvetica;fontSize=12;fontColor=default;labelBackgroundColor=default;startSize=8;endArrow=classic;endSize=8;" edge="1" parent="1" source="NCAf9RA6FtGUAR0A4gLe-158" target="NCAf9RA6FtGUAR0A4gLe-162">
          <mxGeometry relative="1" as="geometry" />
        </mxCell>
        <mxCell id="NCAf9RA6FtGUAR0A4gLe-189" style="edgeStyle=orthogonalEdgeStyle;rounded=0;orthogonalLoop=1;jettySize=auto;html=1;strokeColor=default;align=center;verticalAlign=middle;fontFamily=Helvetica;fontSize=12;fontColor=default;labelBackgroundColor=default;startSize=8;endArrow=classic;endSize=8;" edge="1" parent="1" source="NCAf9RA6FtGUAR0A4gLe-158" target="NCAf9RA6FtGUAR0A4gLe-188">
          <mxGeometry relative="1" as="geometry" />
        </mxCell>
        <mxCell id="NCAf9RA6FtGUAR0A4gLe-158" value="FlyOut&amp;nbsp; cart" style="ellipse;whiteSpace=wrap;html=1;aspect=fixed;fillColor=#33FF33;" vertex="1" parent="1">
          <mxGeometry x="1491.25" y="3195" width="75" height="75" as="geometry" />
        </mxCell>
        <mxCell id="NCAf9RA6FtGUAR0A4gLe-183" style="edgeStyle=orthogonalEdgeStyle;rounded=0;orthogonalLoop=1;jettySize=auto;html=1;strokeColor=default;align=center;verticalAlign=middle;fontFamily=Helvetica;fontSize=12;fontColor=default;labelBackgroundColor=default;startSize=8;endArrow=classic;endSize=8;" edge="1" parent="1" source="NCAf9RA6FtGUAR0A4gLe-161" target="NCAf9RA6FtGUAR0A4gLe-163">
          <mxGeometry relative="1" as="geometry" />
        </mxCell>
        <mxCell id="NCAf9RA6FtGUAR0A4gLe-184" style="edgeStyle=orthogonalEdgeStyle;rounded=0;orthogonalLoop=1;jettySize=auto;html=1;entryX=0.5;entryY=0;entryDx=0;entryDy=0;strokeColor=default;align=center;verticalAlign=middle;fontFamily=Helvetica;fontSize=12;fontColor=default;labelBackgroundColor=default;startSize=8;endArrow=classic;endSize=8;" edge="1" parent="1" source="NCAf9RA6FtGUAR0A4gLe-161" target="NCAf9RA6FtGUAR0A4gLe-182">
          <mxGeometry relative="1" as="geometry" />
        </mxCell>
        <mxCell id="NCAf9RA6FtGUAR0A4gLe-161" value="Cards Container" style="ellipse;whiteSpace=wrap;html=1;aspect=fixed;" vertex="1" parent="1">
          <mxGeometry x="1446.25" y="3315" width="75" height="75" as="geometry" />
        </mxCell>
        <mxCell id="NCAf9RA6FtGUAR0A4gLe-162" value="Cart summery" style="ellipse;whiteSpace=wrap;html=1;aspect=fixed;" vertex="1" parent="1">
          <mxGeometry x="1956.25" y="3315" width="75" height="75" as="geometry" />
        </mxCell>
        <mxCell id="NCAf9RA6FtGUAR0A4gLe-163" value="product cell" style="ellipse;whiteSpace=wrap;html=1;aspect=fixed;fillColor=#e6d0de;gradientColor=#d5739d;strokeColor=#996185;" vertex="1" parent="1">
          <mxGeometry x="1371.25" y="3480" width="105" height="105" as="geometry" />
        </mxCell>
        <mxCell id="NCAf9RA6FtGUAR0A4gLe-175" style="edgeStyle=orthogonalEdgeStyle;rounded=0;orthogonalLoop=1;jettySize=auto;html=1;strokeColor=default;align=center;verticalAlign=middle;fontFamily=Helvetica;fontSize=12;fontColor=default;labelBackgroundColor=default;startSize=8;endArrow=classic;endSize=8;" edge="1" parent="1" source="NCAf9RA6FtGUAR0A4gLe-164">
          <mxGeometry relative="1" as="geometry">
            <mxPoint x="1315" y="3817.5" as="targetPoint" />
          </mxGeometry>
        </mxCell>
        <mxCell id="NCAf9RA6FtGUAR0A4gLe-176" style="edgeStyle=orthogonalEdgeStyle;rounded=0;orthogonalLoop=1;jettySize=auto;html=1;entryX=0.5;entryY=0;entryDx=0;entryDy=0;strokeColor=default;align=center;verticalAlign=middle;fontFamily=Helvetica;fontSize=12;fontColor=default;labelBackgroundColor=default;startSize=8;endArrow=classic;endSize=8;" edge="1" parent="1" source="NCAf9RA6FtGUAR0A4gLe-164" target="NCAf9RA6FtGUAR0A4gLe-166">
          <mxGeometry relative="1" as="geometry" />
        </mxCell>
        <mxCell id="NCAf9RA6FtGUAR0A4gLe-177" style="edgeStyle=orthogonalEdgeStyle;rounded=0;orthogonalLoop=1;jettySize=auto;html=1;entryX=0.5;entryY=0;entryDx=0;entryDy=0;strokeColor=default;align=center;verticalAlign=middle;fontFamily=Helvetica;fontSize=12;fontColor=default;labelBackgroundColor=default;startSize=8;endArrow=classic;endSize=8;" edge="1" parent="1" source="NCAf9RA6FtGUAR0A4gLe-164" target="NCAf9RA6FtGUAR0A4gLe-167">
          <mxGeometry relative="1" as="geometry" />
        </mxCell>
        <mxCell id="NCAf9RA6FtGUAR0A4gLe-164" value="product cell" style="ellipse;whiteSpace=wrap;html=1;aspect=fixed;fillColor=#e6d0de;gradientColor=#d5739d;strokeColor=#996185;" vertex="1" parent="1">
          <mxGeometry x="1540" y="3652.5" width="90" height="90" as="geometry" />
        </mxCell>
        <mxCell id="NCAf9RA6FtGUAR0A4gLe-165" value="Media" style="ellipse;whiteSpace=wrap;html=1;aspect=fixed;" vertex="1" parent="1">
          <mxGeometry x="1270" y="3825" width="90" height="90" as="geometry" />
        </mxCell>
        <mxCell id="NCAf9RA6FtGUAR0A4gLe-178" style="edgeStyle=orthogonalEdgeStyle;rounded=0;orthogonalLoop=1;jettySize=auto;html=1;entryX=0.5;entryY=0;entryDx=0;entryDy=0;strokeColor=default;align=center;verticalAlign=middle;fontFamily=Helvetica;fontSize=12;fontColor=default;labelBackgroundColor=default;startSize=8;endArrow=classic;endSize=8;" edge="1" parent="1" source="NCAf9RA6FtGUAR0A4gLe-166" target="NCAf9RA6FtGUAR0A4gLe-168">
          <mxGeometry relative="1" as="geometry" />
        </mxCell>
        <mxCell id="NCAf9RA6FtGUAR0A4gLe-180" style="edgeStyle=orthogonalEdgeStyle;rounded=0;orthogonalLoop=1;jettySize=auto;html=1;entryX=0.5;entryY=0;entryDx=0;entryDy=0;strokeColor=default;align=center;verticalAlign=middle;fontFamily=Helvetica;fontSize=12;fontColor=default;labelBackgroundColor=default;startSize=8;endArrow=classic;endSize=8;" edge="1" parent="1" source="NCAf9RA6FtGUAR0A4gLe-166" target="NCAf9RA6FtGUAR0A4gLe-169">
          <mxGeometry relative="1" as="geometry" />
        </mxCell>
        <mxCell id="NCAf9RA6FtGUAR0A4gLe-181" style="edgeStyle=orthogonalEdgeStyle;rounded=0;orthogonalLoop=1;jettySize=auto;html=1;entryX=0.5;entryY=0;entryDx=0;entryDy=0;strokeColor=default;align=center;verticalAlign=middle;fontFamily=Helvetica;fontSize=12;fontColor=default;labelBackgroundColor=default;startSize=8;endArrow=classic;endSize=8;" edge="1" parent="1" source="NCAf9RA6FtGUAR0A4gLe-166" target="NCAf9RA6FtGUAR0A4gLe-170">
          <mxGeometry relative="1" as="geometry" />
        </mxCell>
        <mxCell id="NCAf9RA6FtGUAR0A4gLe-166" value="Content wraper" style="ellipse;whiteSpace=wrap;html=1;aspect=fixed;" vertex="1" parent="1">
          <mxGeometry x="1515" y="3825" width="90" height="90" as="geometry" />
        </mxCell>
        <mxCell id="NCAf9RA6FtGUAR0A4gLe-173" style="edgeStyle=orthogonalEdgeStyle;rounded=0;orthogonalLoop=1;jettySize=auto;html=1;strokeColor=default;align=center;verticalAlign=middle;fontFamily=Helvetica;fontSize=12;fontColor=default;labelBackgroundColor=default;startSize=8;endArrow=classic;endSize=8;" edge="1" parent="1" source="NCAf9RA6FtGUAR0A4gLe-167">
          <mxGeometry relative="1" as="geometry">
            <mxPoint x="1810" y="4017.5" as="targetPoint" />
          </mxGeometry>
        </mxCell>
        <mxCell id="NCAf9RA6FtGUAR0A4gLe-174" style="edgeStyle=orthogonalEdgeStyle;rounded=0;orthogonalLoop=1;jettySize=auto;html=1;entryX=0.5;entryY=0;entryDx=0;entryDy=0;strokeColor=default;align=center;verticalAlign=middle;fontFamily=Helvetica;fontSize=12;fontColor=default;labelBackgroundColor=default;startSize=8;endArrow=classic;endSize=8;" edge="1" parent="1" source="NCAf9RA6FtGUAR0A4gLe-167" target="NCAf9RA6FtGUAR0A4gLe-172">
          <mxGeometry relative="1" as="geometry" />
        </mxCell>
        <mxCell id="NCAf9RA6FtGUAR0A4gLe-167" value="Actions wraper" style="ellipse;whiteSpace=wrap;html=1;aspect=fixed;" vertex="1" parent="1">
          <mxGeometry x="1825" y="3832.5" width="90" height="90" as="geometry" />
        </mxCell>
        <mxCell id="NCAf9RA6FtGUAR0A4gLe-168" value="Title" style="ellipse;whiteSpace=wrap;html=1;aspect=fixed;" vertex="1" parent="1">
          <mxGeometry x="1395" y="4027.5" width="90" height="90" as="geometry" />
        </mxCell>
        <mxCell id="NCAf9RA6FtGUAR0A4gLe-169" value="Price" style="ellipse;whiteSpace=wrap;html=1;aspect=fixed;" vertex="1" parent="1">
          <mxGeometry x="1495" y="4027.5" width="90" height="90" as="geometry" />
        </mxCell>
        <mxCell id="NCAf9RA6FtGUAR0A4gLe-170" value="Variant" style="ellipse;whiteSpace=wrap;html=1;aspect=fixed;" vertex="1" parent="1">
          <mxGeometry x="1600" y="4027.5" width="90" height="90" as="geometry" />
        </mxCell>
        <mxCell id="NCAf9RA6FtGUAR0A4gLe-172" value="Remove Button" style="ellipse;whiteSpace=wrap;html=1;aspect=fixed;" vertex="1" parent="1">
          <mxGeometry x="1885" y="4012.5" width="90" height="90" as="geometry" />
        </mxCell>
        <mxCell id="NCAf9RA6FtGUAR0A4gLe-182" value="product cell" style="ellipse;whiteSpace=wrap;html=1;aspect=fixed;fillColor=#e6d0de;gradientColor=#d5739d;strokeColor=#996185;" vertex="1" parent="1">
          <mxGeometry x="1491.25" y="3480" width="105" height="105" as="geometry" />
        </mxCell>
        <mxCell id="NCAf9RA6FtGUAR0A4gLe-191" value="" style="edgeStyle=orthogonalEdgeStyle;rounded=0;orthogonalLoop=1;jettySize=auto;html=1;strokeColor=default;align=center;verticalAlign=middle;fontFamily=Helvetica;fontSize=12;fontColor=default;labelBackgroundColor=default;startSize=8;endArrow=classic;endSize=8;" edge="1" parent="1" source="NCAf9RA6FtGUAR0A4gLe-188" target="NCAf9RA6FtGUAR0A4gLe-190">
          <mxGeometry relative="1" as="geometry" />
        </mxCell>
        <mxCell id="NCAf9RA6FtGUAR0A4gLe-193" style="edgeStyle=orthogonalEdgeStyle;rounded=0;orthogonalLoop=1;jettySize=auto;html=1;entryX=0.5;entryY=0;entryDx=0;entryDy=0;strokeColor=default;align=center;verticalAlign=middle;fontFamily=Helvetica;fontSize=12;fontColor=default;labelBackgroundColor=default;startSize=8;endArrow=classic;endSize=8;" edge="1" parent="1" source="NCAf9RA6FtGUAR0A4gLe-188" target="NCAf9RA6FtGUAR0A4gLe-192">
          <mxGeometry relative="1" as="geometry" />
        </mxCell>
        <mxCell id="NCAf9RA6FtGUAR0A4gLe-188" value="Voucher Input" style="ellipse;whiteSpace=wrap;html=1;aspect=fixed;" vertex="1" parent="1">
          <mxGeometry x="1701.25" y="3315" width="75" height="75" as="geometry" />
        </mxCell>
        <mxCell id="NCAf9RA6FtGUAR0A4gLe-190" value="Input text" style="ellipse;whiteSpace=wrap;html=1;aspect=fixed;" vertex="1" parent="1">
          <mxGeometry x="1656.25" y="3480" width="75" height="75" as="geometry" />
        </mxCell>
        <mxCell id="NCAf9RA6FtGUAR0A4gLe-192" value="Apply Button" style="ellipse;whiteSpace=wrap;html=1;aspect=fixed;" vertex="1" parent="1">
          <mxGeometry x="1761.25" y="3480" width="75" height="75" as="geometry" />
        </mxCell>
        <mxCell id="NCAf9RA6FtGUAR0A4gLe-205" style="edgeStyle=orthogonalEdgeStyle;rounded=0;orthogonalLoop=1;jettySize=auto;html=1;entryX=0.5;entryY=0;entryDx=0;entryDy=0;strokeColor=default;align=center;verticalAlign=middle;fontFamily=Helvetica;fontSize=12;fontColor=default;labelBackgroundColor=default;startSize=8;endArrow=classic;endSize=8;exitX=0.5;exitY=1;exitDx=0;exitDy=0;" edge="1" parent="1" source="NCAf9RA6FtGUAR0A4gLe-194" target="NCAf9RA6FtGUAR0A4gLe-197">
          <mxGeometry relative="1" as="geometry">
            <Array as="points">
              <mxPoint x="-670" y="597.5" />
              <mxPoint x="-940" y="597.5" />
              <mxPoint x="-940" y="652.5" />
            </Array>
            <mxPoint x="-722.5" y="602.4999999999998" as="sourcePoint" />
            <mxPoint x="-937.5" y="762.5" as="targetPoint" />
          </mxGeometry>
        </mxCell>
        <mxCell id="NCAf9RA6FtGUAR0A4gLe-206" style="edgeStyle=orthogonalEdgeStyle;rounded=0;orthogonalLoop=1;jettySize=auto;html=1;strokeColor=default;align=center;verticalAlign=middle;fontFamily=Helvetica;fontSize=12;fontColor=default;labelBackgroundColor=default;startSize=8;endArrow=classic;endSize=8;entryX=0.5;entryY=0;entryDx=0;entryDy=0;" edge="1" parent="1" source="NCAf9RA6FtGUAR0A4gLe-194" target="NCAf9RA6FtGUAR0A4gLe-199">
          <mxGeometry relative="1" as="geometry">
            <mxPoint x="-355" y="627.5" as="targetPoint" />
            <Array as="points">
              <mxPoint x="-670" y="597.5" />
              <mxPoint x="-430" y="597.5" />
              <mxPoint x="-430" y="657.5" />
            </Array>
          </mxGeometry>
        </mxCell>
        <mxCell id="NCAf9RA6FtGUAR0A4gLe-207" style="edgeStyle=orthogonalEdgeStyle;rounded=0;orthogonalLoop=1;jettySize=auto;html=1;entryX=0.5;entryY=0;entryDx=0;entryDy=0;strokeColor=default;align=center;verticalAlign=middle;fontFamily=Helvetica;fontSize=12;fontColor=default;labelBackgroundColor=default;startSize=8;endArrow=classic;endSize=8;" edge="1" parent="1" source="NCAf9RA6FtGUAR0A4gLe-194" target="NCAf9RA6FtGUAR0A4gLe-198">
          <mxGeometry relative="1" as="geometry">
            <Array as="points">
              <mxPoint x="-670" y="597.5" />
              <mxPoint x="-735" y="597.5" />
            </Array>
          </mxGeometry>
        </mxCell>
        <mxCell id="NCAf9RA6FtGUAR0A4gLe-209" style="edgeStyle=orthogonalEdgeStyle;rounded=0;orthogonalLoop=1;jettySize=auto;html=1;strokeColor=default;align=center;verticalAlign=middle;fontFamily=Helvetica;fontSize=12;fontColor=default;labelBackgroundColor=default;startSize=8;endArrow=classic;endSize=8;" edge="1" parent="1" source="NCAf9RA6FtGUAR0A4gLe-194" target="NCAf9RA6FtGUAR0A4gLe-208">
          <mxGeometry relative="1" as="geometry">
            <Array as="points">
              <mxPoint x="-670" y="597.5" />
              <mxPoint x="-590" y="597.5" />
            </Array>
          </mxGeometry>
        </mxCell>
        <mxCell id="NCAf9RA6FtGUAR0A4gLe-194" value="Shop Page" style="ellipse;whiteSpace=wrap;html=1;aspect=fixed;fillColor=#d5e8d4;strokeColor=#82b366;" vertex="1" parent="1">
          <mxGeometry x="-730" y="432.5" width="120" height="120" as="geometry" />
        </mxCell>
        <mxCell id="NCAf9RA6FtGUAR0A4gLe-216" style="edgeStyle=orthogonalEdgeStyle;rounded=0;orthogonalLoop=1;jettySize=auto;html=1;strokeColor=default;align=center;verticalAlign=middle;fontFamily=Helvetica;fontSize=12;fontColor=default;labelBackgroundColor=default;startSize=8;endArrow=classic;endSize=8;" edge="1" parent="1" source="NCAf9RA6FtGUAR0A4gLe-197" target="NCAf9RA6FtGUAR0A4gLe-214">
          <mxGeometry relative="1" as="geometry" />
        </mxCell>
        <mxCell id="NCAf9RA6FtGUAR0A4gLe-221" style="edgeStyle=orthogonalEdgeStyle;rounded=0;orthogonalLoop=1;jettySize=auto;html=1;entryX=0.5;entryY=0;entryDx=0;entryDy=0;strokeColor=default;align=center;verticalAlign=middle;fontFamily=Helvetica;fontSize=12;fontColor=default;labelBackgroundColor=default;startSize=8;endArrow=classic;endSize=8;" edge="1" parent="1" source="NCAf9RA6FtGUAR0A4gLe-197" target="NCAf9RA6FtGUAR0A4gLe-215">
          <mxGeometry relative="1" as="geometry" />
        </mxCell>
        <mxCell id="NCAf9RA6FtGUAR0A4gLe-223" style="edgeStyle=orthogonalEdgeStyle;rounded=0;orthogonalLoop=1;jettySize=auto;html=1;strokeColor=default;align=center;verticalAlign=middle;fontFamily=Helvetica;fontSize=12;fontColor=default;labelBackgroundColor=default;startSize=8;endArrow=classic;endSize=8;" edge="1" parent="1" source="NCAf9RA6FtGUAR0A4gLe-197" target="NCAf9RA6FtGUAR0A4gLe-222">
          <mxGeometry relative="1" as="geometry" />
        </mxCell>
        <mxCell id="NCAf9RA6FtGUAR0A4gLe-197" value="Filter" style="ellipse;whiteSpace=wrap;html=1;aspect=fixed;fontFamily=Helvetica;fontSize=12;fontColor=default;labelBackgroundColor=default;" vertex="1" parent="1">
          <mxGeometry x="-985" y="652.5" width="80" height="80" as="geometry" />
        </mxCell>
        <mxCell id="NCAf9RA6FtGUAR0A4gLe-198" value="Heading" style="ellipse;whiteSpace=wrap;html=1;aspect=fixed;fontFamily=Helvetica;fontSize=12;fontColor=default;labelBackgroundColor=default;" vertex="1" parent="1">
          <mxGeometry x="-775" y="652.5" width="80" height="80" as="geometry" />
        </mxCell>
        <mxCell id="NCAf9RA6FtGUAR0A4gLe-203" style="edgeStyle=orthogonalEdgeStyle;rounded=0;orthogonalLoop=1;jettySize=auto;html=1;entryX=1;entryY=0.5;entryDx=0;entryDy=0;strokeColor=default;align=center;verticalAlign=middle;fontFamily=Helvetica;fontSize=12;fontColor=default;labelBackgroundColor=default;startSize=8;endArrow=classic;endSize=8;" edge="1" parent="1" source="NCAf9RA6FtGUAR0A4gLe-199" target="NCAf9RA6FtGUAR0A4gLe-201">
          <mxGeometry relative="1" as="geometry" />
        </mxCell>
        <mxCell id="NCAf9RA6FtGUAR0A4gLe-204" style="edgeStyle=orthogonalEdgeStyle;rounded=0;orthogonalLoop=1;jettySize=auto;html=1;entryX=1;entryY=0.5;entryDx=0;entryDy=0;strokeColor=default;align=center;verticalAlign=middle;fontFamily=Helvetica;fontSize=12;fontColor=default;labelBackgroundColor=default;startSize=8;endArrow=classic;endSize=8;" edge="1" parent="1" source="NCAf9RA6FtGUAR0A4gLe-199" target="NCAf9RA6FtGUAR0A4gLe-202">
          <mxGeometry relative="1" as="geometry" />
        </mxCell>
        <mxCell id="NCAf9RA6FtGUAR0A4gLe-199" value="Cards Container" style="ellipse;whiteSpace=wrap;html=1;aspect=fixed;fontFamily=Helvetica;fontSize=12;fontColor=default;labelBackgroundColor=default;" vertex="1" parent="1">
          <mxGeometry x="-477.5" y="657.5" width="80" height="80" as="geometry" />
        </mxCell>
        <mxCell id="NCAf9RA6FtGUAR0A4gLe-201" value="Product Card" style="ellipse;whiteSpace=wrap;html=1;aspect=fixed;flipH=1;flipV=1;direction=north;movable=1;resizable=1;rotatable=1;deletable=1;editable=1;locked=0;connectable=1;fillColor=#d0cee2;strokeColor=#56517e;" vertex="1" parent="1">
          <mxGeometry x="-520" y="802.5" width="72.5" height="72.5" as="geometry" />
        </mxCell>
        <mxCell id="NCAf9RA6FtGUAR0A4gLe-202" value="Product Card" style="ellipse;whiteSpace=wrap;html=1;aspect=fixed;flipH=1;flipV=1;direction=north;movable=1;resizable=1;rotatable=1;deletable=1;editable=1;locked=0;connectable=1;fillColor=#d0cee2;strokeColor=#56517e;" vertex="1" parent="1">
          <mxGeometry x="-420" y="802.5" width="80" height="80" as="geometry" />
        </mxCell>
        <mxCell id="NCAf9RA6FtGUAR0A4gLe-211" value="" style="edgeStyle=orthogonalEdgeStyle;rounded=0;orthogonalLoop=1;jettySize=auto;html=1;strokeColor=default;align=center;verticalAlign=middle;fontFamily=Helvetica;fontSize=12;fontColor=default;labelBackgroundColor=default;startSize=8;endArrow=classic;endSize=8;" edge="1" parent="1" source="NCAf9RA6FtGUAR0A4gLe-208" target="NCAf9RA6FtGUAR0A4gLe-210">
          <mxGeometry relative="1" as="geometry">
            <Array as="points">
              <mxPoint x="-590" y="747.5" />
              <mxPoint x="-710" y="747.5" />
            </Array>
          </mxGeometry>
        </mxCell>
        <mxCell id="NCAf9RA6FtGUAR0A4gLe-213" style="edgeStyle=orthogonalEdgeStyle;rounded=0;orthogonalLoop=1;jettySize=auto;html=1;entryX=0.5;entryY=0;entryDx=0;entryDy=0;strokeColor=default;align=center;verticalAlign=middle;fontFamily=Helvetica;fontSize=12;fontColor=default;labelBackgroundColor=default;startSize=8;endArrow=classic;endSize=8;" edge="1" parent="1" source="NCAf9RA6FtGUAR0A4gLe-208" target="NCAf9RA6FtGUAR0A4gLe-212">
          <mxGeometry relative="1" as="geometry">
            <Array as="points">
              <mxPoint x="-590" y="747.5" />
              <mxPoint x="-590" y="747.5" />
            </Array>
          </mxGeometry>
        </mxCell>
        <mxCell id="NCAf9RA6FtGUAR0A4gLe-208" value="Arrange actions" style="ellipse;whiteSpace=wrap;html=1;aspect=fixed;fontFamily=Helvetica;fontSize=12;fontColor=default;labelBackgroundColor=default;" vertex="1" parent="1">
          <mxGeometry x="-635" y="657.5" width="80" height="80" as="geometry" />
        </mxCell>
        <mxCell id="NCAf9RA6FtGUAR0A4gLe-210" value="sortBy" style="ellipse;whiteSpace=wrap;html=1;aspect=fixed;fontFamily=Helvetica;fontSize=12;fontColor=default;labelBackgroundColor=default;" vertex="1" parent="1">
          <mxGeometry x="-745" y="792.5" width="75" height="75" as="geometry" />
        </mxCell>
        <mxCell id="NCAf9RA6FtGUAR0A4gLe-212" value="Card Views" style="ellipse;whiteSpace=wrap;html=1;aspect=fixed;fontFamily=Helvetica;fontSize=12;fontColor=default;labelBackgroundColor=default;" vertex="1" parent="1">
          <mxGeometry x="-630" y="792.5" width="80" height="80" as="geometry" />
        </mxCell>
        <mxCell id="NCAf9RA6FtGUAR0A4gLe-219" style="edgeStyle=orthogonalEdgeStyle;rounded=0;orthogonalLoop=1;jettySize=auto;html=1;strokeColor=default;align=center;verticalAlign=middle;fontFamily=Helvetica;fontSize=12;fontColor=default;labelBackgroundColor=default;startSize=8;endArrow=classic;endSize=8;entryX=0.5;entryY=0;entryDx=0;entryDy=0;" edge="1" parent="1" target="NCAf9RA6FtGUAR0A4gLe-217">
          <mxGeometry relative="1" as="geometry">
            <Array as="points">
              <mxPoint x="-1065" y="852.5" />
              <mxPoint x="-1115" y="852.5" />
            </Array>
            <mxPoint x="-1065" y="847.5" as="sourcePoint" />
            <mxPoint x="-1115" y="887.5" as="targetPoint" />
          </mxGeometry>
        </mxCell>
        <mxCell id="NCAf9RA6FtGUAR0A4gLe-220" style="edgeStyle=orthogonalEdgeStyle;rounded=0;orthogonalLoop=1;jettySize=auto;html=1;entryX=0.5;entryY=0;entryDx=0;entryDy=0;strokeColor=default;align=center;verticalAlign=middle;fontFamily=Helvetica;fontSize=12;fontColor=default;labelBackgroundColor=default;startSize=8;endArrow=classic;endSize=8;" edge="1" parent="1" source="NCAf9RA6FtGUAR0A4gLe-214" target="NCAf9RA6FtGUAR0A4gLe-218">
          <mxGeometry relative="1" as="geometry">
            <Array as="points">
              <mxPoint x="-1065" y="852.5" />
              <mxPoint x="-1025" y="852.5" />
            </Array>
          </mxGeometry>
        </mxCell>
        <mxCell id="NCAf9RA6FtGUAR0A4gLe-214" value="Category" style="ellipse;whiteSpace=wrap;html=1;aspect=fixed;fontFamily=Helvetica;fontSize=12;fontColor=default;labelBackgroundColor=default;" vertex="1" parent="1">
          <mxGeometry x="-1105" y="762.5" width="80" height="80" as="geometry" />
        </mxCell>
        <mxCell id="NCAf9RA6FtGUAR0A4gLe-215" value="Price" style="ellipse;whiteSpace=wrap;html=1;aspect=fixed;fontFamily=Helvetica;fontSize=12;fontColor=default;labelBackgroundColor=default;" vertex="1" parent="1">
          <mxGeometry x="-870" y="782.5" width="80" height="80" as="geometry" />
        </mxCell>
        <mxCell id="NCAf9RA6FtGUAR0A4gLe-217" value="Button" style="ellipse;whiteSpace=wrap;html=1;aspect=fixed;fontFamily=Helvetica;fontSize=12;fontColor=default;labelBackgroundColor=default;" vertex="1" parent="1">
          <mxGeometry x="-1155" y="882.5" width="80" height="80" as="geometry" />
        </mxCell>
        <mxCell id="NCAf9RA6FtGUAR0A4gLe-218" value="Button" style="ellipse;whiteSpace=wrap;html=1;aspect=fixed;fontFamily=Helvetica;fontSize=12;fontColor=default;labelBackgroundColor=default;" vertex="1" parent="1">
          <mxGeometry x="-1065" y="882.5" width="80" height="80" as="geometry" />
        </mxCell>
        <mxCell id="NCAf9RA6FtGUAR0A4gLe-222" value="Availability" style="ellipse;whiteSpace=wrap;html=1;aspect=fixed;fontFamily=Helvetica;fontSize=12;fontColor=default;labelBackgroundColor=default;" vertex="1" parent="1">
          <mxGeometry x="-985" y="782.5" width="80" height="80" as="geometry" />
        </mxCell>
        <mxCell id="NCAf9RA6FtGUAR0A4gLe-227" style="edgeStyle=elbowEdgeStyle;rounded=0;orthogonalLoop=1;jettySize=auto;html=1;entryX=0.5;entryY=0;entryDx=0;entryDy=0;strokeColor=default;align=center;verticalAlign=middle;fontFamily=Helvetica;fontSize=12;fontColor=default;labelBackgroundColor=default;startSize=8;endArrow=classic;endSize=8;elbow=vertical;" edge="1" parent="1" source="NCAf9RA6FtGUAR0A4gLe-224" target="NCAf9RA6FtGUAR0A4gLe-225">
          <mxGeometry relative="1" as="geometry" />
        </mxCell>
        <mxCell id="NCAf9RA6FtGUAR0A4gLe-228" style="edgeStyle=elbowEdgeStyle;rounded=0;orthogonalLoop=1;jettySize=auto;html=1;entryX=0.5;entryY=0;entryDx=0;entryDy=0;strokeColor=default;align=center;verticalAlign=middle;fontFamily=Helvetica;fontSize=12;fontColor=default;labelBackgroundColor=default;startSize=8;endArrow=classic;endSize=8;elbow=vertical;" edge="1" parent="1" source="NCAf9RA6FtGUAR0A4gLe-224" target="NCAf9RA6FtGUAR0A4gLe-226">
          <mxGeometry relative="1" as="geometry" />
        </mxCell>
        <mxCell id="NCAf9RA6FtGUAR0A4gLe-224" value="Product Page" style="ellipse;whiteSpace=wrap;html=1;aspect=fixed;fillColor=#d5e8d4;strokeColor=#82b366;" vertex="1" parent="1">
          <mxGeometry x="848.74" y="439.37" width="120" height="120" as="geometry" />
        </mxCell>
        <mxCell id="NCAf9RA6FtGUAR0A4gLe-231" style="edgeStyle=orthogonalEdgeStyle;rounded=0;orthogonalLoop=1;jettySize=auto;html=1;strokeColor=default;align=center;verticalAlign=middle;fontFamily=Helvetica;fontSize=12;fontColor=default;labelBackgroundColor=default;startSize=8;endArrow=classic;endSize=8;" edge="1" parent="1" source="NCAf9RA6FtGUAR0A4gLe-225" target="NCAf9RA6FtGUAR0A4gLe-229">
          <mxGeometry relative="1" as="geometry" />
        </mxCell>
        <mxCell id="NCAf9RA6FtGUAR0A4gLe-232" style="edgeStyle=orthogonalEdgeStyle;rounded=0;orthogonalLoop=1;jettySize=auto;html=1;entryX=0.5;entryY=0;entryDx=0;entryDy=0;strokeColor=default;align=center;verticalAlign=middle;fontFamily=Helvetica;fontSize=12;fontColor=default;labelBackgroundColor=default;startSize=8;endArrow=classic;endSize=8;" edge="1" parent="1" source="NCAf9RA6FtGUAR0A4gLe-225" target="NCAf9RA6FtGUAR0A4gLe-230">
          <mxGeometry relative="1" as="geometry">
            <Array as="points">
              <mxPoint x="773.74" y="699.37" />
              <mxPoint x="773.74" y="794.37" />
            </Array>
          </mxGeometry>
        </mxCell>
        <mxCell id="NCAf9RA6FtGUAR0A4gLe-225" value="Product ShowCase" style="ellipse;whiteSpace=wrap;html=1;aspect=fixed;fontFamily=Helvetica;fontSize=12;fontColor=default;labelBackgroundColor=default;" vertex="1" parent="1">
          <mxGeometry x="536.24" y="656.87" width="90" height="90" as="geometry" />
        </mxCell>
        <mxCell id="cJjA6EJP8AFZV5R_d-NW-34" style="edgeStyle=orthogonalEdgeStyle;rounded=0;orthogonalLoop=1;jettySize=auto;html=1;entryX=0.5;entryY=0;entryDx=0;entryDy=0;strokeColor=default;align=center;verticalAlign=middle;fontFamily=Helvetica;fontSize=12;fontColor=default;labelBackgroundColor=default;startSize=8;endArrow=classic;endSize=8;" edge="1" parent="1" source="NCAf9RA6FtGUAR0A4gLe-226" target="cJjA6EJP8AFZV5R_d-NW-33">
          <mxGeometry relative="1" as="geometry" />
        </mxCell>
        <mxCell id="NCAf9RA6FtGUAR0A4gLe-226" value="Additional Info" style="ellipse;whiteSpace=wrap;html=1;aspect=fixed;fontFamily=Helvetica;fontSize=12;fontColor=default;labelBackgroundColor=default;" vertex="1" parent="1">
          <mxGeometry x="1268.74" y="656.87" width="90" height="90" as="geometry" />
        </mxCell>
        <mxCell id="cJjA6EJP8AFZV5R_d-NW-21" style="edgeStyle=orthogonalEdgeStyle;rounded=0;orthogonalLoop=1;jettySize=auto;html=1;entryX=0.5;entryY=0;entryDx=0;entryDy=0;strokeColor=default;align=center;verticalAlign=middle;fontFamily=Helvetica;fontSize=12;fontColor=default;labelBackgroundColor=default;startSize=8;endArrow=classic;endSize=8;" edge="1" parent="1" source="NCAf9RA6FtGUAR0A4gLe-229" target="cJjA6EJP8AFZV5R_d-NW-19">
          <mxGeometry relative="1" as="geometry" />
        </mxCell>
        <mxCell id="cJjA6EJP8AFZV5R_d-NW-22" style="edgeStyle=orthogonalEdgeStyle;rounded=0;orthogonalLoop=1;jettySize=auto;html=1;entryX=0.5;entryY=0;entryDx=0;entryDy=0;strokeColor=default;align=center;verticalAlign=middle;fontFamily=Helvetica;fontSize=12;fontColor=default;labelBackgroundColor=default;startSize=8;endArrow=classic;endSize=8;" edge="1" parent="1" source="NCAf9RA6FtGUAR0A4gLe-229" target="cJjA6EJP8AFZV5R_d-NW-20">
          <mxGeometry relative="1" as="geometry" />
        </mxCell>
        <mxCell id="NCAf9RA6FtGUAR0A4gLe-229" value="Media Container" style="ellipse;whiteSpace=wrap;html=1;aspect=fixed;fontFamily=Helvetica;fontSize=12;fontColor=default;labelBackgroundColor=default;" vertex="1" parent="1">
          <mxGeometry x="283.74" y="789.37" width="90" height="90" as="geometry" />
        </mxCell>
        <mxCell id="NCAf9RA6FtGUAR0A4gLe-244" style="edgeStyle=orthogonalEdgeStyle;rounded=0;orthogonalLoop=1;jettySize=auto;html=1;strokeColor=default;align=center;verticalAlign=middle;fontFamily=Helvetica;fontSize=12;fontColor=default;labelBackgroundColor=default;startSize=8;endArrow=classic;endSize=8;" edge="1" parent="1" source="NCAf9RA6FtGUAR0A4gLe-230" target="NCAf9RA6FtGUAR0A4gLe-234">
          <mxGeometry relative="1" as="geometry" />
        </mxCell>
        <mxCell id="NCAf9RA6FtGUAR0A4gLe-245" style="edgeStyle=orthogonalEdgeStyle;rounded=0;orthogonalLoop=1;jettySize=auto;html=1;strokeColor=default;align=center;verticalAlign=middle;fontFamily=Helvetica;fontSize=12;fontColor=default;labelBackgroundColor=default;startSize=8;endArrow=classic;endSize=8;" edge="1" parent="1" source="NCAf9RA6FtGUAR0A4gLe-230" target="NCAf9RA6FtGUAR0A4gLe-233">
          <mxGeometry relative="1" as="geometry" />
        </mxCell>
        <mxCell id="NCAf9RA6FtGUAR0A4gLe-246" style="edgeStyle=orthogonalEdgeStyle;rounded=0;orthogonalLoop=1;jettySize=auto;html=1;entryX=0.5;entryY=0;entryDx=0;entryDy=0;strokeColor=default;align=center;verticalAlign=middle;fontFamily=Helvetica;fontSize=12;fontColor=default;labelBackgroundColor=default;startSize=8;endArrow=classic;endSize=8;" edge="1" parent="1" source="NCAf9RA6FtGUAR0A4gLe-230" target="NCAf9RA6FtGUAR0A4gLe-235">
          <mxGeometry relative="1" as="geometry" />
        </mxCell>
        <mxCell id="NCAf9RA6FtGUAR0A4gLe-230" value="Content" style="ellipse;whiteSpace=wrap;html=1;aspect=fixed;fontFamily=Helvetica;fontSize=12;fontColor=default;labelBackgroundColor=default;" vertex="1" parent="1">
          <mxGeometry x="728.74" y="794.37" width="90" height="90" as="geometry" />
        </mxCell>
        <mxCell id="cJjA6EJP8AFZV5R_d-NW-7" style="edgeStyle=orthogonalEdgeStyle;rounded=0;orthogonalLoop=1;jettySize=auto;html=1;entryX=1;entryY=0.5;entryDx=0;entryDy=0;fontSize=12;startSize=8;endSize=8;" edge="1" parent="1" source="NCAf9RA6FtGUAR0A4gLe-233" target="cJjA6EJP8AFZV5R_d-NW-6">
          <mxGeometry relative="1" as="geometry" />
        </mxCell>
        <mxCell id="cJjA6EJP8AFZV5R_d-NW-10" style="edgeStyle=orthogonalEdgeStyle;rounded=0;orthogonalLoop=1;jettySize=auto;html=1;strokeColor=default;align=center;verticalAlign=middle;fontFamily=Helvetica;fontSize=12;fontColor=default;labelBackgroundColor=default;startSize=8;endArrow=classic;endSize=8;" edge="1" parent="1" source="NCAf9RA6FtGUAR0A4gLe-233" target="cJjA6EJP8AFZV5R_d-NW-8">
          <mxGeometry relative="1" as="geometry" />
        </mxCell>
        <mxCell id="cJjA6EJP8AFZV5R_d-NW-11" style="edgeStyle=orthogonalEdgeStyle;rounded=0;orthogonalLoop=1;jettySize=auto;html=1;strokeColor=default;align=center;verticalAlign=middle;fontFamily=Helvetica;fontSize=12;fontColor=default;labelBackgroundColor=default;startSize=8;endArrow=classic;endSize=8;" edge="1" parent="1" source="NCAf9RA6FtGUAR0A4gLe-233" target="cJjA6EJP8AFZV5R_d-NW-17">
          <mxGeometry relative="1" as="geometry">
            <mxPoint x="826.24" y="1269.3700000000003" as="targetPoint" />
          </mxGeometry>
        </mxCell>
        <mxCell id="NCAf9RA6FtGUAR0A4gLe-233" value="Product Info" style="ellipse;whiteSpace=wrap;html=1;aspect=fixed;fontFamily=Helvetica;fontSize=12;fontColor=default;labelBackgroundColor=default;" vertex="1" parent="1">
          <mxGeometry x="633.74" y="1109.37" width="90" height="90" as="geometry" />
        </mxCell>
        <mxCell id="NCAf9RA6FtGUAR0A4gLe-234" value="Promotions" style="ellipse;whiteSpace=wrap;html=1;aspect=fixed;fontFamily=Helvetica;fontSize=12;fontColor=default;labelBackgroundColor=default;" vertex="1" parent="1">
          <mxGeometry x="728.74" y="934.37" width="90" height="90" as="geometry" />
        </mxCell>
        <mxCell id="NCAf9RA6FtGUAR0A4gLe-242" style="edgeStyle=orthogonalEdgeStyle;rounded=0;orthogonalLoop=1;jettySize=auto;html=1;entryX=0.5;entryY=0;entryDx=0;entryDy=0;strokeColor=default;align=center;verticalAlign=middle;fontFamily=Helvetica;fontSize=12;fontColor=default;labelBackgroundColor=default;startSize=8;endArrow=classic;endSize=8;" edge="1" parent="1" source="NCAf9RA6FtGUAR0A4gLe-235" target="NCAf9RA6FtGUAR0A4gLe-236">
          <mxGeometry relative="1" as="geometry" />
        </mxCell>
        <mxCell id="NCAf9RA6FtGUAR0A4gLe-243" style="edgeStyle=orthogonalEdgeStyle;rounded=0;orthogonalLoop=1;jettySize=auto;html=1;strokeColor=default;align=center;verticalAlign=middle;fontFamily=Helvetica;fontSize=12;fontColor=default;labelBackgroundColor=default;startSize=8;endArrow=classic;endSize=8;" edge="1" parent="1" source="NCAf9RA6FtGUAR0A4gLe-235" target="NCAf9RA6FtGUAR0A4gLe-240">
          <mxGeometry relative="1" as="geometry" />
        </mxCell>
        <mxCell id="cJjA6EJP8AFZV5R_d-NW-2" style="edgeStyle=none;curved=0;rounded=0;orthogonalLoop=1;jettySize=auto;html=1;entryX=0.5;entryY=0;entryDx=0;entryDy=0;fontSize=12;startSize=8;endSize=8;exitX=1;exitY=0.5;exitDx=0;exitDy=0;" edge="1" parent="1" source="NCAf9RA6FtGUAR0A4gLe-235" target="cJjA6EJP8AFZV5R_d-NW-1">
          <mxGeometry relative="1" as="geometry">
            <Array as="points">
              <mxPoint x="1133.74" y="929.37" />
            </Array>
          </mxGeometry>
        </mxCell>
        <mxCell id="NCAf9RA6FtGUAR0A4gLe-235" value="Product actions" style="ellipse;whiteSpace=wrap;html=1;aspect=fixed;fontFamily=Helvetica;fontSize=12;fontColor=default;labelBackgroundColor=default;" vertex="1" parent="1">
          <mxGeometry x="968.74" y="884.37" width="90" height="90" as="geometry" />
        </mxCell>
        <mxCell id="NCAf9RA6FtGUAR0A4gLe-236" value="Variant Selector" style="ellipse;whiteSpace=wrap;html=1;aspect=fixed;fontFamily=Helvetica;fontSize=12;fontColor=default;labelBackgroundColor=default;" vertex="1" parent="1">
          <mxGeometry x="833.74" y="1044.37" width="90" height="90" as="geometry" />
        </mxCell>
        <mxCell id="NCAf9RA6FtGUAR0A4gLe-237" value="Quantity Controller" style="ellipse;whiteSpace=wrap;html=1;aspect=fixed;fillColor=#ffff88;strokeColor=#36393d;" vertex="1" parent="1">
          <mxGeometry x="590" y="3207.5" width="90" height="90" as="geometry" />
        </mxCell>
        <mxCell id="NCAf9RA6FtGUAR0A4gLe-238" value="Quantity Controller" style="ellipse;whiteSpace=wrap;html=1;aspect=fixed;fillColor=#ffff88;strokeColor=#36393d;" vertex="1" parent="1">
          <mxGeometry x="1765" y="4012.5" width="90" height="90" as="geometry" />
        </mxCell>
        <mxCell id="NCAf9RA6FtGUAR0A4gLe-240" value="Quantity Controller" style="ellipse;whiteSpace=wrap;html=1;aspect=fixed;fillColor=#ffff88;strokeColor=#36393d;" vertex="1" parent="1">
          <mxGeometry x="968.74" y="1044.37" width="90" height="90" as="geometry" />
        </mxCell>
        <mxCell id="cJjA6EJP8AFZV5R_d-NW-1" value="Add to cart" style="ellipse;whiteSpace=wrap;html=1;aspect=fixed;fontFamily=Helvetica;fontSize=12;fontColor=default;labelBackgroundColor=default;" vertex="1" parent="1">
          <mxGeometry x="1088.74" y="1044.37" width="90" height="90" as="geometry" />
        </mxCell>
        <mxCell id="cJjA6EJP8AFZV5R_d-NW-4" value="Rating" style="ellipse;whiteSpace=wrap;html=1;aspect=fixed;flipH=1;flipV=1;direction=north;movable=1;resizable=1;rotatable=1;deletable=1;editable=1;locked=0;connectable=1;fillColor=#9AC7BF;" vertex="1" parent="1">
          <mxGeometry x="735" y="3207.5" width="90" height="90" as="geometry" />
        </mxCell>
        <mxCell id="cJjA6EJP8AFZV5R_d-NW-5" value="Rating" style="ellipse;whiteSpace=wrap;html=1;aspect=fixed;flipH=1;flipV=1;direction=north;movable=1;resizable=1;rotatable=1;deletable=1;editable=1;locked=0;connectable=1;fillColor=#9AC7BF;" vertex="1" parent="1">
          <mxGeometry x="390" y="3588.75" width="90" height="90" as="geometry" />
        </mxCell>
        <mxCell id="cJjA6EJP8AFZV5R_d-NW-6" value="Rating" style="ellipse;whiteSpace=wrap;html=1;aspect=fixed;flipH=1;flipV=1;direction=north;movable=1;resizable=1;rotatable=1;deletable=1;editable=1;locked=0;connectable=1;fillColor=#9AC7BF;" vertex="1" parent="1">
          <mxGeometry x="526.24" y="1269.37" width="90" height="90" as="geometry" />
        </mxCell>
        <mxCell id="cJjA6EJP8AFZV5R_d-NW-8" value="Product Specs" style="ellipse;whiteSpace=wrap;html=1;aspect=fixed;fontFamily=Helvetica;fontSize=12;fontColor=default;labelBackgroundColor=default;fillColor=#009999;" vertex="1" parent="1">
          <mxGeometry x="633.74" y="1269.37" width="90" height="90" as="geometry" />
        </mxCell>
        <mxCell id="cJjA6EJP8AFZV5R_d-NW-15" style="edgeStyle=orthogonalEdgeStyle;rounded=0;orthogonalLoop=1;jettySize=auto;html=1;entryX=0.5;entryY=0;entryDx=0;entryDy=0;strokeColor=default;align=center;verticalAlign=middle;fontFamily=Helvetica;fontSize=12;fontColor=default;labelBackgroundColor=default;startSize=8;endArrow=classic;endSize=8;" edge="1" parent="1" source="cJjA6EJP8AFZV5R_d-NW-12" target="cJjA6EJP8AFZV5R_d-NW-13">
          <mxGeometry relative="1" as="geometry" />
        </mxCell>
        <mxCell id="cJjA6EJP8AFZV5R_d-NW-16" style="edgeStyle=orthogonalEdgeStyle;rounded=0;orthogonalLoop=1;jettySize=auto;html=1;strokeColor=default;align=center;verticalAlign=middle;fontFamily=Helvetica;fontSize=12;fontColor=default;labelBackgroundColor=default;startSize=8;endArrow=classic;endSize=8;" edge="1" parent="1" source="cJjA6EJP8AFZV5R_d-NW-12" target="cJjA6EJP8AFZV5R_d-NW-14">
          <mxGeometry relative="1" as="geometry" />
        </mxCell>
        <mxCell id="cJjA6EJP8AFZV5R_d-NW-12" value="Price" style="ellipse;whiteSpace=wrap;html=1;aspect=fixed;flipH=1;flipV=1;direction=north;movable=1;resizable=1;rotatable=1;deletable=1;editable=1;locked=0;connectable=1;fillColor=#FF33FF;" vertex="1" parent="1">
          <mxGeometry x="985" y="3207.5" width="90" height="90" as="geometry" />
        </mxCell>
        <mxCell id="cJjA6EJP8AFZV5R_d-NW-13" value="Selling Price" style="ellipse;whiteSpace=wrap;html=1;aspect=fixed;fontFamily=Helvetica;fontSize=12;fontColor=default;labelBackgroundColor=default;" vertex="1" parent="1">
          <mxGeometry x="925" y="3357.5" width="80" height="80" as="geometry" />
        </mxCell>
        <mxCell id="cJjA6EJP8AFZV5R_d-NW-14" value="Regular Price Price" style="ellipse;whiteSpace=wrap;html=1;aspect=fixed;fontFamily=Helvetica;fontSize=12;fontColor=default;labelBackgroundColor=default;" vertex="1" parent="1">
          <mxGeometry x="1060" y="3357.5" width="80" height="80" as="geometry" />
        </mxCell>
        <mxCell id="cJjA6EJP8AFZV5R_d-NW-17" value="Price" style="ellipse;whiteSpace=wrap;html=1;aspect=fixed;flipH=1;flipV=1;direction=north;movable=1;resizable=1;rotatable=1;deletable=1;editable=1;locked=0;connectable=1;fillColor=#FF33FF;" vertex="1" parent="1">
          <mxGeometry x="758.74" y="1269.37" width="90" height="90" as="geometry" />
        </mxCell>
        <mxCell id="cJjA6EJP8AFZV5R_d-NW-18" value="Product Specs" style="ellipse;whiteSpace=wrap;html=1;aspect=fixed;fontFamily=Helvetica;fontSize=12;fontColor=default;labelBackgroundColor=default;fillColor=#009999;" vertex="1" parent="1">
          <mxGeometry x="30" y="1443.75" width="90" height="90" as="geometry" />
        </mxCell>
        <mxCell id="cJjA6EJP8AFZV5R_d-NW-24" style="edgeStyle=orthogonalEdgeStyle;rounded=0;orthogonalLoop=1;jettySize=auto;html=1;entryX=0.5;entryY=0;entryDx=0;entryDy=0;strokeColor=default;align=center;verticalAlign=middle;fontFamily=Helvetica;fontSize=12;fontColor=default;labelBackgroundColor=default;startSize=8;endArrow=classic;endSize=8;" edge="1" parent="1" source="cJjA6EJP8AFZV5R_d-NW-19" target="cJjA6EJP8AFZV5R_d-NW-23">
          <mxGeometry relative="1" as="geometry" />
        </mxCell>
        <mxCell id="cJjA6EJP8AFZV5R_d-NW-26" value="" style="edgeStyle=orthogonalEdgeStyle;rounded=0;orthogonalLoop=1;jettySize=auto;html=1;strokeColor=default;align=center;verticalAlign=middle;fontFamily=Helvetica;fontSize=12;fontColor=default;labelBackgroundColor=default;startSize=8;endArrow=classic;endSize=8;" edge="1" parent="1" source="cJjA6EJP8AFZV5R_d-NW-19" target="cJjA6EJP8AFZV5R_d-NW-25">
          <mxGeometry relative="1" as="geometry" />
        </mxCell>
        <mxCell id="cJjA6EJP8AFZV5R_d-NW-32" style="edgeStyle=orthogonalEdgeStyle;rounded=0;orthogonalLoop=1;jettySize=auto;html=1;entryX=0.5;entryY=0;entryDx=0;entryDy=0;strokeColor=default;align=center;verticalAlign=middle;fontFamily=Helvetica;fontSize=12;fontColor=default;labelBackgroundColor=default;startSize=8;endArrow=classic;endSize=8;" edge="1" parent="1" source="cJjA6EJP8AFZV5R_d-NW-19" target="cJjA6EJP8AFZV5R_d-NW-31">
          <mxGeometry relative="1" as="geometry" />
        </mxCell>
        <mxCell id="cJjA6EJP8AFZV5R_d-NW-19" value="Full View" style="ellipse;whiteSpace=wrap;html=1;aspect=fixed;fontFamily=Helvetica;fontSize=12;fontColor=default;labelBackgroundColor=default;" vertex="1" parent="1">
          <mxGeometry x="112.49000000000001" y="909.37" width="90" height="90" as="geometry" />
        </mxCell>
        <mxCell id="cJjA6EJP8AFZV5R_d-NW-30" style="edgeStyle=orthogonalEdgeStyle;rounded=0;orthogonalLoop=1;jettySize=auto;html=1;entryX=0.5;entryY=0;entryDx=0;entryDy=0;strokeColor=default;align=center;verticalAlign=middle;fontFamily=Helvetica;fontSize=12;fontColor=default;labelBackgroundColor=default;startSize=8;endArrow=classic;endSize=8;" edge="1" parent="1" source="cJjA6EJP8AFZV5R_d-NW-20" target="cJjA6EJP8AFZV5R_d-NW-28">
          <mxGeometry relative="1" as="geometry" />
        </mxCell>
        <mxCell id="cJjA6EJP8AFZV5R_d-NW-20" value="Galary View" style="ellipse;whiteSpace=wrap;html=1;aspect=fixed;fontFamily=Helvetica;fontSize=12;fontColor=default;labelBackgroundColor=default;" vertex="1" parent="1">
          <mxGeometry x="439.99" y="924.37" width="90" height="90" as="geometry" />
        </mxCell>
        <mxCell id="cJjA6EJP8AFZV5R_d-NW-23" value="Media" style="ellipse;whiteSpace=wrap;html=1;aspect=fixed;fontFamily=Helvetica;fontSize=12;fontColor=default;labelBackgroundColor=default;" vertex="1" parent="1">
          <mxGeometry x="4.990000000000009" y="1059.37" width="90" height="90" as="geometry" />
        </mxCell>
        <mxCell id="cJjA6EJP8AFZV5R_d-NW-25" value="Arrow Navigator" style="ellipse;whiteSpace=wrap;html=1;aspect=fixed;fontFamily=Helvetica;fontSize=12;fontColor=default;labelBackgroundColor=default;" vertex="1" parent="1">
          <mxGeometry x="112.49000000000001" y="1064.37" width="90" height="90" as="geometry" />
        </mxCell>
        <mxCell id="cJjA6EJP8AFZV5R_d-NW-27" value="Media" style="ellipse;whiteSpace=wrap;html=1;aspect=fixed;fontFamily=Helvetica;fontSize=12;fontColor=default;labelBackgroundColor=default;" vertex="1" parent="1">
          <mxGeometry x="394.99" y="1044.37" width="90" height="90" as="geometry" />
        </mxCell>
        <mxCell id="cJjA6EJP8AFZV5R_d-NW-28" value="Media" style="ellipse;whiteSpace=wrap;html=1;aspect=fixed;fontFamily=Helvetica;fontSize=12;fontColor=default;labelBackgroundColor=default;" vertex="1" parent="1">
          <mxGeometry x="502.49" y="1044.37" width="90" height="90" as="geometry" />
        </mxCell>
        <mxCell id="cJjA6EJP8AFZV5R_d-NW-29" style="edgeStyle=orthogonalEdgeStyle;rounded=0;orthogonalLoop=1;jettySize=auto;html=1;entryX=0.622;entryY=0.027;entryDx=0;entryDy=0;entryPerimeter=0;strokeColor=default;align=center;verticalAlign=middle;fontFamily=Helvetica;fontSize=12;fontColor=default;labelBackgroundColor=default;startSize=8;endArrow=classic;endSize=8;" edge="1" parent="1" source="cJjA6EJP8AFZV5R_d-NW-20" target="cJjA6EJP8AFZV5R_d-NW-27">
          <mxGeometry relative="1" as="geometry" />
        </mxCell>
        <mxCell id="cJjA6EJP8AFZV5R_d-NW-31" value="Badge" style="ellipse;whiteSpace=wrap;html=1;aspect=fixed;fontFamily=Helvetica;fontSize=12;fontColor=default;labelBackgroundColor=default;" vertex="1" parent="1">
          <mxGeometry x="229.99" y="1064.37" width="90" height="90" as="geometry" />
        </mxCell>
        <mxCell id="cJjA6EJP8AFZV5R_d-NW-37" style="edgeStyle=orthogonalEdgeStyle;rounded=0;orthogonalLoop=1;jettySize=auto;html=1;strokeColor=default;align=center;verticalAlign=middle;fontFamily=Helvetica;fontSize=12;fontColor=default;labelBackgroundColor=default;startSize=8;endArrow=classic;endSize=8;" edge="1" parent="1" source="cJjA6EJP8AFZV5R_d-NW-33" target="cJjA6EJP8AFZV5R_d-NW-36">
          <mxGeometry relative="1" as="geometry">
            <Array as="points">
              <mxPoint x="1223.74" y="851.87" />
            </Array>
          </mxGeometry>
        </mxCell>
        <mxCell id="cJjA6EJP8AFZV5R_d-NW-38" style="edgeStyle=orthogonalEdgeStyle;rounded=0;orthogonalLoop=1;jettySize=auto;html=1;strokeColor=default;align=center;verticalAlign=middle;fontFamily=Helvetica;fontSize=12;fontColor=default;labelBackgroundColor=default;startSize=8;endArrow=classic;endSize=8;" edge="1" parent="1" source="cJjA6EJP8AFZV5R_d-NW-33" target="cJjA6EJP8AFZV5R_d-NW-35">
          <mxGeometry relative="1" as="geometry" />
        </mxCell>
        <mxCell id="cJjA6EJP8AFZV5R_d-NW-33" value="Layout" style="ellipse;whiteSpace=wrap;html=1;aspect=fixed;fontFamily=Helvetica;fontSize=12;fontColor=default;labelBackgroundColor=default;" vertex="1" parent="1">
          <mxGeometry x="1268.74" y="806.87" width="90" height="90" as="geometry" />
        </mxCell>
        <mxCell id="cJjA6EJP8AFZV5R_d-NW-35" value="Content" style="ellipse;whiteSpace=wrap;html=1;aspect=fixed;fontFamily=Helvetica;fontSize=12;fontColor=default;labelBackgroundColor=default;fillColor=#99004D;" vertex="1" parent="1">
          <mxGeometry x="1388.74" y="926.87" width="90" height="90" as="geometry" />
        </mxCell>
        <mxCell id="cJjA6EJP8AFZV5R_d-NW-36" value="Tabs" style="ellipse;whiteSpace=wrap;html=1;aspect=fixed;fontFamily=Helvetica;fontSize=12;fontColor=default;labelBackgroundColor=default;" vertex="1" parent="1">
          <mxGeometry x="1178.74" y="926.87" width="90" height="90" as="geometry" />
        </mxCell>
        <mxCell id="cJjA6EJP8AFZV5R_d-NW-78" style="edgeStyle=orthogonalEdgeStyle;rounded=0;orthogonalLoop=1;jettySize=auto;html=1;strokeColor=default;align=center;verticalAlign=middle;fontFamily=Helvetica;fontSize=12;fontColor=default;labelBackgroundColor=default;startSize=8;endArrow=classic;endSize=8;" edge="1" parent="1" source="cJjA6EJP8AFZV5R_d-NW-39" target="cJjA6EJP8AFZV5R_d-NW-77">
          <mxGeometry relative="1" as="geometry" />
        </mxCell>
        <mxCell id="cJjA6EJP8AFZV5R_d-NW-39" value="Product Details" style="ellipse;whiteSpace=wrap;html=1;aspect=fixed;fontFamily=Helvetica;fontSize=12;fontColor=default;labelBackgroundColor=default;fillColor=#99004D;" vertex="1" parent="1">
          <mxGeometry x="701.87" y="1430.62" width="90" height="90" as="geometry" />
        </mxCell>
        <mxCell id="cJjA6EJP8AFZV5R_d-NW-86" style="edgeStyle=orthogonalEdgeStyle;rounded=0;orthogonalLoop=1;jettySize=auto;html=1;strokeColor=default;align=center;verticalAlign=middle;fontFamily=Helvetica;fontSize=12;fontColor=default;labelBackgroundColor=default;startSize=8;endArrow=classic;endSize=8;" edge="1" parent="1" source="cJjA6EJP8AFZV5R_d-NW-40" target="cJjA6EJP8AFZV5R_d-NW-84">
          <mxGeometry relative="1" as="geometry">
            <mxPoint x="363.75" y="1580.62" as="targetPoint" />
            <Array as="points">
              <mxPoint x="393.75" y="1550.62" />
              <mxPoint x="308.75" y="1550.62" />
            </Array>
          </mxGeometry>
        </mxCell>
        <mxCell id="cJjA6EJP8AFZV5R_d-NW-87" style="edgeStyle=orthogonalEdgeStyle;rounded=0;orthogonalLoop=1;jettySize=auto;html=1;strokeColor=default;align=center;verticalAlign=middle;fontFamily=Helvetica;fontSize=12;fontColor=default;labelBackgroundColor=default;startSize=8;endArrow=classic;endSize=8;" edge="1" parent="1" source="cJjA6EJP8AFZV5R_d-NW-40" target="cJjA6EJP8AFZV5R_d-NW-85">
          <mxGeometry relative="1" as="geometry" />
        </mxCell>
        <mxCell id="cJjA6EJP8AFZV5R_d-NW-40" value="Questions" style="ellipse;whiteSpace=wrap;html=1;aspect=fixed;fontFamily=Helvetica;fontSize=12;fontColor=default;labelBackgroundColor=default;fillColor=#99004D;" vertex="1" parent="1">
          <mxGeometry x="348.75" y="1430.62" width="90" height="90" as="geometry" />
        </mxCell>
        <mxCell id="cJjA6EJP8AFZV5R_d-NW-50" style="edgeStyle=orthogonalEdgeStyle;rounded=0;orthogonalLoop=1;jettySize=auto;html=1;entryX=0.5;entryY=0;entryDx=0;entryDy=0;strokeColor=default;align=center;verticalAlign=middle;fontFamily=Helvetica;fontSize=12;fontColor=default;labelBackgroundColor=default;startSize=8;endArrow=classic;endSize=8;" edge="1" parent="1" source="cJjA6EJP8AFZV5R_d-NW-41" target="cJjA6EJP8AFZV5R_d-NW-44">
          <mxGeometry relative="1" as="geometry" />
        </mxCell>
        <mxCell id="cJjA6EJP8AFZV5R_d-NW-51" style="edgeStyle=orthogonalEdgeStyle;rounded=0;orthogonalLoop=1;jettySize=auto;html=1;strokeColor=default;align=center;verticalAlign=middle;fontFamily=Helvetica;fontSize=12;fontColor=default;labelBackgroundColor=default;startSize=8;endArrow=classic;endSize=8;" edge="1" parent="1" source="cJjA6EJP8AFZV5R_d-NW-41" target="cJjA6EJP8AFZV5R_d-NW-45">
          <mxGeometry relative="1" as="geometry" />
        </mxCell>
        <mxCell id="cJjA6EJP8AFZV5R_d-NW-52" style="edgeStyle=orthogonalEdgeStyle;rounded=0;orthogonalLoop=1;jettySize=auto;html=1;entryX=0.5;entryY=0;entryDx=0;entryDy=0;strokeColor=default;align=center;verticalAlign=middle;fontFamily=Helvetica;fontSize=12;fontColor=default;labelBackgroundColor=default;startSize=8;endArrow=classic;endSize=8;" edge="1" parent="1" source="cJjA6EJP8AFZV5R_d-NW-41" target="cJjA6EJP8AFZV5R_d-NW-43">
          <mxGeometry relative="1" as="geometry" />
        </mxCell>
        <mxCell id="cJjA6EJP8AFZV5R_d-NW-41" value="Reveiw" style="ellipse;whiteSpace=wrap;html=1;aspect=fixed;fontFamily=Helvetica;fontSize=12;fontColor=default;labelBackgroundColor=default;fillColor=#99004D;" vertex="1" parent="1">
          <mxGeometry x="1296.8700000000001" y="1415" width="90" height="90" as="geometry" />
        </mxCell>
        <mxCell id="cJjA6EJP8AFZV5R_d-NW-54" style="edgeStyle=orthogonalEdgeStyle;rounded=0;orthogonalLoop=1;jettySize=auto;html=1;entryX=0.5;entryY=0;entryDx=0;entryDy=0;strokeColor=default;align=center;verticalAlign=middle;fontFamily=Helvetica;fontSize=12;fontColor=default;labelBackgroundColor=default;startSize=8;endArrow=classic;endSize=8;" edge="1" parent="1" source="cJjA6EJP8AFZV5R_d-NW-43" target="cJjA6EJP8AFZV5R_d-NW-53">
          <mxGeometry relative="1" as="geometry" />
        </mxCell>
        <mxCell id="cJjA6EJP8AFZV5R_d-NW-56" style="edgeStyle=orthogonalEdgeStyle;rounded=0;orthogonalLoop=1;jettySize=auto;html=1;entryX=0.5;entryY=0;entryDx=0;entryDy=0;strokeColor=default;align=center;verticalAlign=middle;fontFamily=Helvetica;fontSize=12;fontColor=default;labelBackgroundColor=default;startSize=8;endArrow=classic;endSize=8;" edge="1" parent="1" source="cJjA6EJP8AFZV5R_d-NW-43" target="cJjA6EJP8AFZV5R_d-NW-55">
          <mxGeometry relative="1" as="geometry" />
        </mxCell>
        <mxCell id="cJjA6EJP8AFZV5R_d-NW-43" value="Reviews" style="ellipse;whiteSpace=wrap;html=1;aspect=fixed;fontFamily=Helvetica;fontSize=12;fontColor=default;labelBackgroundColor=default;" vertex="1" parent="1">
          <mxGeometry x="1051.87" y="1620" width="80" height="80" as="geometry" />
        </mxCell>
        <mxCell id="cJjA6EJP8AFZV5R_d-NW-44" value="Heading" style="ellipse;whiteSpace=wrap;html=1;aspect=fixed;fontFamily=Helvetica;fontSize=12;fontColor=default;labelBackgroundColor=default;" vertex="1" parent="1">
          <mxGeometry x="1301.8700000000001" y="1620" width="80" height="80" as="geometry" />
        </mxCell>
        <mxCell id="cJjA6EJP8AFZV5R_d-NW-48" style="edgeStyle=orthogonalEdgeStyle;rounded=0;orthogonalLoop=1;jettySize=auto;html=1;entryX=0.5;entryY=0;entryDx=0;entryDy=0;strokeColor=default;align=center;verticalAlign=middle;fontFamily=Helvetica;fontSize=12;fontColor=default;labelBackgroundColor=default;startSize=8;endArrow=classic;endSize=8;" edge="1" parent="1" source="cJjA6EJP8AFZV5R_d-NW-45" target="cJjA6EJP8AFZV5R_d-NW-47">
          <mxGeometry relative="1" as="geometry" />
        </mxCell>
        <mxCell id="cJjA6EJP8AFZV5R_d-NW-49" style="edgeStyle=orthogonalEdgeStyle;rounded=0;orthogonalLoop=1;jettySize=auto;html=1;entryX=0.5;entryY=0;entryDx=0;entryDy=0;strokeColor=default;align=center;verticalAlign=middle;fontFamily=Helvetica;fontSize=12;fontColor=default;labelBackgroundColor=default;startSize=8;endArrow=classic;endSize=8;" edge="1" parent="1" source="cJjA6EJP8AFZV5R_d-NW-45" target="cJjA6EJP8AFZV5R_d-NW-46">
          <mxGeometry relative="1" as="geometry" />
        </mxCell>
        <mxCell id="cJjA6EJP8AFZV5R_d-NW-45" value="Reveiw Input" style="ellipse;whiteSpace=wrap;html=1;aspect=fixed;fontFamily=Helvetica;fontSize=12;fontColor=default;labelBackgroundColor=default;" vertex="1" parent="1">
          <mxGeometry x="1521.8700000000001" y="1620" width="80" height="80" as="geometry" />
        </mxCell>
        <mxCell id="cJjA6EJP8AFZV5R_d-NW-46" value="Text input" style="ellipse;whiteSpace=wrap;html=1;aspect=fixed;fontFamily=Helvetica;fontSize=12;fontColor=default;labelBackgroundColor=default;" vertex="1" parent="1">
          <mxGeometry x="1581.8700000000001" y="1755" width="80" height="80" as="geometry" />
        </mxCell>
        <mxCell id="cJjA6EJP8AFZV5R_d-NW-47" value="Rating input" style="ellipse;whiteSpace=wrap;html=1;aspect=fixed;fontFamily=Helvetica;fontSize=12;fontColor=default;labelBackgroundColor=default;" vertex="1" parent="1">
          <mxGeometry x="1461.8700000000001" y="1755" width="80" height="80" as="geometry" />
        </mxCell>
        <mxCell id="cJjA6EJP8AFZV5R_d-NW-74" style="edgeStyle=orthogonalEdgeStyle;rounded=0;orthogonalLoop=1;jettySize=auto;html=1;entryX=0.5;entryY=0;entryDx=0;entryDy=0;strokeColor=default;align=center;verticalAlign=middle;fontFamily=Helvetica;fontSize=12;fontColor=default;labelBackgroundColor=default;startSize=8;endArrow=classic;endSize=8;" edge="1" parent="1" source="cJjA6EJP8AFZV5R_d-NW-53" target="cJjA6EJP8AFZV5R_d-NW-72">
          <mxGeometry relative="1" as="geometry" />
        </mxCell>
        <mxCell id="cJjA6EJP8AFZV5R_d-NW-75" style="edgeStyle=orthogonalEdgeStyle;rounded=0;orthogonalLoop=1;jettySize=auto;html=1;entryX=0.5;entryY=0;entryDx=0;entryDy=0;strokeColor=default;align=center;verticalAlign=middle;fontFamily=Helvetica;fontSize=12;fontColor=default;labelBackgroundColor=default;startSize=8;endArrow=classic;endSize=8;" edge="1" parent="1" source="cJjA6EJP8AFZV5R_d-NW-53" target="cJjA6EJP8AFZV5R_d-NW-73">
          <mxGeometry relative="1" as="geometry" />
        </mxCell>
        <mxCell id="cJjA6EJP8AFZV5R_d-NW-53" value="Cards Container" style="ellipse;whiteSpace=wrap;html=1;aspect=fixed;fontFamily=Helvetica;fontSize=12;fontColor=default;labelBackgroundColor=default;" vertex="1" parent="1">
          <mxGeometry x="861.87" y="1722.5" width="80" height="80" as="geometry" />
        </mxCell>
        <mxCell id="cJjA6EJP8AFZV5R_d-NW-59" style="edgeStyle=elbowEdgeStyle;rounded=0;orthogonalLoop=1;jettySize=auto;html=1;strokeColor=default;align=center;verticalAlign=middle;fontFamily=Helvetica;fontSize=12;fontColor=default;labelBackgroundColor=default;startSize=8;endArrow=classic;endSize=8;elbow=vertical;" edge="1" parent="1" source="cJjA6EJP8AFZV5R_d-NW-55" target="cJjA6EJP8AFZV5R_d-NW-57">
          <mxGeometry relative="1" as="geometry" />
        </mxCell>
        <mxCell id="cJjA6EJP8AFZV5R_d-NW-61" style="edgeStyle=elbowEdgeStyle;rounded=0;orthogonalLoop=1;jettySize=auto;html=1;entryX=0.5;entryY=0;entryDx=0;entryDy=0;strokeColor=default;align=center;verticalAlign=middle;fontFamily=Helvetica;fontSize=12;fontColor=default;labelBackgroundColor=default;startSize=8;endArrow=classic;endSize=8;elbow=vertical;" edge="1" parent="1" source="cJjA6EJP8AFZV5R_d-NW-55" target="cJjA6EJP8AFZV5R_d-NW-58">
          <mxGeometry relative="1" as="geometry" />
        </mxCell>
        <mxCell id="cJjA6EJP8AFZV5R_d-NW-55" value="Heighlights" style="ellipse;whiteSpace=wrap;html=1;aspect=fixed;fontFamily=Helvetica;fontSize=12;fontColor=default;labelBackgroundColor=default;" vertex="1" parent="1">
          <mxGeometry x="1166.8700000000001" y="1722.5" width="80" height="80" as="geometry" />
        </mxCell>
        <mxCell id="cJjA6EJP8AFZV5R_d-NW-57" value="SortBy" style="ellipse;whiteSpace=wrap;html=1;aspect=fixed;fontFamily=Helvetica;fontSize=12;fontColor=default;labelBackgroundColor=default;" vertex="1" parent="1">
          <mxGeometry x="1086.87" y="1830" width="80" height="80" as="geometry" />
        </mxCell>
        <mxCell id="cJjA6EJP8AFZV5R_d-NW-58" value="Total Review" style="ellipse;whiteSpace=wrap;html=1;aspect=fixed;fontFamily=Helvetica;fontSize=12;fontColor=default;labelBackgroundColor=default;" vertex="1" parent="1">
          <mxGeometry x="1221.8700000000001" y="1835" width="80" height="80" as="geometry" />
        </mxCell>
        <mxCell id="cJjA6EJP8AFZV5R_d-NW-68" style="edgeStyle=orthogonalEdgeStyle;rounded=0;orthogonalLoop=1;jettySize=auto;html=1;strokeColor=default;align=center;verticalAlign=middle;fontFamily=Helvetica;fontSize=12;fontColor=default;labelBackgroundColor=default;startSize=8;endArrow=classic;endSize=8;" edge="1" parent="1" source="cJjA6EJP8AFZV5R_d-NW-62" target="cJjA6EJP8AFZV5R_d-NW-63">
          <mxGeometry relative="1" as="geometry" />
        </mxCell>
        <mxCell id="cJjA6EJP8AFZV5R_d-NW-69" value="" style="edgeStyle=orthogonalEdgeStyle;rounded=0;orthogonalLoop=1;jettySize=auto;html=1;strokeColor=default;align=center;verticalAlign=middle;fontFamily=Helvetica;fontSize=12;fontColor=default;labelBackgroundColor=default;startSize=8;endArrow=classic;endSize=8;" edge="1" parent="1" source="cJjA6EJP8AFZV5R_d-NW-62" target="cJjA6EJP8AFZV5R_d-NW-64">
          <mxGeometry relative="1" as="geometry" />
        </mxCell>
        <mxCell id="cJjA6EJP8AFZV5R_d-NW-70" style="edgeStyle=orthogonalEdgeStyle;rounded=0;orthogonalLoop=1;jettySize=auto;html=1;entryX=1;entryY=0.5;entryDx=0;entryDy=0;strokeColor=default;align=center;verticalAlign=middle;fontFamily=Helvetica;fontSize=12;fontColor=default;labelBackgroundColor=default;startSize=8;endArrow=classic;endSize=8;" edge="1" parent="1" source="cJjA6EJP8AFZV5R_d-NW-62" target="cJjA6EJP8AFZV5R_d-NW-67">
          <mxGeometry relative="1" as="geometry" />
        </mxCell>
        <mxCell id="cJjA6EJP8AFZV5R_d-NW-71" style="edgeStyle=orthogonalEdgeStyle;rounded=0;orthogonalLoop=1;jettySize=auto;html=1;entryX=0.5;entryY=0;entryDx=0;entryDy=0;strokeColor=default;align=center;verticalAlign=middle;fontFamily=Helvetica;fontSize=12;fontColor=default;labelBackgroundColor=default;startSize=8;endArrow=classic;endSize=8;" edge="1" parent="1" source="cJjA6EJP8AFZV5R_d-NW-62" target="cJjA6EJP8AFZV5R_d-NW-65">
          <mxGeometry relative="1" as="geometry" />
        </mxCell>
        <mxCell id="cJjA6EJP8AFZV5R_d-NW-62" value="Review Card" style="ellipse;whiteSpace=wrap;html=1;aspect=fixed;fontFamily=Helvetica;fontSize=12;labelBackgroundColor=default;fillColor=#fad9d5;strokeColor=#ae4132;" vertex="1" parent="1">
          <mxGeometry x="816.87" y="2090.62" width="80" height="80" as="geometry" />
        </mxCell>
        <mxCell id="cJjA6EJP8AFZV5R_d-NW-63" value="Avater" style="ellipse;whiteSpace=wrap;html=1;aspect=fixed;fontFamily=Helvetica;fontSize=12;fontColor=default;labelBackgroundColor=default;" vertex="1" parent="1">
          <mxGeometry x="701.87" y="2198.12" width="80" height="80" as="geometry" />
        </mxCell>
        <mxCell id="cJjA6EJP8AFZV5R_d-NW-64" value="Name" style="ellipse;whiteSpace=wrap;html=1;aspect=fixed;fontFamily=Helvetica;fontSize=12;fontColor=default;labelBackgroundColor=default;" vertex="1" parent="1">
          <mxGeometry x="816.87" y="2198.12" width="80" height="80" as="geometry" />
        </mxCell>
        <mxCell id="cJjA6EJP8AFZV5R_d-NW-65" value="Review Text" style="ellipse;whiteSpace=wrap;html=1;aspect=fixed;fontFamily=Helvetica;fontSize=12;fontColor=default;labelBackgroundColor=default;" vertex="1" parent="1">
          <mxGeometry x="1041.87" y="2198.12" width="80" height="80" as="geometry" />
        </mxCell>
        <mxCell id="cJjA6EJP8AFZV5R_d-NW-67" value="Rating" style="ellipse;whiteSpace=wrap;html=1;aspect=fixed;flipH=1;flipV=1;direction=north;movable=1;resizable=1;rotatable=1;deletable=1;editable=1;locked=0;connectable=1;fillColor=#9AC7BF;" vertex="1" parent="1">
          <mxGeometry x="921.87" y="2198.12" width="90" height="90" as="geometry" />
        </mxCell>
        <mxCell id="cJjA6EJP8AFZV5R_d-NW-72" value="Review Card" style="ellipse;whiteSpace=wrap;html=1;aspect=fixed;fontFamily=Helvetica;fontSize=12;labelBackgroundColor=default;fillColor=#fad9d5;strokeColor=#ae4132;" vertex="1" parent="1">
          <mxGeometry x="791.87" y="1845" width="80" height="80" as="geometry" />
        </mxCell>
        <mxCell id="cJjA6EJP8AFZV5R_d-NW-73" value="Review Card" style="ellipse;whiteSpace=wrap;html=1;aspect=fixed;fontFamily=Helvetica;fontSize=12;labelBackgroundColor=default;fillColor=#fad9d5;strokeColor=#ae4132;" vertex="1" parent="1">
          <mxGeometry x="906.87" y="1845" width="80" height="80" as="geometry" />
        </mxCell>
        <mxCell id="cJjA6EJP8AFZV5R_d-NW-77" value="Rich Text" style="ellipse;whiteSpace=wrap;html=1;aspect=fixed;fontFamily=Helvetica;fontSize=12;fontColor=default;labelBackgroundColor=default;" vertex="1" parent="1">
          <mxGeometry x="706.87" y="1618.12" width="80" height="80" as="geometry" />
        </mxCell>
        <mxCell id="cJjA6EJP8AFZV5R_d-NW-82" style="edgeStyle=orthogonalEdgeStyle;rounded=0;orthogonalLoop=1;jettySize=auto;html=1;entryX=0.5;entryY=0;entryDx=0;entryDy=0;strokeColor=default;align=center;verticalAlign=middle;fontFamily=Helvetica;fontSize=12;fontColor=default;labelBackgroundColor=default;startSize=8;endArrow=classic;endSize=8;" edge="1" parent="1" source="cJjA6EJP8AFZV5R_d-NW-79" target="cJjA6EJP8AFZV5R_d-NW-80">
          <mxGeometry relative="1" as="geometry" />
        </mxCell>
        <mxCell id="cJjA6EJP8AFZV5R_d-NW-83" style="edgeStyle=orthogonalEdgeStyle;rounded=0;orthogonalLoop=1;jettySize=auto;html=1;strokeColor=default;align=center;verticalAlign=middle;fontFamily=Helvetica;fontSize=12;fontColor=default;labelBackgroundColor=default;startSize=8;endArrow=classic;endSize=8;" edge="1" parent="1" source="cJjA6EJP8AFZV5R_d-NW-79" target="cJjA6EJP8AFZV5R_d-NW-81">
          <mxGeometry relative="1" as="geometry" />
        </mxCell>
        <mxCell id="cJjA6EJP8AFZV5R_d-NW-79" value="Faq Card" style="ellipse;whiteSpace=wrap;html=1;aspect=fixed;fontFamily=Helvetica;fontSize=12;labelBackgroundColor=default;fillColor=#b1ddf0;strokeColor=#10739e;" vertex="1" parent="1">
          <mxGeometry x="328.75" y="1775.62" width="80" height="80" as="geometry" />
        </mxCell>
        <mxCell id="cJjA6EJP8AFZV5R_d-NW-80" value="Question" style="ellipse;whiteSpace=wrap;html=1;aspect=fixed;fontFamily=Helvetica;fontSize=12;fontColor=default;labelBackgroundColor=default;" vertex="1" parent="1">
          <mxGeometry x="273.75" y="1888.12" width="80" height="80" as="geometry" />
        </mxCell>
        <mxCell id="cJjA6EJP8AFZV5R_d-NW-81" value="answer" style="ellipse;whiteSpace=wrap;html=1;aspect=fixed;fontFamily=Helvetica;fontSize=12;fontColor=default;labelBackgroundColor=default;" vertex="1" parent="1">
          <mxGeometry x="393.75" y="1888.12" width="75" height="75" as="geometry" />
        </mxCell>
        <mxCell id="cJjA6EJP8AFZV5R_d-NW-84" value="Faq Card" style="ellipse;whiteSpace=wrap;html=1;aspect=fixed;fontFamily=Helvetica;fontSize=12;labelBackgroundColor=default;fillColor=#b1ddf0;strokeColor=#10739e;" vertex="1" parent="1">
          <mxGeometry x="273.75" y="1578.12" width="80" height="80" as="geometry" />
        </mxCell>
        <mxCell id="cJjA6EJP8AFZV5R_d-NW-85" value="Faq Card" style="ellipse;whiteSpace=wrap;html=1;aspect=fixed;fontFamily=Helvetica;fontSize=12;labelBackgroundColor=default;fillColor=#b1ddf0;strokeColor=#10739e;" vertex="1" parent="1">
          <mxGeometry x="421.25" y="1578.12" width="80" height="80" as="geometry" />
        </mxCell>
        <mxCell id="cJjA6EJP8AFZV5R_d-NW-164" style="edgeStyle=orthogonalEdgeStyle;rounded=0;orthogonalLoop=1;jettySize=auto;html=1;strokeColor=default;align=center;verticalAlign=middle;fontFamily=Helvetica;fontSize=12;fontColor=default;labelBackgroundColor=default;startSize=8;endArrow=classic;endSize=8;" edge="1" parent="1" source="cJjA6EJP8AFZV5R_d-NW-89" target="cJjA6EJP8AFZV5R_d-NW-163">
          <mxGeometry relative="1" as="geometry" />
        </mxCell>
        <mxCell id="cJjA6EJP8AFZV5R_d-NW-89" value="CheckOut Page" style="ellipse;whiteSpace=wrap;html=1;aspect=fixed;fillColor=#d5e8d4;strokeColor=#82b366;" vertex="1" parent="1">
          <mxGeometry x="2175" y="432.5" width="105" height="105" as="geometry" />
        </mxCell>
        <mxCell id="cJjA6EJP8AFZV5R_d-NW-99" style="edgeStyle=orthogonalEdgeStyle;rounded=0;orthogonalLoop=1;jettySize=auto;html=1;entryX=0.5;entryY=0;entryDx=0;entryDy=0;strokeColor=default;align=center;verticalAlign=middle;fontFamily=Helvetica;fontSize=12;fontColor=default;labelBackgroundColor=default;startSize=8;endArrow=classic;endSize=8;" edge="1" parent="1" source="cJjA6EJP8AFZV5R_d-NW-91" target="cJjA6EJP8AFZV5R_d-NW-97">
          <mxGeometry relative="1" as="geometry" />
        </mxCell>
        <mxCell id="cJjA6EJP8AFZV5R_d-NW-91" value="Order Summary" style="ellipse;whiteSpace=wrap;html=1;aspect=fixed;fontFamily=Helvetica;fontSize=12;fontColor=default;labelBackgroundColor=default;" vertex="1" parent="1">
          <mxGeometry x="2170" y="1047.5" width="80" height="80" as="geometry" />
        </mxCell>
        <mxCell id="cJjA6EJP8AFZV5R_d-NW-92" value="Contact info" style="ellipse;whiteSpace=wrap;html=1;aspect=fixed;fontFamily=Helvetica;fontSize=12;fontColor=default;labelBackgroundColor=default;" vertex="1" parent="1">
          <mxGeometry x="2330" y="1067.5" width="80" height="80" as="geometry" />
        </mxCell>
        <mxCell id="cJjA6EJP8AFZV5R_d-NW-93" value="Payement Method" style="ellipse;whiteSpace=wrap;html=1;aspect=fixed;fontFamily=Helvetica;fontSize=12;fontColor=default;labelBackgroundColor=default;" vertex="1" parent="1">
          <mxGeometry x="2025" y="1067.5" width="80" height="80" as="geometry" />
        </mxCell>
        <mxCell id="cJjA6EJP8AFZV5R_d-NW-95" value="Heading" style="ellipse;whiteSpace=wrap;html=1;aspect=fixed;" vertex="1" parent="1">
          <mxGeometry x="1311.25" y="3330" width="75" height="75" as="geometry" />
        </mxCell>
        <mxCell id="cJjA6EJP8AFZV5R_d-NW-96" value="FlyOut&amp;nbsp; cart" style="ellipse;whiteSpace=wrap;html=1;aspect=fixed;fillColor=#33FF33;" vertex="1" parent="1">
          <mxGeometry x="1522.5" y="-170" width="75" height="75" as="geometry" />
        </mxCell>
        <mxCell id="cJjA6EJP8AFZV5R_d-NW-97" value="FlyOut&amp;nbsp; cart" style="ellipse;whiteSpace=wrap;html=1;aspect=fixed;fillColor=#33FF33;" vertex="1" parent="1">
          <mxGeometry x="2172.5" y="1167.5" width="75" height="75" as="geometry" />
        </mxCell>
        <mxCell id="cJjA6EJP8AFZV5R_d-NW-106" style="edgeStyle=orthogonalEdgeStyle;rounded=0;orthogonalLoop=1;jettySize=auto;html=1;strokeColor=default;align=center;verticalAlign=middle;fontFamily=Helvetica;fontSize=12;fontColor=default;labelBackgroundColor=default;startSize=8;endArrow=classic;endSize=8;" edge="1" parent="1" source="cJjA6EJP8AFZV5R_d-NW-102" target="cJjA6EJP8AFZV5R_d-NW-105">
          <mxGeometry relative="1" as="geometry" />
        </mxCell>
        <mxCell id="cJjA6EJP8AFZV5R_d-NW-102" value="My Account / DashBoard" style="ellipse;whiteSpace=wrap;html=1;aspect=fixed;fillColor=#d5e8d4;strokeColor=#82b366;" vertex="1" parent="1">
          <mxGeometry x="3705" y="426.25" width="105" height="105" as="geometry" />
        </mxCell>
        <mxCell id="cJjA6EJP8AFZV5R_d-NW-103" value="Content" style="ellipse;whiteSpace=wrap;html=1;aspect=fixed;fontFamily=Helvetica;fontSize=12;labelBackgroundColor=default;fillColor=#e1d5e7;strokeColor=#9673a6;" vertex="1" parent="1">
          <mxGeometry x="3990" y="766.25" width="95" height="95" as="geometry" />
        </mxCell>
        <mxCell id="cJjA6EJP8AFZV5R_d-NW-115" style="edgeStyle=orthogonalEdgeStyle;rounded=0;orthogonalLoop=1;jettySize=auto;html=1;entryX=0.5;entryY=0;entryDx=0;entryDy=0;strokeColor=default;align=center;verticalAlign=middle;fontFamily=Helvetica;fontSize=12;fontColor=default;labelBackgroundColor=default;startSize=8;endArrow=classic;endSize=8;" edge="1" parent="1" source="cJjA6EJP8AFZV5R_d-NW-104" target="cJjA6EJP8AFZV5R_d-NW-110">
          <mxGeometry relative="1" as="geometry" />
        </mxCell>
        <mxCell id="cJjA6EJP8AFZV5R_d-NW-104" value="Sidebar" style="ellipse;whiteSpace=wrap;html=1;aspect=fixed;fontFamily=Helvetica;fontSize=12;fontColor=default;labelBackgroundColor=default;" vertex="1" parent="1">
          <mxGeometry x="3510" y="766.25" width="95" height="95" as="geometry" />
        </mxCell>
        <mxCell id="cJjA6EJP8AFZV5R_d-NW-107" style="edgeStyle=orthogonalEdgeStyle;rounded=0;orthogonalLoop=1;jettySize=auto;html=1;entryX=0.5;entryY=0;entryDx=0;entryDy=0;strokeColor=default;align=center;verticalAlign=middle;fontFamily=Helvetica;fontSize=12;fontColor=default;labelBackgroundColor=default;startSize=8;endArrow=classic;endSize=8;" edge="1" parent="1" source="cJjA6EJP8AFZV5R_d-NW-105" target="cJjA6EJP8AFZV5R_d-NW-104">
          <mxGeometry relative="1" as="geometry" />
        </mxCell>
        <mxCell id="cJjA6EJP8AFZV5R_d-NW-108" style="edgeStyle=orthogonalEdgeStyle;rounded=0;orthogonalLoop=1;jettySize=auto;html=1;strokeColor=default;align=center;verticalAlign=middle;fontFamily=Helvetica;fontSize=12;fontColor=default;labelBackgroundColor=default;startSize=8;endArrow=classic;endSize=8;" edge="1" parent="1" source="cJjA6EJP8AFZV5R_d-NW-105" target="cJjA6EJP8AFZV5R_d-NW-103">
          <mxGeometry relative="1" as="geometry" />
        </mxCell>
        <mxCell id="cJjA6EJP8AFZV5R_d-NW-121" style="edgeStyle=orthogonalEdgeStyle;rounded=0;orthogonalLoop=1;jettySize=auto;html=1;strokeColor=default;align=center;verticalAlign=middle;fontFamily=Helvetica;fontSize=12;fontColor=default;labelBackgroundColor=default;startSize=8;endArrow=classic;endSize=8;entryX=0.5;entryY=0;entryDx=0;entryDy=0;" edge="1" parent="1" source="cJjA6EJP8AFZV5R_d-NW-105" target="cJjA6EJP8AFZV5R_d-NW-122">
          <mxGeometry relative="1" as="geometry">
            <mxPoint x="3757.5" y="801.25" as="targetPoint" />
          </mxGeometry>
        </mxCell>
        <mxCell id="cJjA6EJP8AFZV5R_d-NW-105" value="Layout" style="ellipse;whiteSpace=wrap;html=1;aspect=fixed;fontFamily=Helvetica;fontSize=12;fontColor=default;labelBackgroundColor=default;" vertex="1" parent="1">
          <mxGeometry x="3710" y="601.25" width="95" height="95" as="geometry" />
        </mxCell>
        <mxCell id="cJjA6EJP8AFZV5R_d-NW-109" value="User Info" style="ellipse;whiteSpace=wrap;html=1;aspect=fixed;fontFamily=Helvetica;fontSize=12;fontColor=default;labelBackgroundColor=default;" vertex="1" parent="1">
          <mxGeometry x="3345" y="891.25" width="95" height="95" as="geometry" />
        </mxCell>
        <mxCell id="cJjA6EJP8AFZV5R_d-NW-114" style="edgeStyle=orthogonalEdgeStyle;rounded=0;orthogonalLoop=1;jettySize=auto;html=1;entryX=0.5;entryY=0;entryDx=0;entryDy=0;strokeColor=default;align=center;verticalAlign=middle;fontFamily=Helvetica;fontSize=12;fontColor=default;labelBackgroundColor=default;startSize=8;endArrow=classic;endSize=8;" edge="1" parent="1" source="cJjA6EJP8AFZV5R_d-NW-110" target="cJjA6EJP8AFZV5R_d-NW-112">
          <mxGeometry relative="1" as="geometry" />
        </mxCell>
        <mxCell id="cJjA6EJP8AFZV5R_d-NW-110" value="Tabs Container" style="ellipse;whiteSpace=wrap;html=1;aspect=fixed;fontFamily=Helvetica;fontSize=12;fontColor=default;labelBackgroundColor=default;" vertex="1" parent="1">
          <mxGeometry x="3525" y="898.75" width="95" height="95" as="geometry" />
        </mxCell>
        <mxCell id="cJjA6EJP8AFZV5R_d-NW-111" value="tab" style="ellipse;whiteSpace=wrap;html=1;aspect=fixed;fontFamily=Helvetica;fontSize=12;fontColor=default;labelBackgroundColor=default;" vertex="1" parent="1">
          <mxGeometry x="3465" y="1026.25" width="95" height="95" as="geometry" />
        </mxCell>
        <mxCell id="cJjA6EJP8AFZV5R_d-NW-112" value="tab" style="ellipse;whiteSpace=wrap;html=1;aspect=fixed;fontFamily=Helvetica;fontSize=12;fontColor=default;labelBackgroundColor=default;" vertex="1" parent="1">
          <mxGeometry x="3570" y="1011.25" width="95" height="95" as="geometry" />
        </mxCell>
        <mxCell id="cJjA6EJP8AFZV5R_d-NW-113" style="edgeStyle=orthogonalEdgeStyle;rounded=0;orthogonalLoop=1;jettySize=auto;html=1;entryX=0.632;entryY=0;entryDx=0;entryDy=0;entryPerimeter=0;strokeColor=default;align=center;verticalAlign=middle;fontFamily=Helvetica;fontSize=12;fontColor=default;labelBackgroundColor=default;startSize=8;endArrow=classic;endSize=8;" edge="1" parent="1" source="cJjA6EJP8AFZV5R_d-NW-110" target="cJjA6EJP8AFZV5R_d-NW-111">
          <mxGeometry relative="1" as="geometry" />
        </mxCell>
        <mxCell id="cJjA6EJP8AFZV5R_d-NW-116" style="edgeStyle=orthogonalEdgeStyle;rounded=0;orthogonalLoop=1;jettySize=auto;html=1;entryX=0.369;entryY=0.046;entryDx=0;entryDy=0;entryPerimeter=0;strokeColor=default;align=center;verticalAlign=middle;fontFamily=Helvetica;fontSize=12;fontColor=default;labelBackgroundColor=default;startSize=8;endArrow=classic;endSize=8;" edge="1" parent="1" source="cJjA6EJP8AFZV5R_d-NW-104" target="cJjA6EJP8AFZV5R_d-NW-109">
          <mxGeometry relative="1" as="geometry" />
        </mxCell>
        <mxCell id="cJjA6EJP8AFZV5R_d-NW-161" style="edgeStyle=orthogonalEdgeStyle;rounded=0;orthogonalLoop=1;jettySize=auto;html=1;strokeColor=default;align=center;verticalAlign=middle;fontFamily=Helvetica;fontSize=12;fontColor=default;labelBackgroundColor=default;startSize=8;endArrow=classic;endSize=8;" edge="1" parent="1" source="cJjA6EJP8AFZV5R_d-NW-117" target="cJjA6EJP8AFZV5R_d-NW-159">
          <mxGeometry relative="1" as="geometry" />
        </mxCell>
        <mxCell id="cJjA6EJP8AFZV5R_d-NW-162" style="edgeStyle=orthogonalEdgeStyle;rounded=0;orthogonalLoop=1;jettySize=auto;html=1;strokeColor=default;align=center;verticalAlign=middle;fontFamily=Helvetica;fontSize=12;fontColor=default;labelBackgroundColor=default;startSize=8;endArrow=classic;endSize=8;" edge="1" parent="1" source="cJjA6EJP8AFZV5R_d-NW-117" target="cJjA6EJP8AFZV5R_d-NW-160">
          <mxGeometry relative="1" as="geometry">
            <mxPoint x="3330" y="1318.75" as="targetPoint" />
          </mxGeometry>
        </mxCell>
        <mxCell id="cJjA6EJP8AFZV5R_d-NW-117" value="Account" style="ellipse;whiteSpace=wrap;html=1;aspect=fixed;fontFamily=Helvetica;fontSize=12;labelBackgroundColor=default;fillColor=#e1d5e7;strokeColor=#9673a6;" vertex="1" parent="1">
          <mxGeometry x="3270" y="1198.75" width="95" height="95" as="geometry" />
        </mxCell>
        <mxCell id="cJjA6EJP8AFZV5R_d-NW-144" style="edgeStyle=orthogonalEdgeStyle;rounded=0;orthogonalLoop=1;jettySize=auto;html=1;entryX=0.5;entryY=0;entryDx=0;entryDy=0;strokeColor=default;align=center;verticalAlign=middle;fontFamily=Helvetica;fontSize=12;fontColor=default;labelBackgroundColor=default;startSize=8;endArrow=classic;endSize=8;" edge="1" parent="1" source="cJjA6EJP8AFZV5R_d-NW-118" target="cJjA6EJP8AFZV5R_d-NW-142">
          <mxGeometry relative="1" as="geometry" />
        </mxCell>
        <mxCell id="cJjA6EJP8AFZV5R_d-NW-145" style="edgeStyle=orthogonalEdgeStyle;rounded=0;orthogonalLoop=1;jettySize=auto;html=1;entryX=0.5;entryY=0;entryDx=0;entryDy=0;strokeColor=default;align=center;verticalAlign=middle;fontFamily=Helvetica;fontSize=12;fontColor=default;labelBackgroundColor=default;startSize=8;endArrow=classic;endSize=8;" edge="1" parent="1" source="cJjA6EJP8AFZV5R_d-NW-118" target="cJjA6EJP8AFZV5R_d-NW-143">
          <mxGeometry relative="1" as="geometry" />
        </mxCell>
        <mxCell id="cJjA6EJP8AFZV5R_d-NW-146" style="edgeStyle=orthogonalEdgeStyle;rounded=0;orthogonalLoop=1;jettySize=auto;html=1;strokeColor=default;align=center;verticalAlign=middle;fontFamily=Helvetica;fontSize=12;fontColor=default;labelBackgroundColor=default;startSize=8;endArrow=classic;endSize=8;" edge="1" parent="1" source="cJjA6EJP8AFZV5R_d-NW-118">
          <mxGeometry relative="1" as="geometry">
            <mxPoint x="3765" y="1353.75" as="targetPoint" />
          </mxGeometry>
        </mxCell>
        <mxCell id="cJjA6EJP8AFZV5R_d-NW-118" value="Address" style="ellipse;whiteSpace=wrap;html=1;aspect=fixed;fontFamily=Helvetica;fontSize=12;labelBackgroundColor=default;fillColor=#e1d5e7;strokeColor=#9673a6;" vertex="1" parent="1">
          <mxGeometry x="3525" y="1198.75" width="95" height="95" as="geometry" />
        </mxCell>
        <mxCell id="cJjA6EJP8AFZV5R_d-NW-135" style="edgeStyle=orthogonalEdgeStyle;rounded=0;orthogonalLoop=1;jettySize=auto;html=1;entryX=0.5;entryY=0;entryDx=0;entryDy=0;strokeColor=default;align=center;verticalAlign=middle;fontFamily=Helvetica;fontSize=12;fontColor=default;labelBackgroundColor=default;startSize=8;endArrow=classic;endSize=8;" edge="1" parent="1" source="cJjA6EJP8AFZV5R_d-NW-119" target="cJjA6EJP8AFZV5R_d-NW-132">
          <mxGeometry relative="1" as="geometry" />
        </mxCell>
        <mxCell id="cJjA6EJP8AFZV5R_d-NW-140" style="edgeStyle=orthogonalEdgeStyle;rounded=0;orthogonalLoop=1;jettySize=auto;html=1;strokeColor=default;align=center;verticalAlign=middle;fontFamily=Helvetica;fontSize=12;fontColor=default;labelBackgroundColor=default;startSize=8;endArrow=classic;endSize=8;" edge="1" parent="1" source="cJjA6EJP8AFZV5R_d-NW-119" target="cJjA6EJP8AFZV5R_d-NW-139">
          <mxGeometry relative="1" as="geometry" />
        </mxCell>
        <mxCell id="cJjA6EJP8AFZV5R_d-NW-119" value="Order History" style="ellipse;whiteSpace=wrap;html=1;aspect=fixed;fontFamily=Helvetica;fontSize=12;labelBackgroundColor=default;fillColor=#e1d5e7;strokeColor=#9673a6;" vertex="1" parent="1">
          <mxGeometry x="3870" y="1206.25" width="95" height="95" as="geometry" />
        </mxCell>
        <mxCell id="cJjA6EJP8AFZV5R_d-NW-130" style="edgeStyle=orthogonalEdgeStyle;rounded=0;orthogonalLoop=1;jettySize=auto;html=1;entryX=0.5;entryY=0;entryDx=0;entryDy=0;strokeColor=default;align=center;verticalAlign=middle;fontFamily=Helvetica;fontSize=12;fontColor=default;labelBackgroundColor=default;startSize=8;endArrow=classic;endSize=8;" edge="1" parent="1" source="cJjA6EJP8AFZV5R_d-NW-120" target="cJjA6EJP8AFZV5R_d-NW-128">
          <mxGeometry relative="1" as="geometry" />
        </mxCell>
        <mxCell id="cJjA6EJP8AFZV5R_d-NW-131" style="edgeStyle=orthogonalEdgeStyle;rounded=0;orthogonalLoop=1;jettySize=auto;html=1;entryX=0.5;entryY=0;entryDx=0;entryDy=0;strokeColor=default;align=center;verticalAlign=middle;fontFamily=Helvetica;fontSize=12;fontColor=default;labelBackgroundColor=default;startSize=8;endArrow=classic;endSize=8;" edge="1" parent="1" source="cJjA6EJP8AFZV5R_d-NW-120" target="cJjA6EJP8AFZV5R_d-NW-129">
          <mxGeometry relative="1" as="geometry" />
        </mxCell>
        <mxCell id="cJjA6EJP8AFZV5R_d-NW-120" value="Wish-list" style="ellipse;whiteSpace=wrap;html=1;aspect=fixed;fontFamily=Helvetica;fontSize=12;labelBackgroundColor=default;fillColor=#e1d5e7;strokeColor=#9673a6;" vertex="1" parent="1">
          <mxGeometry x="4222.5" y="1191.25" width="95" height="95" as="geometry" />
        </mxCell>
        <mxCell id="cJjA6EJP8AFZV5R_d-NW-122" value="Content Heading" style="ellipse;whiteSpace=wrap;html=1;aspect=fixed;fontFamily=Helvetica;fontSize=12;fontColor=default;labelBackgroundColor=default;" vertex="1" parent="1">
          <mxGeometry x="3710" y="806.25" width="95" height="95" as="geometry" />
        </mxCell>
        <mxCell id="cJjA6EJP8AFZV5R_d-NW-123" value="Add to Card Action" style="ellipse;whiteSpace=wrap;html=1;aspect=fixed;fontFamily=Helvetica;fontSize=12;fontColor=default;labelBackgroundColor=default;" vertex="1" parent="1">
          <mxGeometry x="4350" y="1715" width="80" height="80" as="geometry" />
        </mxCell>
        <mxCell id="cJjA6EJP8AFZV5R_d-NW-125" style="edgeStyle=orthogonalEdgeStyle;rounded=0;orthogonalLoop=1;jettySize=auto;html=1;strokeColor=default;align=center;verticalAlign=middle;fontFamily=Helvetica;fontSize=12;fontColor=default;labelBackgroundColor=default;startSize=8;endArrow=classic;endSize=8;" edge="1" parent="1" source="cJjA6EJP8AFZV5R_d-NW-124" target="cJjA6EJP8AFZV5R_d-NW-123">
          <mxGeometry relative="1" as="geometry" />
        </mxCell>
        <mxCell id="cJjA6EJP8AFZV5R_d-NW-124" value="Wish-product Card" style="ellipse;whiteSpace=wrap;html=1;aspect=fixed;fontFamily=Helvetica;fontSize=12;fontColor=#333333;labelBackgroundColor=default;fillColor=#f5f5f5;strokeColor=#666666;" vertex="1" parent="1">
          <mxGeometry x="4275" y="1575" width="95" height="95" as="geometry" />
        </mxCell>
        <mxCell id="cJjA6EJP8AFZV5R_d-NW-126" value="product cell" style="ellipse;whiteSpace=wrap;html=1;aspect=fixed;fillColor=#e6d0de;gradientColor=#d5739d;strokeColor=#996185;" vertex="1" parent="1">
          <mxGeometry x="4230" y="1715" width="87.5" height="87.5" as="geometry" />
        </mxCell>
        <mxCell id="cJjA6EJP8AFZV5R_d-NW-127" style="edgeStyle=orthogonalEdgeStyle;rounded=0;orthogonalLoop=1;jettySize=auto;html=1;entryX=0.343;entryY=0;entryDx=0;entryDy=0;entryPerimeter=0;strokeColor=default;align=center;verticalAlign=middle;fontFamily=Helvetica;fontSize=12;fontColor=default;labelBackgroundColor=default;startSize=8;endArrow=classic;endSize=8;" edge="1" parent="1" source="cJjA6EJP8AFZV5R_d-NW-124" target="cJjA6EJP8AFZV5R_d-NW-126">
          <mxGeometry relative="1" as="geometry" />
        </mxCell>
        <mxCell id="cJjA6EJP8AFZV5R_d-NW-128" value="Wish-product Card" style="ellipse;whiteSpace=wrap;html=1;aspect=fixed;fontFamily=Helvetica;fontSize=12;fontColor=#333333;labelBackgroundColor=default;fillColor=#f5f5f5;strokeColor=#666666;" vertex="1" parent="1">
          <mxGeometry x="4155" y="1383.75" width="95" height="95" as="geometry" />
        </mxCell>
        <mxCell id="cJjA6EJP8AFZV5R_d-NW-129" value="Wish-product Card" style="ellipse;whiteSpace=wrap;html=1;aspect=fixed;fontFamily=Helvetica;fontSize=12;labelBackgroundColor=default;fillColor=#f5f5f5;fontColor=#333333;strokeColor=#666666;" vertex="1" parent="1">
          <mxGeometry x="4295" y="1383.75" width="95" height="95" as="geometry" />
        </mxCell>
        <mxCell id="cJjA6EJP8AFZV5R_d-NW-137" style="edgeStyle=orthogonalEdgeStyle;rounded=0;orthogonalLoop=1;jettySize=auto;html=1;entryX=0.5;entryY=0;entryDx=0;entryDy=0;strokeColor=default;align=center;verticalAlign=middle;fontFamily=Helvetica;fontSize=12;fontColor=default;labelBackgroundColor=default;startSize=8;endArrow=classic;endSize=8;" edge="1" parent="1" source="cJjA6EJP8AFZV5R_d-NW-132" target="cJjA6EJP8AFZV5R_d-NW-134">
          <mxGeometry relative="1" as="geometry" />
        </mxCell>
        <mxCell id="cJjA6EJP8AFZV5R_d-NW-138" style="edgeStyle=orthogonalEdgeStyle;rounded=0;orthogonalLoop=1;jettySize=auto;html=1;strokeColor=default;align=center;verticalAlign=middle;fontFamily=Helvetica;fontSize=12;fontColor=default;labelBackgroundColor=default;startSize=8;endArrow=classic;endSize=8;" edge="1" parent="1" source="cJjA6EJP8AFZV5R_d-NW-132" target="cJjA6EJP8AFZV5R_d-NW-136">
          <mxGeometry relative="1" as="geometry" />
        </mxCell>
        <mxCell id="cJjA6EJP8AFZV5R_d-NW-132" value="Container" style="ellipse;whiteSpace=wrap;html=1;aspect=fixed;fontFamily=Helvetica;fontSize=12;fontColor=default;labelBackgroundColor=default;" vertex="1" parent="1">
          <mxGeometry x="3877.5" y="1336.25" width="80" height="80" as="geometry" />
        </mxCell>
        <mxCell id="cJjA6EJP8AFZV5R_d-NW-134" value="item Card" style="ellipse;whiteSpace=wrap;html=1;aspect=fixed;fontFamily=Helvetica;fontSize=12;fontColor=default;labelBackgroundColor=default;" vertex="1" parent="1">
          <mxGeometry x="3825" y="1466.25" width="80" height="80" as="geometry" />
        </mxCell>
        <mxCell id="cJjA6EJP8AFZV5R_d-NW-136" value="item Card" style="ellipse;whiteSpace=wrap;html=1;aspect=fixed;fontFamily=Helvetica;fontSize=12;fontColor=default;labelBackgroundColor=default;" vertex="1" parent="1">
          <mxGeometry x="3945" y="1466.25" width="80" height="80" as="geometry" />
        </mxCell>
        <mxCell id="cJjA6EJP8AFZV5R_d-NW-139" value="pagination" style="ellipse;whiteSpace=wrap;html=1;aspect=fixed;fontFamily=Helvetica;fontSize=12;fontColor=default;labelBackgroundColor=default;" vertex="1" parent="1">
          <mxGeometry x="3990" y="1316.25" width="80" height="80" as="geometry" />
        </mxCell>
        <mxCell id="cJjA6EJP8AFZV5R_d-NW-142" value="Billing Address" style="ellipse;whiteSpace=wrap;html=1;aspect=fixed;fontFamily=Helvetica;fontSize=12;fontColor=default;labelBackgroundColor=default;" vertex="1" parent="1">
          <mxGeometry x="3480" y="1351.25" width="80" height="80" as="geometry" />
        </mxCell>
        <mxCell id="cJjA6EJP8AFZV5R_d-NW-143" value="Shipping Address" style="ellipse;whiteSpace=wrap;html=1;aspect=fixed;fontFamily=Helvetica;fontSize=12;fontColor=default;labelBackgroundColor=default;" vertex="1" parent="1">
          <mxGeometry x="3585" y="1351.25" width="80" height="80" as="geometry" />
        </mxCell>
        <mxCell id="cJjA6EJP8AFZV5R_d-NW-149" style="edgeStyle=orthogonalEdgeStyle;rounded=0;orthogonalLoop=1;jettySize=auto;html=1;entryX=0.5;entryY=0;entryDx=0;entryDy=0;strokeColor=default;align=center;verticalAlign=middle;fontFamily=Helvetica;fontSize=12;fontColor=default;labelBackgroundColor=default;startSize=8;endArrow=classic;endSize=8;" edge="1" parent="1" source="cJjA6EJP8AFZV5R_d-NW-147" target="cJjA6EJP8AFZV5R_d-NW-148">
          <mxGeometry relative="1" as="geometry" />
        </mxCell>
        <mxCell id="cJjA6EJP8AFZV5R_d-NW-147" value="Modal" style="ellipse;whiteSpace=wrap;html=1;aspect=fixed;fontFamily=Helvetica;fontSize=12;fontColor=default;labelBackgroundColor=default;" vertex="1" parent="1">
          <mxGeometry x="3720" y="1351.25" width="80" height="80" as="geometry" />
        </mxCell>
        <mxCell id="cJjA6EJP8AFZV5R_d-NW-148" value="Address Details" style="ellipse;whiteSpace=wrap;html=1;aspect=fixed;fontFamily=Helvetica;fontSize=12;fontColor=default;labelBackgroundColor=default;" vertex="1" parent="1">
          <mxGeometry x="3720" y="1453.75" width="80" height="80" as="geometry" />
        </mxCell>
        <mxCell id="cJjA6EJP8AFZV5R_d-NW-159" value="User Details" style="ellipse;whiteSpace=wrap;html=1;aspect=fixed;fontFamily=Helvetica;fontSize=12;fontColor=default;labelBackgroundColor=default;" vertex="1" parent="1">
          <mxGeometry x="3210" y="1348.75" width="80" height="80" as="geometry" />
        </mxCell>
        <mxCell id="cJjA6EJP8AFZV5R_d-NW-160" value="Password" style="ellipse;whiteSpace=wrap;html=1;aspect=fixed;fontFamily=Helvetica;fontSize=12;fontColor=default;labelBackgroundColor=default;" vertex="1" parent="1">
          <mxGeometry x="3345" y="1351.25" width="80" height="80" as="geometry" />
        </mxCell>
        <mxCell id="cJjA6EJP8AFZV5R_d-NW-166" style="edgeStyle=orthogonalEdgeStyle;rounded=0;orthogonalLoop=1;jettySize=auto;html=1;entryX=0.5;entryY=0;entryDx=0;entryDy=0;strokeColor=default;align=center;verticalAlign=middle;fontFamily=Helvetica;fontSize=12;fontColor=default;labelBackgroundColor=default;startSize=8;endArrow=classic;endSize=8;" edge="1" parent="1" source="cJjA6EJP8AFZV5R_d-NW-163" target="cJjA6EJP8AFZV5R_d-NW-165">
          <mxGeometry relative="1" as="geometry" />
        </mxCell>
        <mxCell id="cJjA6EJP8AFZV5R_d-NW-168" style="edgeStyle=orthogonalEdgeStyle;rounded=0;orthogonalLoop=1;jettySize=auto;html=1;strokeColor=default;align=center;verticalAlign=middle;fontFamily=Helvetica;fontSize=12;fontColor=default;labelBackgroundColor=default;startSize=8;endArrow=classic;endSize=8;" edge="1" parent="1" source="cJjA6EJP8AFZV5R_d-NW-163" target="cJjA6EJP8AFZV5R_d-NW-167">
          <mxGeometry relative="1" as="geometry" />
        </mxCell>
        <mxCell id="cJjA6EJP8AFZV5R_d-NW-163" value="Layout" style="ellipse;whiteSpace=wrap;html=1;aspect=fixed;fontFamily=Helvetica;fontSize=12;fontColor=default;labelBackgroundColor=default;" vertex="1" parent="1">
          <mxGeometry x="2187.5" y="587.5" width="80" height="80" as="geometry" />
        </mxCell>
        <mxCell id="cJjA6EJP8AFZV5R_d-NW-165" value="Process Steps" style="ellipse;whiteSpace=wrap;html=1;aspect=fixed;fontFamily=Helvetica;fontSize=12;fontColor=default;labelBackgroundColor=default;" vertex="1" parent="1">
          <mxGeometry x="2025" y="722.5" width="100" height="100" as="geometry" />
        </mxCell>
        <mxCell id="n_hQNZrwe9v2qWnjwRf1-3" style="edgeStyle=none;curved=0;rounded=0;orthogonalLoop=1;jettySize=auto;html=1;entryX=0.5;entryY=0;entryDx=0;entryDy=0;fontSize=12;startSize=8;endSize=8;" edge="1" parent="1" source="cJjA6EJP8AFZV5R_d-NW-167" target="cJjA6EJP8AFZV5R_d-NW-169">
          <mxGeometry relative="1" as="geometry">
            <Array as="points">
              <mxPoint x="2210" y="773" />
            </Array>
          </mxGeometry>
        </mxCell>
        <mxCell id="n_hQNZrwe9v2qWnjwRf1-4" style="edgeStyle=none;curved=0;rounded=0;orthogonalLoop=1;jettySize=auto;html=1;entryX=0.5;entryY=0;entryDx=0;entryDy=0;fontSize=12;startSize=8;endSize=8;" edge="1" parent="1" source="cJjA6EJP8AFZV5R_d-NW-167" target="cJjA6EJP8AFZV5R_d-NW-178">
          <mxGeometry relative="1" as="geometry">
            <Array as="points">
              <mxPoint x="2540" y="773" />
            </Array>
          </mxGeometry>
        </mxCell>
        <mxCell id="cJjA6EJP8AFZV5R_d-NW-167" value="Content" style="ellipse;whiteSpace=wrap;html=1;aspect=fixed;fontFamily=Helvetica;fontSize=12;labelBackgroundColor=default;" vertex="1" parent="1">
          <mxGeometry x="2340" y="722.5" width="100" height="100" as="geometry" />
        </mxCell>
        <mxCell id="cJjA6EJP8AFZV5R_d-NW-170" style="edgeStyle=orthogonalEdgeStyle;rounded=0;orthogonalLoop=1;jettySize=auto;html=1;entryX=0.5;entryY=0;entryDx=0;entryDy=0;strokeColor=default;align=center;verticalAlign=middle;fontFamily=Helvetica;fontSize=12;fontColor=default;labelBackgroundColor=default;startSize=8;endArrow=classic;endSize=8;" edge="1" parent="1" source="cJjA6EJP8AFZV5R_d-NW-169" target="cJjA6EJP8AFZV5R_d-NW-93">
          <mxGeometry relative="1" as="geometry" />
        </mxCell>
        <mxCell id="cJjA6EJP8AFZV5R_d-NW-171" style="edgeStyle=orthogonalEdgeStyle;rounded=0;orthogonalLoop=1;jettySize=auto;html=1;entryX=0.5;entryY=0;entryDx=0;entryDy=0;strokeColor=default;align=center;verticalAlign=middle;fontFamily=Helvetica;fontSize=12;fontColor=default;labelBackgroundColor=default;startSize=8;endArrow=classic;endSize=8;" edge="1" parent="1" source="cJjA6EJP8AFZV5R_d-NW-169" target="cJjA6EJP8AFZV5R_d-NW-91">
          <mxGeometry relative="1" as="geometry" />
        </mxCell>
        <mxCell id="cJjA6EJP8AFZV5R_d-NW-172" style="edgeStyle=orthogonalEdgeStyle;rounded=0;orthogonalLoop=1;jettySize=auto;html=1;strokeColor=default;align=center;verticalAlign=middle;fontFamily=Helvetica;fontSize=12;fontColor=default;labelBackgroundColor=default;startSize=8;endArrow=classic;endSize=8;" edge="1" parent="1" source="cJjA6EJP8AFZV5R_d-NW-169" target="cJjA6EJP8AFZV5R_d-NW-92">
          <mxGeometry relative="1" as="geometry" />
        </mxCell>
        <mxCell id="cJjA6EJP8AFZV5R_d-NW-169" value="Checkout" style="ellipse;whiteSpace=wrap;html=1;aspect=fixed;fontFamily=Helvetica;fontSize=12;labelBackgroundColor=default;" vertex="1" parent="1">
          <mxGeometry x="2160" y="922.5" width="100" height="100" as="geometry" />
        </mxCell>
        <mxCell id="cJjA6EJP8AFZV5R_d-NW-180" style="edgeStyle=orthogonalEdgeStyle;rounded=0;orthogonalLoop=1;jettySize=auto;html=1;entryX=0.5;entryY=0;entryDx=0;entryDy=0;strokeColor=default;align=center;verticalAlign=middle;fontFamily=Helvetica;fontSize=12;fontColor=default;labelBackgroundColor=default;startSize=8;endArrow=classic;endSize=8;" edge="1" parent="1" source="cJjA6EJP8AFZV5R_d-NW-178" target="cJjA6EJP8AFZV5R_d-NW-179">
          <mxGeometry relative="1" as="geometry" />
        </mxCell>
        <mxCell id="cJjA6EJP8AFZV5R_d-NW-182" style="edgeStyle=orthogonalEdgeStyle;rounded=0;orthogonalLoop=1;jettySize=auto;html=1;entryX=0.5;entryY=0;entryDx=0;entryDy=0;strokeColor=default;align=center;verticalAlign=middle;fontFamily=Helvetica;fontSize=12;fontColor=default;labelBackgroundColor=default;startSize=8;endArrow=classic;endSize=8;" edge="1" parent="1" source="cJjA6EJP8AFZV5R_d-NW-178" target="cJjA6EJP8AFZV5R_d-NW-181">
          <mxGeometry relative="1" as="geometry" />
        </mxCell>
        <mxCell id="cJjA6EJP8AFZV5R_d-NW-178" value="Order complete" style="ellipse;whiteSpace=wrap;html=1;aspect=fixed;fontFamily=Helvetica;fontSize=12;labelBackgroundColor=default;" vertex="1" parent="1">
          <mxGeometry x="2490" y="945" width="100" height="100" as="geometry" />
        </mxCell>
        <mxCell id="cJjA6EJP8AFZV5R_d-NW-179" value="Order Info" style="ellipse;whiteSpace=wrap;html=1;aspect=fixed;fontFamily=Helvetica;fontSize=12;fontColor=default;labelBackgroundColor=default;" vertex="1" parent="1">
          <mxGeometry x="2440" y="1082.5" width="80" height="80" as="geometry" />
        </mxCell>
        <mxCell id="cJjA6EJP8AFZV5R_d-NW-181" value="Wellness message" style="ellipse;whiteSpace=wrap;html=1;aspect=fixed;fontFamily=Helvetica;fontSize=12;fontColor=default;labelBackgroundColor=default;" vertex="1" parent="1">
          <mxGeometry x="2545" y="1082.5" width="80" height="80" as="geometry" />
        </mxCell>
        <mxCell id="cJjA6EJP8AFZV5R_d-NW-185" style="edgeStyle=elbowEdgeStyle;rounded=0;orthogonalLoop=1;jettySize=auto;html=1;entryX=0.5;entryY=0;entryDx=0;entryDy=0;strokeColor=default;align=center;verticalAlign=middle;fontFamily=Helvetica;fontSize=12;fontColor=default;labelBackgroundColor=default;startSize=8;endArrow=classic;endSize=8;elbow=vertical;" edge="1" parent="1" source="cJjA6EJP8AFZV5R_d-NW-183" target="cJjA6EJP8AFZV5R_d-NW-184">
          <mxGeometry relative="1" as="geometry" />
        </mxCell>
        <mxCell id="cJjA6EJP8AFZV5R_d-NW-187" style="edgeStyle=elbowEdgeStyle;rounded=0;orthogonalLoop=1;jettySize=auto;html=1;entryX=0.5;entryY=0;entryDx=0;entryDy=0;strokeColor=default;align=center;verticalAlign=middle;fontFamily=Helvetica;fontSize=12;fontColor=default;labelBackgroundColor=default;startSize=8;endArrow=classic;endSize=8;elbow=vertical;" edge="1" parent="1" source="cJjA6EJP8AFZV5R_d-NW-183" target="cJjA6EJP8AFZV5R_d-NW-186">
          <mxGeometry relative="1" as="geometry" />
        </mxCell>
        <mxCell id="cJjA6EJP8AFZV5R_d-NW-190" style="edgeStyle=orthogonalEdgeStyle;rounded=0;orthogonalLoop=1;jettySize=auto;html=1;entryX=1;entryY=0.5;entryDx=0;entryDy=0;strokeColor=default;align=center;verticalAlign=middle;fontFamily=Helvetica;fontSize=12;fontColor=default;labelBackgroundColor=default;startSize=8;endArrow=classic;endSize=8;" edge="1" parent="1" source="cJjA6EJP8AFZV5R_d-NW-183" target="cJjA6EJP8AFZV5R_d-NW-199">
          <mxGeometry relative="1" as="geometry">
            <mxPoint x="4717.5" y="656.87" as="targetPoint" />
          </mxGeometry>
        </mxCell>
        <mxCell id="cJjA6EJP8AFZV5R_d-NW-201" style="edgeStyle=elbowEdgeStyle;rounded=0;orthogonalLoop=1;jettySize=auto;html=1;entryX=0.5;entryY=0;entryDx=0;entryDy=0;strokeColor=default;align=center;verticalAlign=middle;fontFamily=Helvetica;fontSize=12;fontColor=default;labelBackgroundColor=default;startSize=8;endArrow=classic;endSize=8;elbow=vertical;" edge="1" parent="1" source="cJjA6EJP8AFZV5R_d-NW-183" target="cJjA6EJP8AFZV5R_d-NW-188">
          <mxGeometry relative="1" as="geometry" />
        </mxCell>
        <mxCell id="cJjA6EJP8AFZV5R_d-NW-183" value="Contact Us Page" style="ellipse;whiteSpace=wrap;html=1;aspect=fixed;fillColor=#d5e8d4;strokeColor=#82b366;" vertex="1" parent="1">
          <mxGeometry x="4665" y="439.37" width="105" height="105" as="geometry" />
        </mxCell>
        <mxCell id="cJjA6EJP8AFZV5R_d-NW-184" value="About Banner" style="ellipse;whiteSpace=wrap;html=1;aspect=fixed;fontFamily=Helvetica;fontSize=12;fontColor=default;labelBackgroundColor=default;" vertex="1" parent="1">
          <mxGeometry x="4365" y="654.37" width="80" height="80" as="geometry" />
        </mxCell>
        <mxCell id="cJjA6EJP8AFZV5R_d-NW-186" value="Highlight about Company" style="ellipse;whiteSpace=wrap;html=1;aspect=fixed;fontFamily=Helvetica;fontSize=12;fontColor=default;labelBackgroundColor=default;" vertex="1" parent="1">
          <mxGeometry x="4545" y="654.37" width="80" height="80" as="geometry" />
        </mxCell>
        <mxCell id="cJjA6EJP8AFZV5R_d-NW-204" style="edgeStyle=orthogonalEdgeStyle;rounded=0;orthogonalLoop=1;jettySize=auto;html=1;entryX=0.5;entryY=0;entryDx=0;entryDy=0;strokeColor=default;align=center;verticalAlign=middle;fontFamily=Helvetica;fontSize=12;fontColor=default;labelBackgroundColor=default;startSize=8;endArrow=classic;endSize=8;" edge="1" parent="1" source="cJjA6EJP8AFZV5R_d-NW-188" target="cJjA6EJP8AFZV5R_d-NW-202">
          <mxGeometry relative="1" as="geometry" />
        </mxCell>
        <mxCell id="cJjA6EJP8AFZV5R_d-NW-206" style="edgeStyle=orthogonalEdgeStyle;rounded=0;orthogonalLoop=1;jettySize=auto;html=1;entryX=0.5;entryY=0;entryDx=0;entryDy=0;strokeColor=default;align=center;verticalAlign=middle;fontFamily=Helvetica;fontSize=12;fontColor=default;labelBackgroundColor=default;startSize=8;endArrow=classic;endSize=8;" edge="1" parent="1" source="cJjA6EJP8AFZV5R_d-NW-188" target="cJjA6EJP8AFZV5R_d-NW-205">
          <mxGeometry relative="1" as="geometry" />
        </mxCell>
        <mxCell id="cJjA6EJP8AFZV5R_d-NW-188" value="Contact Us" style="ellipse;whiteSpace=wrap;html=1;aspect=fixed;fontFamily=Helvetica;fontSize=12;fontColor=default;labelBackgroundColor=default;" vertex="1" parent="1">
          <mxGeometry x="4950" y="654.37" width="80" height="80" as="geometry" />
        </mxCell>
        <mxCell id="cJjA6EJP8AFZV5R_d-NW-191" value="" style="edgeStyle=orthogonalEdgeStyle;rounded=0;orthogonalLoop=1;jettySize=auto;html=1;strokeColor=default;align=center;verticalAlign=middle;fontFamily=Helvetica;fontSize=12;fontColor=default;labelBackgroundColor=default;startSize=8;endArrow=classic;endSize=8;" edge="1" parent="1" source="cJjA6EJP8AFZV5R_d-NW-192" target="cJjA6EJP8AFZV5R_d-NW-195">
          <mxGeometry relative="1" as="geometry" />
        </mxCell>
        <mxCell id="cJjA6EJP8AFZV5R_d-NW-192" value="Trust Parameter" style="ellipse;whiteSpace=wrap;html=1;aspect=fixed;flipH=1;flipV=1;direction=north;movable=1;resizable=1;rotatable=1;deletable=1;editable=1;locked=0;connectable=1;fillColor=#FFA29C;" vertex="1" parent="1">
          <mxGeometry x="2209.37" y="3221.25" width="75" height="75" as="geometry" />
        </mxCell>
        <mxCell id="cJjA6EJP8AFZV5R_d-NW-193" style="edgeStyle=elbowEdgeStyle;rounded=0;orthogonalLoop=1;jettySize=auto;html=1;entryX=1;entryY=0.5;entryDx=0;entryDy=0;strokeColor=default;align=center;verticalAlign=middle;fontFamily=Helvetica;fontSize=12;fontColor=default;labelBackgroundColor=default;startSize=8;endArrow=classic;endSize=8;elbow=vertical;" edge="1" parent="1" source="cJjA6EJP8AFZV5R_d-NW-195" target="cJjA6EJP8AFZV5R_d-NW-196">
          <mxGeometry relative="1" as="geometry" />
        </mxCell>
        <mxCell id="cJjA6EJP8AFZV5R_d-NW-194" style="edgeStyle=elbowEdgeStyle;rounded=0;orthogonalLoop=1;jettySize=auto;html=1;strokeColor=default;align=center;verticalAlign=middle;fontFamily=Helvetica;fontSize=12;fontColor=default;labelBackgroundColor=default;startSize=8;endArrow=classic;endSize=8;elbow=vertical;" edge="1" parent="1" source="cJjA6EJP8AFZV5R_d-NW-195" target="cJjA6EJP8AFZV5R_d-NW-197">
          <mxGeometry relative="1" as="geometry" />
        </mxCell>
        <mxCell id="cJjA6EJP8AFZV5R_d-NW-195" value="Card Container" style="ellipse;whiteSpace=wrap;html=1;aspect=fixed;flipH=1;flipV=1;direction=north;movable=1;resizable=1;rotatable=1;deletable=1;editable=1;locked=0;connectable=1;" vertex="1" parent="1">
          <mxGeometry x="2209.37" y="3343.13" width="75" height="75" as="geometry" />
        </mxCell>
        <mxCell id="cJjA6EJP8AFZV5R_d-NW-196" value="trust Card" style="ellipse;whiteSpace=wrap;html=1;aspect=fixed;flipH=1;flipV=1;direction=north;movable=1;resizable=1;rotatable=1;deletable=1;editable=1;locked=0;connectable=1;fillColor=#d5e8d4;strokeColor=#82b366;gradientColor=#97d077;" vertex="1" parent="1">
          <mxGeometry x="2141.87" y="3456.25" width="75" height="75" as="geometry" />
        </mxCell>
        <mxCell id="cJjA6EJP8AFZV5R_d-NW-197" value="trust Card" style="ellipse;whiteSpace=wrap;html=1;aspect=fixed;flipH=1;flipV=1;direction=north;movable=1;resizable=1;rotatable=1;deletable=1;editable=1;locked=0;connectable=1;fillColor=#d5e8d4;strokeColor=#82b366;gradientColor=#97d077;" vertex="1" parent="1">
          <mxGeometry x="2284.37" y="3461.25" width="75" height="75" as="geometry" />
        </mxCell>
        <mxCell id="cJjA6EJP8AFZV5R_d-NW-198" value="Trust Parameter" style="ellipse;whiteSpace=wrap;html=1;aspect=fixed;flipH=1;flipV=1;direction=north;movable=1;resizable=1;rotatable=1;deletable=1;editable=1;locked=0;connectable=1;fillColor=#FFA29C;" vertex="1" parent="1">
          <mxGeometry x="-1817.5" y="664.38" width="75" height="75" as="geometry" />
        </mxCell>
        <mxCell id="cJjA6EJP8AFZV5R_d-NW-199" value="Trust Parameter" style="ellipse;whiteSpace=wrap;html=1;aspect=fixed;flipH=1;flipV=1;direction=north;movable=1;resizable=1;rotatable=1;deletable=1;editable=1;locked=0;connectable=1;fillColor=#FFA29C;" vertex="1" parent="1">
          <mxGeometry x="4680" y="669.37" width="75" height="75" as="geometry" />
        </mxCell>
        <mxCell id="cJjA6EJP8AFZV5R_d-NW-202" value="Info Container" style="ellipse;whiteSpace=wrap;html=1;aspect=fixed;fontFamily=Helvetica;fontSize=12;fontColor=default;labelBackgroundColor=default;" vertex="1" parent="1">
          <mxGeometry x="4830" y="784.37" width="80" height="80" as="geometry" />
        </mxCell>
        <mxCell id="cJjA6EJP8AFZV5R_d-NW-209" style="edgeStyle=orthogonalEdgeStyle;rounded=0;orthogonalLoop=1;jettySize=auto;html=1;entryX=0.5;entryY=0;entryDx=0;entryDy=0;strokeColor=default;align=center;verticalAlign=middle;fontFamily=Helvetica;fontSize=12;fontColor=default;labelBackgroundColor=default;startSize=8;endArrow=classic;endSize=8;" edge="1" parent="1" source="cJjA6EJP8AFZV5R_d-NW-205" target="cJjA6EJP8AFZV5R_d-NW-208">
          <mxGeometry relative="1" as="geometry" />
        </mxCell>
        <mxCell id="cJjA6EJP8AFZV5R_d-NW-205" value="Get In touch" style="ellipse;whiteSpace=wrap;html=1;aspect=fixed;fontFamily=Helvetica;fontSize=12;fontColor=default;labelBackgroundColor=default;" vertex="1" parent="1">
          <mxGeometry x="5070" y="784.37" width="80" height="80" as="geometry" />
        </mxCell>
        <mxCell id="cJjA6EJP8AFZV5R_d-NW-207" value="Form Inputs" style="ellipse;whiteSpace=wrap;html=1;aspect=fixed;fontFamily=Helvetica;fontSize=12;fontColor=default;labelBackgroundColor=default;" vertex="1" parent="1">
          <mxGeometry x="5010" y="903.75" width="80" height="80" as="geometry" />
        </mxCell>
        <mxCell id="cJjA6EJP8AFZV5R_d-NW-208" value="Maps" style="ellipse;whiteSpace=wrap;html=1;aspect=fixed;fontFamily=Helvetica;fontSize=12;fontColor=default;labelBackgroundColor=default;" vertex="1" parent="1">
          <mxGeometry x="5130" y="904.37" width="80" height="80" as="geometry" />
        </mxCell>
        <mxCell id="cJjA6EJP8AFZV5R_d-NW-210" style="edgeStyle=orthogonalEdgeStyle;rounded=0;orthogonalLoop=1;jettySize=auto;html=1;entryX=0.382;entryY=0.029;entryDx=0;entryDy=0;entryPerimeter=0;strokeColor=default;align=center;verticalAlign=middle;fontFamily=Helvetica;fontSize=12;fontColor=default;labelBackgroundColor=default;startSize=8;endArrow=classic;endSize=8;" edge="1" parent="1" source="cJjA6EJP8AFZV5R_d-NW-205" target="cJjA6EJP8AFZV5R_d-NW-207">
          <mxGeometry relative="1" as="geometry" />
        </mxCell>
      </root>
    </mxGraphModel>
  </diagram>
</mxfile>
